<svg xmlns="http://www.w3.org/2000/svg" viewBox="0 0 97 39.96"><defs><style>.cls-1{fill:#b5b5b5;}</style></defs><title>Asset 73</title><g id="Layer_2" data-name="Layer 2"><g id="Layer_1-2" data-name="Layer 1"><path class="cls-1" d="M35.27,37.24a1.2,1.2,0,0,1-.92-.19,1.55,1.55,0,0,1-.49-.86l.58-.25c.13.59.38.86.75.8a.4.4,0,0,0,.39-.52.84.84,0,0,0-.07-.24.75.75,0,0,0-.15-.2,1.53,1.53,0,0,0-.16-.13L35,35.54l-.87-.48a1.18,1.18,0,0,1-.63-.9.94.94,0,0,1,.18-.79,1.12,1.12,0,0,1,.76-.41,1.32,1.32,0,0,1,.9.12,1.07,1.07,0,0,1,.49.65s0,.08,0,.14l-.61.24a1,1,0,0,1,0-.12.81.81,0,0,0-.26-.43.53.53,0,0,0-.45-.11.53.53,0,0,0-.34.18.47.47,0,0,0-.07.36.73.73,0,0,0,.41.54l.87.48a1.45,1.45,0,0,1,.78,1.08,1,1,0,0,1-.18.77,1.15,1.15,0,0,1-.73.38"/><path class="cls-1" d="M37,36.94c-.21-1.69-.33-2.54-.54-4.23l.64-.08.5,4.23-.6.08"/><path class="cls-1" d="M38.51,36.76l-.45-4.24.48-.05c.55,1,.82,1.51,1.34,2.52-.09-1.05-.13-1.57-.22-2.63l.64,0c.13,1.7.19,2.55.32,4.26l-.43,0c-.52-1.1-.79-1.64-1.35-2.73.11,1.13.16,1.7.27,2.83l-.6.06"/><path class="cls-1" d="M42.55,36.49a1.36,1.36,0,0,1-.47-.05.91.91,0,0,1-.35-.19,1.09,1.09,0,0,1-.23-.32,2.16,2.16,0,0,1-.14-.43,3.49,3.49,0,0,1-.07-.51c0-.49,0-.73-.08-1.21a2.93,2.93,0,0,1,0-.52,1.56,1.56,0,0,1,.09-.44,1.13,1.13,0,0,1,.2-.34,1,1,0,0,1,.34-.24,1.54,1.54,0,0,1,.5-.09,1.37,1.37,0,0,1,.55.06.85.85,0,0,1,.37.24,1.36,1.36,0,0,1,.22.39,2,2,0,0,1,.09.53s0,.08,0,.14l-.63,0a.57.57,0,0,0,0-.13c0-.09,0-.16,0-.22a1.16,1.16,0,0,0,0-.18.59.59,0,0,0-.06-.16.38.38,0,0,0-.11-.11.35.35,0,0,0-.15-.07.68.68,0,0,0-.21,0,.91.91,0,0,0-.26.06.47.47,0,0,0-.17.14.52.52,0,0,0-.08.2,1.13,1.13,0,0,0,0,.25c0,.08,0,.18,0,.3,0,.6,0,.91.08,1.52a1.12,1.12,0,0,0,0,.27,1.14,1.14,0,0,0,.06.25.68.68,0,0,0,.11.19.37.37,0,0,0,.17.13.47.47,0,0,0,.24,0,.44.44,0,0,0,.23-.06.67.67,0,0,0,.15-.14,1,1,0,0,0,.08-.21l0-.25v-.28a.76.76,0,0,1,0-.15l.62,0V35a2.09,2.09,0,0,1,0,.58,1.28,1.28,0,0,1-.17.45,1,1,0,0,1-.34.31,1.38,1.38,0,0,1-.53.12"/><path class="cls-1" d="M44.32,36.39c0-1.71,0-2.56-.09-4.27.71,0,1.06,0,1.77,0,0,.18,0,.27,0,.46H44.88c0,.55,0,.82,0,1.37h.79v.45H44.9c0,.61,0,.91,0,1.52.42,0,.63,0,1.06,0v.45c-.67,0-1,0-1.66,0"/><path class="cls-1" d="M48.37,36.43c.05-1.34.08-2,.13-3.35l-.48,0c0-.18,0-.27,0-.46a1,1,0,0,0,.65-.43l.48,0c-.07,1.71-.12,2.56-.2,4.26l-.6,0"/><path class="cls-1" d="M50.79,36.61a1.06,1.06,0,0,1-.77-.35,1.1,1.1,0,0,1-.22-.83l.61,0a.87.87,0,0,0,.07.46.38.38,0,0,0,.34.18c.31,0,.48-.27.53-.88l0-.6a.65.65,0,0,1-.64.25,1,1,0,0,1-.44-.12.61.61,0,0,1-.27-.28,1.12,1.12,0,0,1-.13-.39,2.5,2.5,0,0,1,0-.49,2.16,2.16,0,0,1,.1-.54,1.4,1.4,0,0,1,.22-.44.89.89,0,0,1,.37-.28,1.28,1.28,0,0,1,.93,0,1,1,0,0,1,.3.23,1.19,1.19,0,0,1,.19.33,1.67,1.67,0,0,1,.1.4,3.23,3.23,0,0,1,0,.44c0,.55-.08.82-.13,1.37a3.46,3.46,0,0,1-.07.48,2,2,0,0,1-.15.41,1.36,1.36,0,0,1-.22.33,1,1,0,0,1-.32.2,1.21,1.21,0,0,1-.43,0M51,34.44a.54.54,0,0,0,.49-.27l.05-.6a1.4,1.4,0,0,0,0-.29,2,2,0,0,0-.05-.24.45.45,0,0,0-.14-.19.36.36,0,0,0-.23-.08.47.47,0,0,0-.24,0,.41.41,0,0,0-.15.17.64.64,0,0,0-.1.24,1.93,1.93,0,0,0,0,.27.53.53,0,0,1,0,.14v.26a.57.57,0,0,0,0,.12.37.37,0,0,0,0,.12l0,.09a.26.26,0,0,0,0,.09l.08.06a.19.19,0,0,0,.09.05l.13,0"/><path class="cls-1" d="M53.58,36.88a1,1,0,0,1-.75-.38,1.13,1.13,0,0,1-.2-.84l.62.06a.75.75,0,0,0,0,.47.37.37,0,0,0,.33.19c.31,0,.5-.25.57-.85,0-.24,0-.36.07-.61a.64.64,0,0,1-.65.23,1,1,0,0,1-.44-.14.7.7,0,0,1-.26-.28,1.68,1.68,0,0,1-.11-.4,2.74,2.74,0,0,1,0-.49,2.15,2.15,0,0,1,.11-.54,1.64,1.64,0,0,1,.24-.43.79.79,0,0,1,.38-.26,1,1,0,0,1,.53,0,1,1,0,0,1,.4.12.76.76,0,0,1,.29.24,1,1,0,0,1,.18.34,1.29,1.29,0,0,1,.08.4,2.23,2.23,0,0,1,0,.44c-.07.54-.11.81-.18,1.36a3,3,0,0,1-.09.47,2.5,2.5,0,0,1-.16.41,1.16,1.16,0,0,1-.24.32.78.78,0,0,1-.33.19,1,1,0,0,1-.43,0m.25-2.16a.53.53,0,0,0,.5-.25c0-.24,0-.36.07-.6a1.36,1.36,0,0,0,0-.28.69.69,0,0,0,0-.25.36.36,0,0,0-.13-.19.32.32,0,0,0-.22-.1.38.38,0,0,0-.24,0,.37.37,0,0,0-.17.16,1.6,1.6,0,0,0-.1.23,2,2,0,0,0,0,.28.72.72,0,0,0,0,.13s0,.08,0,.13v.25s0,.09,0,.12a.94.94,0,0,1,0,.09.36.36,0,0,0,.05.09l.08.07a.19.19,0,0,0,.09,0l.13,0"/><path class="cls-1" d="M55.26,37.06c0-.24.05-.37.09-.61.51-.54.77-.81,1.29-1.34l.11-.1.1-.11.1-.1.09-.11.08-.11s.05-.1.07-.14a1.09,1.09,0,0,0,.05-.14.85.85,0,0,0,0-.17.71.71,0,0,0-.05-.44.42.42,0,0,0-.33-.24.47.47,0,0,0-.24,0,.35.35,0,0,0-.17.15,1,1,0,0,0-.11.23,1.76,1.76,0,0,0-.07.27.77.77,0,0,1,0,.15l-.62-.09c0-.06,0-.09,0-.15a1.42,1.42,0,0,1,.4-.88A1,1,0,0,1,57,33a1.15,1.15,0,0,1,.78.42,1.16,1.16,0,0,1,.15.86,3.1,3.1,0,0,1-.1.36,1.11,1.11,0,0,1-.17.3,1.86,1.86,0,0,1-.18.23l-.22.23L56,36.54l1.51.25c0,.24-.07.36-.11.6-.84-.14-1.26-.21-2.1-.33"/><path class="cls-1" d="M88,36.83c-.76.57-1.78,1-2,1.55l11-.09c-1.18-1.09-2.29-1.36-3.11-2.23a4.75,4.75,0,0,1-1.09-2.5L87,1.47A21.07,21.07,0,0,1,85,2.34C80.92,4,74.68,5.27,66.86,6.22c-3,.37-6.24.69-9.68,1l-2.59,3,2.34-.08.18,12.78a2.64,2.64,0,1,1-5.27.07l-.18-12.62,2.61-.14L51,7.41c-3,0-5.84-.1-8.64-.29l-.48,0C38.34,6.84,35,6.46,31.67,6l1.48,2.79,3.09.5L36,26.54a1.29,1.29,0,0,1-1.1,1.21A1,1,0,0,1,33.6,27L29.11,4.44c-.59.73-1.23,1.44-1.9,2.12a52.26,52.26,0,0,1-5.72,4.9l2.85-.25-1,4.53c-4-.47-8.52,1.12-10.51,4.36a6,6,0,0,0-1.13,3.22A1.71,1.71,0,0,0,13.44,25a1.7,1.7,0,0,0,1.67-1.74,7.36,7.36,0,0,0-1.57-3.54,14,14,0,0,1,9.23-1.22l-2.4,11.12-1.5.28v-.46c0-2.67-.82-8.51-4-9.83.22,1.06.87,1.88,1.11,3a4.64,4.64,0,0,1,.06.91A2.75,2.75,0,0,1,15.5,25a3.06,3.06,0,0,1-.55.53,5.15,5.15,0,0,1-.7.36l-.29.06a12.09,12.09,0,0,1,1,3.72,5.84,5.84,0,0,1-3.65,5.68A6.42,6.42,0,0,1,9,35.76c-3.25.05-5.17-2.92-5.2-5.46a3,3,0,0,1,1.38-2.69c1.37-1,1.39-3.64,1.33-5.56a10.61,10.61,0,0,0-.71-3c-.23-.6-.49-.52-.58,0a4.06,4.06,0,0,1-.75,1.5c-1.72,2.7-4.56,6.63-4.5,10,.08,4.6,4.17,9.6,9.67,9.51a7.71,7.71,0,0,0,1.67-.21,10.05,10.05,0,0,0,7.08-7,34,34,0,0,1,8.46-1.56l-.8-2.21-2.86.35,2.14-10a13,13,0,0,1,1.85,1A10.81,10.81,0,0,1,29.27,22l1.24,6.17-2.3.32-1,2.63a70.6,70.6,0,0,1,15.1-1.21c.84,0,1.68.1,2.53.18L43.59,27.2l-1.25,0-2.58-.06.05-4.84a9.54,9.54,0,0,0,2.53-.5,9,9,0,0,0,3.29-1.95,6.85,6.85,0,0,0,2.14-5.24,10.1,10.1,0,0,0-1.14-4.2l2,.2.13,12.9a5.9,5.9,0,0,0,11.79-.16l-.19-13.25L61.77,10l2.56,19.62,2.53-.16,1.19-.07,2.19-10.23,1.48,10.62,3,.59,2.83-11.41h-.51l-.9.08-.67.15A8.45,8.45,0,0,1,76,21.07a5.33,5.33,0,0,1,.08,1.13,3.58,3.58,0,0,1-.14.65,3.23,3.23,0,0,1-.31.58,3.33,3.33,0,0,1-.46.46l-.38.22-.42.15-.46,0-.46,0-.43-.13-.38-.22a3.34,3.34,0,0,1-.47-.45L72,23.1a2.74,2.74,0,0,1-.21-.63A5.23,5.23,0,0,1,72,20.15a7,7,0,0,1,.83-1.69l-1-9.73c1.5-.25,3-.53,4.47-.84l-2.27,9.28h0l0,0,.42-.26.45-.24,1-.43L77,15.87l1.14-.26.25,0,2.14-8.64c1-.22,1.92-.47,2.9-.71-1,3.38-2,6.66-3.05,9.88-3.4.12-6.75,1.51-7.27,3.31A5.49,5.49,0,0,0,72.45,22a1.49,1.49,0,0,0,1.47,1.55A1.51,1.51,0,0,0,75.39,22a7,7,0,0,0-1-3.28,9.54,9.54,0,0,1,5.24-.31c-1.76,5.54-3.55,10.89-5.61,16.23-.8,2.09-3,3.05-5.33,4.11l13.33-.26c-1.36-.8-2.39-1.29-3.21-1.9-1.49-1.11-1.09-1.19-.76-2.15,1.62-4.8,3.4-9.48,4.92-14.91a13.58,13.58,0,0,1,2,1.22,11.29,11.29,0,0,1,2.06,1.9l2,11.94c.23,1.36.05,1.43-1.08,2.26M27.21,17A7.73,7.73,0,0,0,26,16.38l1.12-5.25.11.56,1.24,6.16A7.73,7.73,0,0,0,27.21,17m15.61,1.41a4.07,4.07,0,0,1-.48.33,6.32,6.32,0,0,1-2.5.83l.1-9.85,2.4.25.87.08a8.17,8.17,0,0,1,1.63,4.2,4.8,4.8,0,0,1-2,4.16m24-.65-.58,2.43L64.82,9.69l2-.23c.69-.08,1.37-.17,2-.27ZM85,16.94a8,8,0,0,0-1.24-.47c.45-1.84.87-3.78,1.24-5.84l0-.19,1.21,7.29A5.89,5.89,0,0,0,85,16.94"/><path class="cls-1" d="M11.34,20l.06,0,.2.17.21-.32a3.78,3.78,0,0,1,.22-.33l.33-.51.4-.5.44-.48.46-.45.49-.41h0c-1-.81-2-1.59-2.82-2.35C8.72,12.5,7.08,10.29,7.13,8S9.4,4.64,11.34,4.32a9.16,9.16,0,0,1,1.21-.12A3.65,3.65,0,0,1,16,7.5c0,1.32-.77,2.5-.75,4.09a5.07,5.07,0,0,0,1.13,2.75c.22-1.25,1-2.94,3.51-6,0-2.43-.07-4.85-.1-7.28l-1.34,2.2c-.47.77-.9.72-2,0a12.77,12.77,0,0,0-5.08-2,9.92,9.92,0,0,0-1.23-.07A7.44,7.44,0,0,0,2.82,8.56c.05,3.8,3.25,7.54,8.52,11.46"/><path class="cls-1" d="M92.63,5.09l0-1.6h.7l0,0L94.4,5.07h.69L93.92,3.43a1.28,1.28,0,0,0,.75-.31.91.91,0,0,0,.27-.72.92.92,0,0,0-.36-.8,1.77,1.77,0,0,0-1.08-.24h-.17L92,1.38,92,5.1Zm.7-3.25h.08a1.36,1.36,0,0,1,.65.11.41.41,0,0,1,.25.42.58.58,0,0,1-.17.47,1.38,1.38,0,0,1-.8.16H92.6l0-1.16Z"/><path class="cls-1" d="M90.87,5.57a3.67,3.67,0,0,0,2.46.89h.06a3.59,3.59,0,0,0,2.49-1,3,3,0,0,0,1-2.32A3,3,0,0,0,95.8.89,3.64,3.64,0,0,0,93.33,0h0A3.59,3.59,0,0,0,90.8,1a2.92,2.92,0,0,0-1,2.31,3,3,0,0,0,1.08,2.3m.42-4.23a2.89,2.89,0,0,1,2-.8h0a2.88,2.88,0,0,1,2,.74,2.57,2.57,0,0,1,.85,1.9,2.56,2.56,0,0,1-.79,1.94,2.8,2.8,0,0,1-2,.8h-.06a2.82,2.82,0,0,1-2-.75,2.5,2.5,0,0,1-.86-1.91,2.52,2.52,0,0,1,.8-1.92"/></g></g></svg>