<svg xmlns="http://www.w3.org/2000/svg" viewBox="0 0 94 42.98"><defs><style>.cls-1{fill:#b5b5b5;}</style></defs><title>Asset 71</title><g id="Layer_2" data-name="Layer 2"><g id="Layer_1-2" data-name="Layer 1"><path class="cls-1" d="M57.8,24.65a1.27,1.27,0,0,1,.39,0s.11.11.07.15a4,4,0,0,0-1.42,2c0,.08-.19.12-.19,0a.38.38,0,0,0-.23-.34v-.93a3.19,3.19,0,0,1,1.38-.88ZM56.42,22.1v-.88a.88.88,0,0,0,.46.38v.24c0,.11-.27.11-.35.19s-.08,0-.11.07Zm1.88.5c.7,0-.34.77-.42.85a2.7,2.7,0,0,1-.35.7.21.21,0,0,1-.19,0,5.42,5.42,0,0,0-.27-.54c0-.08-.08-.16,0-.2a2,2,0,0,1,1.27-.81ZM60.65,9c1-.08,1.35,1.16,1.2,2.12a1.41,1.41,0,0,1-.24,0c0-.2-.07-.5-.53-.39a5.28,5.28,0,0,0-1.74,2.54c-1,2.28-1.73,5.24-1.38,6.55l-.12.12C56,19.45,58.73,9.17,60.65,9ZM56.42,26.46a.51.51,0,0,1-.35-.24c-.19-.26-.12-.23.23-.57l.12-.12v.93Zm0-5.24a.12.12,0,0,0,0-.08.7.7,0,0,0-.5-.23c-.93.27-.66,2.16-.69,2.81h0a5.62,5.62,0,0,1-.07.85c-.16.5-.81.77-1.16,1.08a1.93,1.93,0,0,0-.27.31v2.27a3.54,3.54,0,0,1,1-1.62,4.72,4.72,0,0,0,1-2.16c.16-.69.08-1.85.74-2.35v-.88Zm-2.7-4.74V14.71a5.11,5.11,0,0,0,.12-1.54c0-.08.15-.15.15-.19s.15.11.19.19A13.22,13.22,0,0,1,53.72,16.48Zm0-1.77v1.77A17.64,17.64,0,0,1,51.8,21c-.39.61-.85,1.89-1.47,2.27a2.78,2.78,0,0,1-.46.27,5.23,5.23,0,0,1-.77.15v-1h.12c.8-.15,1.69-1.35,2.11-2.08a20.09,20.09,0,0,0,2.39-5.93Zm0,11.25v2.27h-.38A2.92,2.92,0,0,1,53.72,26ZM49.1,20.83a1.05,1.05,0,0,0,.62,0,1.71,1.71,0,0,0,.65-1c0-.11,0-.15-.15-.07A3.09,3.09,0,0,1,49.1,20v.81Zm0-1.77c.19.12.31.31.5.27a.66.66,0,0,1,.38-.19,2.81,2.81,0,0,1,.66.12c.11,0-.12-.62-.15-.7s-.12-.19-.23-.15-.28.35-.62.3-.35-.23-.54-.34v.69Zm0-1.69a.71.71,0,0,1,.5-.08c.23,0,.46.39.66.31a4.32,4.32,0,0,0,1-.77,2.27,2.27,0,0,0,.08-.54,8.89,8.89,0,0,0,.19-1.93A12.88,12.88,0,0,1,52,12.29l.15,0c.27,0-.27,1.11.73.46.66-.5.12-.73-.31-1-.76-.5.39-1,.78-1.07.07,0,.19,0,.23,0,.27-.12-.08-.23-.2-.23a5,5,0,0,0-1,.19,2.89,2.89,0,0,0-1.19.73,1.31,1.31,0,0,0-.16.42A8.59,8.59,0,0,0,51,15.21c.07.73.27,1.35-.12,1.66-.15.15-.65.23-1.39,0a1.51,1.51,0,0,0-.34,0v.43Zm0-15V1.19c.12,0,.19,0,.31,0A1.62,1.62,0,0,1,50.56,3c0-.15-.11,1.54-.69.31a3.39,3.39,0,0,0-.62-.92s-.07,0-.15-.08Zm2.81-.23c.12.08.23,0,.31.11s0,.2.08.31c.26.46,1.15.43,1.34,1,0,.08,0,.19,0,.27-.15.08-.11.08-.07.15-.2.27-.43.47-.77.39s-.39-.77-.54-1.15C52,2.66,51.49,2.77,51.91,2.12ZM49.1,1.19V2.35c-.27-.19-.69-.43-1.12-.69V.85a.3.3,0,0,0,.2.07l.15.16a4.08,4.08,0,0,0,.77.11Zm0,15.75v.43c-.31.11-.58.27-.89.15,0,0-.15-.08-.23-.11V17.1a1.08,1.08,0,0,0,.62,0,3.17,3.17,0,0,0,.5-.16Zm0,1.43v.69a.75.75,0,0,0-.77,0,1.56,1.56,0,0,1-.35.2v-.39a3.68,3.68,0,0,1,.7-.54.52.52,0,0,1,.42.08Zm0,1.65v.81A2.36,2.36,0,0,1,48,20.14v-.35c.08,0,.16.08.2.08a1.85,1.85,0,0,0,.92.15Zm0,2.7v1A6.16,6.16,0,0,1,48,23.57V22.8h.27a2.06,2.06,0,0,0,.85-.08ZM48,11.67v-.23l.23.11a.08.08,0,0,1-.11.12Zm0-1.62V9.71a.8.8,0,0,1,.27.11.22.22,0,0,1-.07.23Zm0-9.2v.81A4.49,4.49,0,0,1,47.1,1V.08c.07,0,.11,0,.19.07s.31.51.46.58L48,.85Zm0,8.86v.34a6.46,6.46,0,0,1-.88,0V9.67c.23,0,.42,0,.61,0Zm0,1.73v.23a6.44,6.44,0,0,0-.88,0v-.46a2.93,2.93,0,0,1,.88.23Zm0,5.66v.31a.16.16,0,0,1-.11,0s-.08-.16-.12-.19,0-.12,0-.12a.31.31,0,0,1,.19,0Zm0,1.73v.39a2.6,2.6,0,0,1-.42.19.88.88,0,0,1-.46,0V19.1h0a3.43,3.43,0,0,0,.74-.19s0,0,.11-.08Zm0,1v.35a.47.47,0,0,1-.15-.19c0-.16,0-.19.15-.16Zm0,3v.77l0,0a6,6,0,0,1-.85-.12v-.73a2.46,2.46,0,0,0,.5.08c.07,0,.23,0,.38,0ZM47.1,12.32V12a.2.2,0,0,1,0,.28,0,0,0,0,1,0,0Zm0-7.93V3.08C47.44,3.89,47.71,4.78,47.1,4.39Zm0-4.31V1c-.27-.27-.46-.58-.35-.85,0,0,.15-.11.15-.15s.16,0,.2.08Zm0,3a3.79,3.79,0,0,0-.58-1s-.31-.15-.35-.15c-.69-.12-.81.42-1.42.23S43.67,1,43,.73c-.31-.61-1.58.39-2.24-.23,0,0,0-.12-.07-.15l-.2-.08c0,.08-.07,0-.15.08a.84.84,0,0,0,.15.81c.2,0,.08.07.23.19s.27,0,.39.11c.23.27,1,.23,1.42.35,2,.39,1.77,1.12,3.7,1.93.77.26.69.5.89.65h0V3.08Zm0,6.59v.38c-.12,0-.23,0-.35.08a5.7,5.7,0,0,0-1.19.23,23.6,23.6,0,0,1-2.28,1s-.07,0-.11-.15.08-.16.11-.43-.34-.53.31-.77a11.47,11.47,0,0,1,2.35-.34,10.86,10.86,0,0,1,1.16,0Zm0,1.54a5.77,5.77,0,0,0-.81,0,5.3,5.3,0,0,0-1.62.31c-.08.07-.23.15-.19.3s.15.16.15.2-.11.34,0,.42.08,0,.16,0c.34-.27.92-.58,1.3-.35.08,0,.12.2,0,.23s-.42.23-.23.43c.35.34.93-.16,1.2-.43V12s0,0,0,0-.16-.08-.16-.12-.07-.15,0-.19h.2v-.46Zm0,7.89v.31s-.08,0-.16,0-.11-.23.16-.27Zm0,3.58v.73h0a10.58,10.58,0,0,1-5-2.65c.08,0,.16,0,.23,0s.19.15.27.19a14.49,14.49,0,0,0,4.51,1.73Zm-9.17-.42v-.73h0A1.09,1.09,0,0,0,38.09,20c-.08-.08-.12-.12-.16-.12V18.6a3.89,3.89,0,0,1,.54.27,3,3,0,0,1,.93,1.23c.15,1.12-.81,1.77-1.47,2.16Zm0-7.9V11.94S38,12,38,12s0,.16,0,.2.3,0,.42.15.12.31.23.43.19.07.23.19c0,.31-.23,1.08-.19,1.54L39,17.06c-.08-.12-.27-.27-.31-.42a2,2,0,0,1-.23-.51c-.15-.34-.23-.8-.38-1.19L38,14.63C38,14.56,38,14.44,37.93,14.36Zm0-2.42v2.42A4,4,0,0,1,37.7,12c0-.07.15-.07.23-.07Zm0,6.66v1.23a2.8,2.8,0,0,0-.31-.11,12.87,12.87,0,0,0-.11,2.08,1.78,1.78,0,0,0,.42-.27v.73a.14.14,0,0,1-.08,0c-.23.15-.5.27-.53.61A25.15,25.15,0,0,1,36.54,27a.2.2,0,0,1-.15,0c-.27-.08-.35-3.2-.35-3.55,0,0-.07,0-.11,0v-.92s0,0,0-.08a3.45,3.45,0,0,0,0-.85c.07-.88.15-1.46.15-2.31,0,0-.15-.15-.19-.15h0V17.75h.38c.08-.38,0-.34.12-.73s.23-.81.35-1.12a.83.83,0,0,1,.26-.34,1.27,1.27,0,0,1,.43.57,15.19,15.19,0,0,1,.23,1.93c0,.08-.08.15-.08.19a1,1,0,0,0,.31.35Zm-2-2.93.15-.15a3.82,3.82,0,0,1,.31-.42,8.06,8.06,0,0,0,.5-1c.08-.15.2-.84,0-.84-.12.23-.23.26-.31.5,0,0-.11.07-.11.11a2.55,2.55,0,0,1-.43.54l-.15.12Zm0-1.11v1.11a3.45,3.45,0,0,1-.92.7c-.12,0-.16-.12-.16-.2s.16-.27.23-.38c.08-.27-.07-.5.08-.73s.5-.35.77-.5Zm0,3.19v1.43c-.19-.08-.16.11-.42,0-.08,0,0,0-.08,0a1,1,0,0,1-.27-.16A1.16,1.16,0,0,1,34.27,18c.54-.39,1-.24,1.66-.2Zm0,4.82v.92a1.53,1.53,0,0,0-.85,1.23c0,.66.43,1.08.12,1.77-.08.12-.12.31-.23.35s-.2,0-.23-.08,0-.3,0-.34c0-.85-.81-.93-.88-1.62a.12.12,0,0,1,0-.08v-.27c.08-.81,1-1.27,1.66-1.69C35.62,22.68,35.81,22.64,35.93,22.57Z"/><path class="cls-1" d="M38.82,5s.11,0,.15,0,.19.34.27.5a2.35,2.35,0,0,0,1.16,1,4.62,4.62,0,0,0,2.46-.23,23.66,23.66,0,0,1,4.89-1,1.61,1.61,0,0,1,.46,0,17.68,17.68,0,0,1,3.54.08l.81.15a7.61,7.61,0,0,1,1.24.43,1.1,1.1,0,0,1,.61,1c0,.27-.15.34-.34.57a2.11,2.11,0,0,0-.27.77,4.65,4.65,0,0,1-.08.74,1.24,1.24,0,0,1-.23,0c0-1.08-.23-1-1.12-1.31-1.27-.66-5.31-.73-7-.66l-1.8.12a8.45,8.45,0,0,0-1,0c-1.08.15-2.81.73-3.77,0V5Zm0,4.31A.71.71,0,0,0,39,9.17c.35-.54.15-.66-.15-.85Zm0-2s0,0-.08,0a1,1,0,0,1-.23-1A3.69,3.69,0,0,0,38.7,6c0-.19-.11-.39,0-.62,0-.07.12-.23.16-.31V7.36Zm0,1a1.14,1.14,0,0,1-.39-.23c-1-.7-2.35-2.28-4.35-2a14,14,0,0,0-2.89,1c-1,.38-2.54.69-3.15-.47-.2-.34,0-.38-.51-.38a2.26,2.26,0,0,1-.19.73c-.19,0-.54.46-.54.5a.94.94,0,0,0,.47,1c.19.11.19.15.38.19,2.19.77,4-2,6.58-1.27a23.73,23.73,0,0,1,2.31,1.16,3.65,3.65,0,0,0,1.16.11c0,.85-4,.08-4.7,0a6.4,6.4,0,0,0-2.81.69,1.36,1.36,0,0,0-.42.5c-.12.39.11.77,0,1.16,0,.15-.27.31-.39.42s0,.31.08.27a.32.32,0,0,0,.27,0c.31-.08.42-.38.61-.58a1.86,1.86,0,0,1,1.2-.69c.5-.19,3.85.77,5.31-.08.47-.26,1-.57,1.43-.84.19-.12.38-.19.54-.31Z"/><path class="cls-1" d="M81.37,29.5,86.72,42l0-12.52h2.35V41H94v1.66H84.61L83,39.13h-2.7V37.55h2.2l-2.2-4.89V29.5Zm-1.08,9.63H77.56L76,42.63H71.59v-13h2.5V42.25L79.68,29.5h.61v3.16l-.11-.27-2,5.16h2.15v1.58ZM19.64,42.67v-.93l.54.89-.54,0Zm0-2.2c1,1.89,3.31,2.47,5.12,2.51a6.56,6.56,0,0,0,5-2.08c1.12-1.66.77-7.13.77-9.9,3.77-.27,7.59.35,7.12,5.39-.46,4.62-3.54,5.16-7.66,5a2.93,2.93,0,0,1-1.39,1.23c9.9.77,10.52-2.35,11.56-4.81v4.81l10.28.08V33.2l7.89,9.43h1.93V31h4.35V42.63h2.54V31h4V29.61H58.3V39l-7.89-9.4H48.64V41.24H42.25V36.62h5.39V35.24H42.25l0-4.24h5.63V29.61h-8V34h0a12.37,12.37,0,0,0-1.19-2.15c-2-2.62-6-2.12-10.51-2.12v6.51c0,2.19-.19,5.23-3.43,5.27-2.81,0-3.39-1.69-3.47-4.58,0-1.93-.07-5.08-.07-7.2H19.64Zm0-10.74V40.47a5,5,0,0,1-.58-2.5V29.73Zm0,12-3-4.81a3.8,3.8,0,0,0,1.92-4.58c-.54-2-1.81-2.47-4.27-2.51h-.2V31h1c1.46.58,1.65,3.85.38,4.62a2.71,2.71,0,0,1-1.35.35v1.54h.27l3.2,5.27,2.08-.11Zm-5.55-11.9V31H11.94v4.93c.5,0,1.38.08,2.15,0v1.54H11.94v5.27H9.4l0-12.94ZM4.5,37.78a7.31,7.31,0,0,0,1.66-.16,7.69,7.69,0,0,0,1.23-.5c2.12-1.34,2.12-5.43,0-6.78a6.44,6.44,0,0,0-2.89-.57v1.35h.78c1.73.27,1.88,3,1.11,4.39a2.33,2.33,0,0,1-1.89.92Zm0-8v1.35H2.15v5.27a14.72,14.72,0,0,0,2.35,0v1.35c-.46,0-.92,0-1.34,0h-1v5H0V29.84C1.27,29.84,3,29.73,4.5,29.77Z"/></g></g></svg>