<svg xmlns="http://www.w3.org/2000/svg" viewBox="0 0 50.18 50.18"><defs><style>.cls-1{fill:#b5b5b5;}</style></defs><title>Asset 70</title><g id="Layer_2" data-name="Layer 2"><g id="Layer_1-2" data-name="Layer 1"><path class="cls-1" d="M50.18,25.09c0,.18,0,.36,0,.53v.24c0,.14,0,.27,0,.4s0,.18,0,.26v.11A25.09,25.09,0,0,0,25.66,3.11H24.52a22,22,0,0,0,0,44,25.09,25.09,0,0,1-24.3-22c-.06.51-.11,1-.14,1.54,0-.51,0-1,0-1.55a25.09,25.09,0,0,1,50.18,0Z"/><path class="cls-1" d="M50.13,26.63a25.09,25.09,0,0,1-25,23.55,22.44,22.44,0,0,1-2.47-.13l-.43,0-.26,0-.14,0-.52-.07-.6-.1-.1,0-.46-.09-.53-.11-.37-.09-.31-.07-.23-.07-.3-.08-.38-.1-.18-.06L17.46,49l-.33-.11-.14,0-.44-.16c-.14,0-.28-.1-.41-.15l-.38-.15-.24-.09-.4-.17-.53-.24h0l-.51-.24-.51-.26c-.37-.19-.74-.4-1.1-.61L12,46.5c-.33-.2-.66-.41-1-.63-.62-.42-1.23-.88-1.81-1.36l-.09-.06-.84-.73c-.14-.12-.28-.26-.42-.39s-.56-.53-.82-.81l-.4-.42-.39-.44-.38-.43-.36-.45-.33-.41-.07-.09-.29-.39,0-.06-.32-.45c-.11-.15-.22-.32-.32-.48s-.21-.32-.31-.48l0,0-.28-.47,0,0-.26-.46v0c-.1-.16-.19-.33-.28-.5l-.27-.52a25.88,25.88,0,0,1-1.36-3.25h0a25.08,25.08,0,0,1-1-4.06c-.07-.4-.12-.8-.17-1.21s-.07-.81-.1-1.22.08-1,.14-1.54a25.09,25.09,0,0,0,24.3,22h.6a22,22,0,0,0,.57-44A25.09,25.09,0,0,1,50.13,26.63Z"/><polygon class="cls-1" points="27.23 21.6 29.1 21.6 25.71 25.96 25.71 28.3 24.11 28.3 24.11 25.96 20.72 21.6 22.6 21.6 24.91 24.7 27.23 21.6"/><polygon class="cls-1" points="36.22 21.6 36.22 22.96 31.73 22.96 31.73 24.25 36.04 24.25 36.04 25.56 31.73 25.56 31.73 26.93 36.22 26.93 36.22 28.3 30.17 28.3 30.17 21.6 36.22 21.6"/><polygon class="cls-1" points="27.93 29.98 27.93 31.35 23.43 31.35 23.43 32.63 27.75 32.63 27.75 33.94 23.43 33.94 23.43 35.31 27.93 35.31 27.93 36.68 21.88 36.68 21.88 29.98 27.93 29.98"/><path class="cls-1" d="M41.44,25.75H40.17V28.3H38.61V21.6h4.06a2.07,2.07,0,0,1,.58,4.06l2,2.64H43.35ZM42.52,23H40.17v1.45h2.35a.73.73,0,0,0,0-1.45"/><path class="cls-1" d="M26.93,40.7A.75.75,0,0,0,26.2,40H23.45v1.47H26.2a.74.74,0,0,0,.73-.73m-5.05,4.6V38.61h4.48a2.07,2.07,0,0,1,.76,4l2,2.7H27.27l-1.92-2.55h-1.9V45.3Z"/><path class="cls-1" d="M21.19,28.3H19.51L19,27.14H15.17l-.56,1.16H12.94l3.35-6.7h1.55Zm-4.12-5.11-1.33,2.64h2.63Z"/><path class="cls-1" d="M29,19.77H27.36l-.56-1.16H23l-.55,1.16H20.79l3.35-6.7h1.55Zm-4.13-5.11-1.33,2.65h2.63Z"/><path class="cls-1" d="M6.51,24.26H9.35a.66.66,0,0,0,.64-.65A.65.65,0,0,0,9.35,23H6.51Zm0,2.7h3a.76.76,0,0,0,.76-.73.8.8,0,0,0-.76-.76h-3ZM11,24.81a1.94,1.94,0,0,1,.71,1.46,2.06,2.06,0,0,1-2.16,2H5V21.6H9.54a2,2,0,0,1,2,1.95A2,2,0,0,1,11,24.81"/><path class="cls-1" d="M23.44,7.54h2.82a.66.66,0,0,0,0-1.31H23.44Zm0,2.7h3a.77.77,0,0,0,.76-.74.81.81,0,0,0-.76-.76h-3ZM28,8.08a2,2,0,0,1,.71,1.46,2.05,2.05,0,0,1-2.16,2H21.88V4.87h4.58A2,2,0,0,1,28,8.08"/></g></g></svg>