<svg xmlns="http://www.w3.org/2000/svg" viewBox="0 0 100.15 23.56"><defs><style>.cls-1{fill:#b5b5b5;}</style></defs><title>Asset 63</title><g id="Layer_2" data-name="Layer 2"><g id="Layer_1-2" data-name="Layer 1"><path class="cls-1" d="M19.49,21.67c-.08-.19-7.73-19.11-8.22-20.86a.56.56,0,0,0-.58-.47H8.85a.55.55,0,0,0-.58.47C7.78,2.56.12,21.48,0,21.67v0a.5.5,0,0,0,.06.48.51.51,0,0,0,.42.19H2.13a.57.57,0,0,0,.6-.39L4.79,16.9h10l2,5.07a.58.58,0,0,0,.6.39H19a.51.51,0,0,0,.42-.19.5.5,0,0,0,.06-.48Zm-5.71-7.22h-8c.68-1.76,3.45-9,4-10.52C10.29,5.42,13.1,12.69,13.78,14.45ZM61.18.9V13.66c0,5.65-3.08,9-8.23,9s-8.23-3.37-8.23-9V.9a.52.52,0,0,1,.55-.56h1.5a.52.52,0,0,1,.55.56V13.66c0,4.15,2,6.53,5.63,6.53s5.62-2.38,5.62-6.53V.9a.52.52,0,0,1,.56-.56h1.5A.52.52,0,0,1,61.18.9ZM81.71.9V13.66c0,5.65-3.07,9-8.23,9s-8.23-3.37-8.23-9V.9A.52.52,0,0,1,65.8.34h1.5a.52.52,0,0,1,.56.56V13.66c0,4.15,2,6.53,5.62,6.53s5.63-2.38,5.63-6.53V.9a.52.52,0,0,1,.55-.56h1.5A.52.52,0,0,1,81.71.9Zm18.44,15.63c0,3.74-3.07,6.15-7.8,6.15a16.4,16.4,0,0,1-6-1.08l-1.25-.47a.52.52,0,0,1-.32-.7l.47-1.27a.52.52,0,0,1,.49-.4.54.54,0,0,1,.21,0l1.24.46a14.27,14.27,0,0,0,5.12.92c3.54,0,5.12-1.83,5.12-3.66,0-1.41-1-2.5-3.19-3.33l-4.34-1.62c-3.38-1.26-4.83-3-4.83-5.84,0-3.54,2.71-5.74,7-5.74A15.73,15.73,0,0,1,97,.79l1.56.5a.54.54,0,0,1,.36.73l-.44,1.29a.52.52,0,0,1-.69.31l-1.49-.46a12.83,12.83,0,0,0-4.1-.65c-2.68,0-4.41,1.27-4.41,3.23,0,1.09.37,2.47,3.2,3.51l4.3,1.63C98.68,12.15,100.15,13.85,100.15,16.53Z"/><path class="cls-1" d="M34.69,18.71a3,3,0,0,1,0-.43,8,8,0,1,1,2.41-2.12h.12a2.55,2.55,0,0,1,2.53,2.27,11.4,11.4,0,1,0-3.15,2.78A2.56,2.56,0,0,1,34.69,18.71Z"/><path class="cls-1" d="M39.28,19.51a1.44,1.44,0,1,1-1.44,1.43,1.43,1.43,0,0,1,1.44-1.43m0-1.19a2.62,2.62,0,1,0,2.62,2.62,2.62,2.62,0,0,0-2.62-2.62Z"/></g></g></svg>