<svg xmlns="http://www.w3.org/2000/svg" viewBox="0 0 87.52 30.78"><defs><style>.cls-1{fill:#b5b5b5;}</style></defs><title>Asset 77</title><g id="Layer_2" data-name="Layer 2"><g id="Layer_1-2" data-name="Layer 1"><path class="cls-1" d="M39.66,2.71c-6.06,0-11,4.52-11,10.07s4.92,10.08,11,10.08,11-4.52,11-10.08-4.92-10.07-11-10.07m0,16.5c-3.17,0-5.76-2.88-5.76-6.43s2.59-6.42,5.76-6.42,5.75,2.88,5.75,6.42-2.58,6.43-5.75,6.43"/><path class="cls-1" d="M87.52,16.84A5.4,5.4,0,0,0,87,14.73,4.61,4.61,0,0,0,85.48,13a5.47,5.47,0,0,0-1.18-.62A4.54,4.54,0,0,0,86,11a4.87,4.87,0,0,0,.84-3.12,4.6,4.6,0,0,0-1.53-3.41,6.2,6.2,0,0,0-4.2-1.27H70.3V22.37h9.48A12.65,12.65,0,0,0,84,21.76a5.33,5.33,0,0,0,2.68-1.92,4.73,4.73,0,0,0,.8-3m-9-10.67c2.37,0,3.18.49,3.18,2.28,0,1.52-.93,2.15-3.1,2.15H77.28L76,14.18h2.78c2.38,0,3.63.79,3.63,2.61S81,19.4,78.64,19.4H75.46V6.17Z"/><path class="cls-1" d="M68.28,17.68a7.2,7.2,0,0,1-4.51,1.55,6.7,6.7,0,0,1-6.93-6.45,6.7,6.7,0,0,1,6.93-6.45,7.21,7.21,0,0,1,4.51,1.56V4a12.16,12.16,0,0,0-5.46-1.27c-6.19,0-11.2,4.51-11.2,10.07s5,10.08,11.2,10.08a12.16,12.16,0,0,0,5.46-1.27Z"/><path class="cls-1" d="M31.85,28.42c0-.31,0-.64,0-1s0-.58,0-.88,0-.57,0-.95v-.07h-.77v.07c0,.18,0,.43,0,.81s0,.67,0,1.11v.21c0,.18,0,.34,0,.47l-.27-.48L30.41,27,30,26.27l0,0c-.13-.24-.23-.45-.34-.64v0h-1v.07c0,.32,0,.64,0,1v1.84c0,.34,0,.64,0,.92v.07h.79v-.07c0-.35,0-.63,0-.86s0-.63,0-1v-.33c0-.14,0-.26,0-.37l1.49,2.63h.94v-.07c0-.29,0-.61,0-1"/><path class="cls-1" d="M33.84,26.45a1.74,1.74,0,0,0-.61.1,1.37,1.37,0,0,0-.51.32,1.35,1.35,0,0,0-.34.54,2.14,2.14,0,0,0-.1.78,1.57,1.57,0,0,0,.18.73,1,1,0,0,0,.42.43,1.13,1.13,0,0,0,.53.14,1,1,0,0,0,.49-.13.88.88,0,0,0,.25-.22v0a2.31,2.31,0,0,1,0,.58.46.46,0,0,1-.17.28.64.64,0,0,1-.36.09,2.3,2.3,0,0,1-.9-.22l-.1,0,.08.76,0,0a4,4,0,0,0,.51.11,3.73,3.73,0,0,0,.57,0,1.3,1.3,0,0,0,.86-.26,1.11,1.11,0,0,0,.28-.91c0-1.07,0-2.07,0-2.95v-.05h-.06a4.79,4.79,0,0,0-1-.15m.28,1.69a.87.87,0,0,1-.18.49.43.43,0,0,1-.34.18.47.47,0,0,1-.37-.16.73.73,0,0,1-.18-.52,1.28,1.28,0,0,1,.1-.59.73.73,0,0,1,.29-.31.86.86,0,0,1,.39-.09,1.24,1.24,0,0,1,.31,0c0,.48,0,.81,0,1"/><polygon class="cls-1" points="36.44 25.93 36.63 26.17 37.16 26.17 36.86 25.56 35.98 25.56 35.71 26.17 36.25 26.17 36.44 25.93"/><path class="cls-1" d="M37.61,28.72v-.83c0-.31,0-.54,0-.64h0c0-.53-.37-.8-1-.8a3.62,3.62,0,0,0-1,.17l0,0-.05.68.1-.05a1.4,1.4,0,0,1,.41-.16,2,2,0,0,1,.46-.07c.33,0,.38.13.38.24s0,.18-.1.2l-.58.2a1.91,1.91,0,0,0-.69.35.78.78,0,0,0-.22.63.88.88,0,0,0,.26.62.92.92,0,0,0,.69.24,3.52,3.52,0,0,0,.43-.05h0l.13-.69-.12.08a.91.91,0,0,1-.35.08c-.28,0-.32-.17-.33-.27a.32.32,0,0,1,.12-.27,2.52,2.52,0,0,1,.45-.2,1.42,1.42,0,0,0,.3-.14c0,.59,0,1,0,1.32v.07h.78v-.07c0-.21,0-.43,0-.66"/><path class="cls-1" d="M40.65,29V27.76c0-.11,0-.24,0-.37a1.12,1.12,0,0,0-.11-.47.72.72,0,0,0-.32-.35,1.08,1.08,0,0,0-.54-.12,1,1,0,0,0-.82.37v-.3h-.79v.07c0,.9,0,1.84,0,2.79v.07h.82v-.07a2.18,2.18,0,0,1,0-.27V29c0-.19,0-.32,0-.43v-.36c0-.11,0-.21,0-.29.06-.45.24-.67.55-.67s.43.17.45.53a13.27,13.27,0,0,1,0,1.63v.07h.84v-.07c0-.16,0-.3,0-.41"/><path class="cls-1" d="M45.7,25.63v-.07h-.87v.07c0,.3,0,.78,0,1.42H43.43V25.56h-.86v.07c0,.59,0,1.22,0,1.85s0,1.28,0,1.9v.07h.87v-.12c0-.09,0-.18,0-.29a1.48,1.48,0,0,0,0-.21v-.35c0-.15,0-.28,0-.38v-.33h1.43c0,.28,0,.56,0,.82s0,.55,0,.79v.07h.88v-.07c-.05-1-.06-2.27,0-3.75"/><polygon class="cls-1" points="47.74 26.24 47.44 25.56 46.54 25.56 47.11 26.24 47.74 26.24"/><path class="cls-1" d="M48.44,28.72V27.47a2,2,0,0,0,0-.22h0c0-.53-.37-.8-1-.8a3.56,3.56,0,0,0-1,.17l0,0-.06.68.11-.05a1.59,1.59,0,0,1,.41-.16,1.9,1.9,0,0,1,.46-.07c.33,0,.37.13.38.24s0,.18-.1.2l-.59.2a1.94,1.94,0,0,0-.68.35.78.78,0,0,0-.22.63.9.9,0,0,0,.25.62.93.93,0,0,0,.69.24,3.52,3.52,0,0,0,.43-.05h.05l.13-.69-.13.08a.79.79,0,0,1-.34.08c-.29,0-.32-.17-.33-.27a.29.29,0,0,1,.12-.27,2.52,2.52,0,0,1,.45-.2,1.42,1.42,0,0,0,.3-.14c0,.62,0,1.05,0,1.32v.07h.79v-.07c0-.21,0-.43,0-.66"/><path class="cls-1" d="M51.48,29c0-.08,0-.26,0-.58v-.62c0-.12,0-.25,0-.37a1.12,1.12,0,0,0-.1-.47.7.7,0,0,0-.32-.34,1,1,0,0,0-.55-.13,1,1,0,0,0-.81.37v-.3h-.79v.07c0,.87,0,1.81,0,2.79v.07h.82v-.2c0-.08,0-.17,0-.28v-.79c0-.11,0-.21,0-.29.06-.45.24-.67.55-.67s.44.17.45.53a13.27,13.27,0,0,1,0,1.63v.07h.84v-.07c0-.16,0-.3,0-.42"/><path class="cls-1" d="M53.36,26.45a1.74,1.74,0,0,0-.61.1,1.37,1.37,0,0,0-.51.32,1.39,1.39,0,0,0-.34.54,2.08,2.08,0,0,0-.1.78,1.57,1.57,0,0,0,.18.73,1,1,0,0,0,.42.43,1.14,1.14,0,0,0,.54.14,1,1,0,0,0,.48-.13,1.07,1.07,0,0,0,.25-.22v0a2,2,0,0,1-.05.58.46.46,0,0,1-.17.28.58.58,0,0,1-.35.09,2.35,2.35,0,0,1-.91-.22l-.09,0,.07.76,0,0a4,4,0,0,0,.51.11,3.82,3.82,0,0,0,.57,0,1.3,1.3,0,0,0,.86-.26,1.15,1.15,0,0,0,.29-.91c0-1.08,0-2.07,0-2.95v-.05h0a4.86,4.86,0,0,0-1-.15m.29,1.69a1,1,0,0,1-.19.49.41.41,0,0,1-.34.18.49.49,0,0,1-.37-.16.73.73,0,0,1-.18-.52,1.42,1.42,0,0,1,.1-.59.79.79,0,0,1,.29-.31.86.86,0,0,1,.39-.09,1.19,1.19,0,0,1,.31,0c0,.47,0,.81,0,1"/><path class="cls-1" d="M61.75,28.81c0-.22,0-.46,0-.75v-.65h0a1,1,0,0,0-.29-.72,1,1,0,0,0-.69-.23,1.14,1.14,0,0,0-.59.14.91.91,0,0,0-.24.24c0-.42,0-.82,0-1.2v-.07h-.8v.07c0,1.3,0,2.57,0,3.75v.07H60v-.07c0-.51,0-.95,0-1.3a1.24,1.24,0,0,1,.17-.66.46.46,0,0,1,.39-.2.43.43,0,0,1,.33.12.66.66,0,0,1,.12.42,11.34,11.34,0,0,1,0,1.62v.07h.83v-.07c0-.19,0-.38,0-.57"/><path class="cls-1" d="M70.63,29v-.59c0-.32,0-.5,0-.62s0-.27,0-.37a1.3,1.3,0,0,0-.1-.47.83.83,0,0,0-.32-.35,1.15,1.15,0,0,0-.55-.12,1,1,0,0,0-.82.37v-.3H68v.07c0,.89,0,1.83,0,2.79v.07h.81v-.23a1.77,1.77,0,0,1,0-.24c0-.17,0-.32,0-.44s0-.26,0-.36a2.64,2.64,0,0,1,0-.29c.06-.45.24-.67.55-.67s.44.17.45.53a13.27,13.27,0,0,1,0,1.63v.07h.83v-.07c0-.15,0-.29,0-.41"/><path class="cls-1" d="M72.51,26.45a1.74,1.74,0,0,0-.61.1,1.37,1.37,0,0,0-.51.32,1.39,1.39,0,0,0-.34.54,2.33,2.33,0,0,0-.11.78,1.7,1.7,0,0,0,.19.73,1,1,0,0,0,.42.43,1.1,1.1,0,0,0,.53.14,1,1,0,0,0,.49-.13,1.31,1.31,0,0,0,.25-.22v0a2.35,2.35,0,0,1,0,.58.46.46,0,0,1-.17.28.64.64,0,0,1-.36.09,2.26,2.26,0,0,1-.9-.22l-.1,0,.08.76,0,0a4,4,0,0,0,.51.11,3.73,3.73,0,0,0,.57,0,1.3,1.3,0,0,0,.86-.26,1.11,1.11,0,0,0,.28-.91c0-1.11,0-2.07,0-2.95v-.05h-.06a4.7,4.7,0,0,0-1-.15m.28,1.69a.84.84,0,0,1-.18.49.43.43,0,0,1-.34.18.51.51,0,0,1-.38-.16.78.78,0,0,1-.17-.52,1.16,1.16,0,0,1,.1-.59.77.77,0,0,1,.28-.31.93.93,0,0,1,.4-.09,1.24,1.24,0,0,1,.31,0,8,8,0,0,1,0,1"/><path class="cls-1" d="M78.26,26a1.51,1.51,0,0,0-1.11-.44h-1.6v.07c0,.59,0,1.08,0,1.51h-.42l0,.68h.45c0,.57,0,1.09,0,1.56v.07H77a1.75,1.75,0,0,0,1-.27,1.53,1.53,0,0,0,.58-.76,3,3,0,0,0,.15-1.08A2,2,0,0,0,78.26,26m-.41,2a1,1,0,0,1-.35.51,1,1,0,0,1-.67.19h-.44v-.91h.18a3.8,3.8,0,0,1,.53,0h.07v-.7h-.8v-.85h.73a.72.72,0,0,1,.47.15.79.79,0,0,1,.26.38,1.66,1.66,0,0,1,.1.52,2.18,2.18,0,0,1-.08.69"/><path class="cls-1" d="M81.47,27.17a1.22,1.22,0,0,0-.47-.53,1.31,1.31,0,0,0-.72-.19,1.27,1.27,0,0,0-.74.21,1.21,1.21,0,0,0-.46.58,1.94,1.94,0,0,0-.13.82,2.07,2.07,0,0,0,.11.55,1.66,1.66,0,0,0,.26.47,1.38,1.38,0,0,0,.43.32,1.37,1.37,0,0,0,.58.12,1.27,1.27,0,0,0,.78-.23,1.23,1.23,0,0,0,.44-.59,1.78,1.78,0,0,0,.11-.76,2,2,0,0,0-.19-.77m-.73,1.41a.44.44,0,0,1-.41.26.5.5,0,0,1-.42-.21.93.93,0,0,1-.18-.56,1.28,1.28,0,0,1,.14-.71.49.49,0,0,1,.43-.23.46.46,0,0,1,.41.21,1.14,1.14,0,0,1,.16.59,1.22,1.22,0,0,1-.13.65"/><polygon class="cls-1" points="80.23 25.93 80.43 26.17 80.96 26.17 80.66 25.56 79.78 25.56 79.51 26.17 80.05 26.17 80.23 25.93"/><path class="cls-1" d="M84.56,29v-1.2c0-.12,0-.25,0-.37a1.12,1.12,0,0,0-.11-.47.68.68,0,0,0-.31-.34,1,1,0,0,0-.55-.13,1,1,0,0,0-.82.37v-.3H82v.07c0,.89,0,1.83,0,2.79v.07h.82v-.07c0-.1,0-.24,0-.41s0-.3,0-.43,0-.25,0-.36a2.33,2.33,0,0,1,0-.29c.06-.45.24-.67.55-.67s.43.17.45.53a13.27,13.27,0,0,1,0,1.63v.07h.84v-.07c0-.17,0-.3,0-.42"/><path class="cls-1" d="M87.52,26.61h0a4.78,4.78,0,0,0-1-.15,1.68,1.68,0,0,0-.6.1,1.3,1.3,0,0,0-.51.32,1.28,1.28,0,0,0-.34.54,2.14,2.14,0,0,0-.11.78,1.57,1.57,0,0,0,.19.73,1,1,0,0,0,.41.43,1.14,1.14,0,0,0,.54.14,1,1,0,0,0,.49-.13,1.31,1.31,0,0,0,.25-.22v0a2.35,2.35,0,0,1-.05.58.47.47,0,0,1-.18.28.58.58,0,0,1-.35.09,2.3,2.3,0,0,1-.9-.22l-.1,0,.07.76,0,0a4.66,4.66,0,0,0,.52.11,3.64,3.64,0,0,0,.57,0,1.3,1.3,0,0,0,.86-.26,1.15,1.15,0,0,0,.28-.91c0-1.08,0-2.07,0-2.95Zm-.79,1.53a.87.87,0,0,1-.18.49.43.43,0,0,1-.34.18.51.51,0,0,1-.38-.16.78.78,0,0,1-.17-.52,1.16,1.16,0,0,1,.1-.59.71.71,0,0,1,.28-.31.9.9,0,0,1,.4-.09,1.15,1.15,0,0,1,.3,0,8.85,8.85,0,0,1,0,1"/><path class="cls-1" d="M64.63,27.1a.91.91,0,0,0,.54-.44.48.48,0,0,0-.19-.58.52.52,0,0,0-.29-.09.79.79,0,0,0-.39.13l0,0,.11.3.06,0,.15-.05.06,0h0a.17.17,0,0,1,0,.22h0l-.06.07v-.11h-.8v.07c0,.35,0,1.21,0,1.55s-.14.59-.51.59-.43-.17-.45-.52,0-1.38,0-1.62v-.07h-.81v.07c0,.55,0,1,0,1.32s0,.47,0,.67a.89.89,0,0,0,1,.91.92.92,0,0,0,.79-.35l0,.28h.75v-.07c0-.72,0-1.47,0-2.29"/><path class="cls-1" d="M67.37,27a.7.7,0,0,0,.29-.3.49.49,0,0,0-.19-.58.51.51,0,0,0-.3-.1.72.72,0,0,0-.39.14l0,0,.11.29.07,0,.14,0h.07a.21.21,0,0,1,.06.22h0s0,.05-.11.1a1.38,1.38,0,0,0-.73-.2,1.3,1.3,0,0,0-1,.38A1.6,1.6,0,0,0,65,28.09a1.38,1.38,0,0,0,1.39,1.44,1.23,1.23,0,0,0,.93-.36,1.86,1.86,0,0,0,0-2.22m-.63,1.76a.45.45,0,0,1-.35.14c-.41,0-.57-.41-.59-.75a1.06,1.06,0,0,1,.2-.79.49.49,0,0,1,.36-.14c.49,0,.57.54.58.78a1.06,1.06,0,0,1-.2.76"/><path class="cls-1" d="M58.83,26.61a1.33,1.33,0,0,0-.12-.53.9.9,0,0,0-.31-.38.84.84,0,0,0-.47-.14H56.39v.07c0,.35,0,.68,0,1s0,.62,0,.89v1c0,.34,0,.64,0,.89v.07h.82v-.07c0-.26-.06-2.58-.06-2.82v-.29l.44,0a.57.57,0,0,1,.33.08.4.4,0,0,1,.11.32.59.59,0,0,1-.11.42c-.19.25-.55.17-.68.14l.14.68a1.35,1.35,0,0,0,1-.17.94.94,0,0,0,.38-.48,1.42,1.42,0,0,0,.1-.62"/><path class="cls-1" d="M.05,14.15a12.7,12.7,0,0,0,3.76,7.7,3.23,3.23,0,0,1-.15-1.92c.39-1.79,2.22-3.06,4.8-3.41V7.84C1.79,6.72-.35,10.93.05,14.15"/><path class="cls-1" d="M25.37,11.32A12.74,12.74,0,0,0,21.6,3.63a3.28,3.28,0,0,1,.16,1.91C21.35,7.34,19.53,8.6,17,9v8.69c6.66,1.12,8.8-3.09,8.41-6.32"/><path class="cls-1" d="M.29,9.91C2,7.54,5.13,6.18,10.86,7.79c10.08,2.84,13.31-3.74,7.57-6.43A12.73,12.73,0,0,0,.29,9.91"/><path class="cls-1" d="M25.12,15.56c-1.73,2.38-4.84,3.74-10.58,2.12C4.47,14.84,1.23,21.42,7,24.11a12.57,12.57,0,0,0,5.73,1.36,12.73,12.73,0,0,0,12.42-9.91"/></g></g></svg>