<svg xmlns="http://www.w3.org/2000/svg" viewBox="0 0 87.51 28.01"><defs><style>.cls-1{fill:#b5b5b5;}</style></defs><title>Asset 74</title><g id="Layer_2" data-name="Layer 2"><g id="Layer_1-2" data-name="Layer 1"><path class="cls-1" d="M52.07,3.73C50.81,5,49.59,6.18,48.35,7.4l-.57-.49a6.3,6.3,0,0,0-3.21-1.35,10.52,10.52,0,0,0-2-.09,4,4,0,0,0-2.45.83,2.75,2.75,0,0,0-1,1.76,2.29,2.29,0,0,0,1.19,2.49,5.19,5.19,0,0,0,1.83.6c1.29.19,2.58.36,3.86.57a9.56,9.56,0,0,1,3.35,1.17,6.15,6.15,0,0,1,2.14,2.16,7.29,7.29,0,0,1,1,3.11,13.08,13.08,0,0,1,.09,1.53A7.72,7.72,0,0,1,51.86,23a7.64,7.64,0,0,1-2.35,2.85A10,10,0,0,1,45.6,27.6a15.36,15.36,0,0,1-4.17.31,19,19,0,0,1-2.93-.33A11.4,11.4,0,0,1,34,25.65a11,11,0,0,1-1.69-1.5l3.79-3.78.44.38a7.09,7.09,0,0,0,3.49,1.71,12.82,12.82,0,0,0,3,.22,5.71,5.71,0,0,0,2.19-.48,2.47,2.47,0,0,0,1.54-1.82,3.08,3.08,0,0,0-.29-2.19,2.17,2.17,0,0,0-1.42-1.07c-.58-.15-1.17-.25-1.76-.35-1.14-.18-2.29-.32-3.43-.52a9.29,9.29,0,0,1-2.79-.94,6.34,6.34,0,0,1-3.28-3.92,9.61,9.61,0,0,1-.35-3.33,8.09,8.09,0,0,1,.63-2.78A7.36,7.36,0,0,1,35.22,3.5a8,8,0,0,1,3.52-2.45A12.69,12.69,0,0,1,40.66.52,14.56,14.56,0,0,1,43.89.35a8.94,8.94,0,0,1,1,.05A12.74,12.74,0,0,1,49,1.52a10.21,10.21,0,0,1,2.48,1.7l.55.51"/><path class="cls-1" d="M62.92.65V27.91H57.19V20.2q0-6.9,0-13.81a6.6,6.6,0,0,0-.48-2.63,3,3,0,0,0-3-1.95h-.16V.65Z"/><path class="cls-1" d="M24.13,21.38c.43-.79.85-1.54,1.28-2.32l.15.23c.15.27.29.55.45.81a.35.35,0,0,1,0,.38c-.38.77-.75,1.55-1.12,2.32q-1,2.13-2,4.25l-.47,1a2.05,2.05,0,0,1-.16-.26c-1.32-2.31-2.65-4.62-4-6.94-1.87-3.28-3.75-6.55-5.61-9.84-.54-.94-1-1.9-1.54-2.85S10,6,9.41,4.88A5,5,0,0,0,7.42,3a9.65,9.65,0,0,0-3.18-1,15.33,15.33,0,0,0-2.62-.19c-.31,0-.62,0-.95,0L0,.54H12.85q5.63,10.4,11.28,20.84"/><path class="cls-1" d="M33.68,2.07l-.47,1.17q-.89,2.19-1.79,4.37c-.33.83-.67,1.65-1,2.47-.1.24-.1.24-.36.24a7.08,7.08,0,0,1-2-.38,17.08,17.08,0,0,1-4.08-2,35.44,35.44,0,0,1-4.66-3.53C18.12,3.43,17,2.35,16,1.26,15.56.86,15.18.44,14.82,0L15,.07a35.76,35.76,0,0,0,5.81,2.37,27.12,27.12,0,0,0,5.1,1.17,15.78,15.78,0,0,0,2.28.15A9.92,9.92,0,0,0,32.14,3a6.76,6.76,0,0,0,1.33-.81A.91.91,0,0,0,33.63,2Z"/><path class="cls-1" d="M21.29,8.74a14.9,14.9,0,0,0,8.42,3.65c0,.2-2.71,5.83-3,6.25C24.9,15.33,23.1,12,21.29,8.74"/><path class="cls-1" d="M74,17.81V28H68.74V6.56a8.25,8.25,0,0,0-.29-2.26,3.5,3.5,0,0,0-1.42-2,2.85,2.85,0,0,0-1.5-.44c-.14,0-.27,0-.43,0V.64h.25c4.41,0,8.82,0,13.23,0a9.77,9.77,0,0,1,4.29,1,7.77,7.77,0,0,1,2.36,1.7,8.1,8.1,0,0,1,1.58,2.38,8.27,8.27,0,0,1,.63,2.45,9.17,9.17,0,0,1-.57,4.49,7.68,7.68,0,0,1-1.6,2.5,8.18,8.18,0,0,1-2.22,1.65,9.22,9.22,0,0,1-2,.73,9.81,9.81,0,0,1-2.23.29l-4.49,0H74M74,5.87c-.06.41,0,6.43,0,6.66h4a4.57,4.57,0,0,0,1.51-.22,2.94,2.94,0,0,0,1.87-1.69,3.65,3.65,0,0,0,0-2.72A2.88,2.88,0,0,0,80.2,6.37a3.78,3.78,0,0,0-1.86-.5H74Z"/></g></g></svg>