<svg xmlns="http://www.w3.org/2000/svg" viewBox="0 0 104.12 27.7"><defs><style>.cls-1{fill:#b5b5b5;}</style></defs><title>Asset 67</title><g id="Layer_2" data-name="Layer 2"><g id="Layer_1-2" data-name="Layer 1"><path class="cls-1" d="M39.84,7.61H38.06a.33.33,0,0,0-.29.19L33.42,18,29.15,7.79a.32.32,0,0,0-.29-.19H27.08a.34.34,0,0,0-.26.14.32.32,0,0,0,0,.3l5.46,13a.32.32,0,0,0,.29.19h1.82a.3.3,0,0,0,.29-.19L40.13,8.05a.32.32,0,0,0,0-.3A.34.34,0,0,0,39.84,7.61Z"/><path class="cls-1" d="M43.22,3H41.57a.31.31,0,0,0-.32.31v3a.32.32,0,0,0,.3.32h1.67a.31.31,0,0,0,.31-.32v-3A.31.31,0,0,0,43.22,3Z"/><path class="cls-1" d="M43.22,7.62H41.56a.31.31,0,0,0-.31.31v13a.3.3,0,0,0,.3.31h1.67a.31.31,0,0,0,.31-.32V7.93a.31.31,0,0,0-.31-.31Z"/><path class="cls-1" d="M52.35,7.29h0a6.74,6.74,0,0,0-5,2.11,6.93,6.93,0,0,0-2.06,5,7.08,7.08,0,0,0,7,7.1h0a6.92,6.92,0,0,0,4.07-1.32,6.42,6.42,0,0,0,2.41-2.92.28.28,0,0,0,0-.28.31.31,0,0,0-.26-.14H56.78a.31.31,0,0,0-.29.21A3.13,3.13,0,0,1,55,18.63a4.82,4.82,0,0,1-2.61.76h0a4.64,4.64,0,0,1-3.21-1.31,4.36,4.36,0,0,1-1.47-2.76H59.12a.32.32,0,0,0,.31-.29v-.47a7.11,7.11,0,0,0-2.06-5.09A6.73,6.73,0,0,0,52.35,7.29ZM47.7,13.2a5,5,0,0,1,1.54-2.62,4.58,4.58,0,0,1,3.13-1.17h0a4.54,4.54,0,0,1,3.13,1.18,4.94,4.94,0,0,1,1.55,2.62Z"/><path class="cls-1" d="M68.16,7.72a.35.35,0,0,0-.22-.08H65.15V3.37a.31.31,0,0,0-.31-.31H63.19a.32.32,0,0,0-.32.31V7.64H60.46a.31.31,0,0,0-.31.31V9.44a.3.3,0,0,0,.29.32h2.43V20.89a.32.32,0,0,0,.32.32h1.65a.31.31,0,0,0,.31-.32V9.76h2.79a.31.31,0,0,0,.31-.31h0V8A.35.35,0,0,0,68.16,7.72Z"/><path class="cls-1" d="M24.81,9.15h0a6.81,6.81,0,0,0-5-2.1,6.69,6.69,0,0,0-5,2.14,7.16,7.16,0,0,0-.71.84,10.62,10.62,0,0,1,1.06,3,5.07,5.07,0,0,1,1.25-2.35,4.49,4.49,0,0,1,3.43-1.51,4.57,4.57,0,0,1,3.39,1.46,4.86,4.86,0,0,1,1.41,3.46,5.09,5.09,0,0,1-1.35,3.56,4.52,4.52,0,0,1-3.44,1.5,4.63,4.63,0,0,1-3.41-1.46,6,6,0,0,1-.59-.74,7.94,7.94,0,0,1-1-1.64,11.19,11.19,0,0,1-.55-1.6c-.07-.24-.15-.47-.23-.72a8.69,8.69,0,0,0-.29-.86c-.06-.15-.12-.3-.17-.47A6.6,6.6,0,0,0,8.8,7.14,7,7,0,0,0,7.09,7,6.92,6.92,0,0,0,2.41,8.74,7,7,0,0,0,0,14.11a6.79,6.79,0,0,0,2.08,5,6.88,6.88,0,0,0,5,2.05,6.53,6.53,0,0,0,3-.7,5.44,5.44,0,0,0,1.53-1.12l.19-.2v.27a4.57,4.57,0,0,1-1.17,3.17,4.21,4.21,0,0,1-3.22,1.23A4.3,4.3,0,0,1,3,21a.32.32,0,0,0-.3-.2H.93a.31.31,0,0,0-.25.13.37.37,0,0,0-.05.27,5.88,5.88,0,0,0,2.5,3.47A7.44,7.44,0,0,0,7.46,26a6.37,6.37,0,0,0,5.38-2.52,5.82,5.82,0,0,0,1.06-2.38,8.71,8.71,0,0,0,.15-1.25,6.85,6.85,0,0,1-2.54-3.91,4.46,4.46,0,0,1-1,1.67A4.61,4.61,0,0,1,7.1,19a4.56,4.56,0,0,1-3.43-1.49A4.85,4.85,0,0,1,2.3,14.07a4.91,4.91,0,0,1,1.38-3.52A4.54,4.54,0,0,1,7.1,9.05a4.49,4.49,0,0,1,2.74.89,6.87,6.87,0,0,1,2,3.6v.06a.69.69,0,0,0,0,.13l0,.11v.08l.1.34c.36,1.16,1.3,4,3.23,5.3A7.07,7.07,0,0,0,24.9,9.24l-.08-.07Z"/><path class="cls-1" d="M90.29,20.72a6.89,6.89,0,1,0-6.89-6.89h0a6.89,6.89,0,0,0,6.88,6.89Zm-4.56-8.5h3.13a.24.24,0,0,0,.23-.17l1-3a.23.23,0,0,1,.28-.19.25.25,0,0,1,.19.19l1,3a.26.26,0,0,0,.23.17h3.13a.24.24,0,0,1,.24.24.23.23,0,0,1-.1.19l-2.53,1.83a.23.23,0,0,0-.08.27l1,3a.25.25,0,0,1-.15.31A.24.24,0,0,1,93,18l-2.55-1.82a.24.24,0,0,0-.28,0L87.61,18a.24.24,0,0,1-.33-.05.22.22,0,0,1,0-.22l1-3a.24.24,0,0,0-.09-.27l-2.53-1.84a.23.23,0,0,1,0-.33A.24.24,0,0,1,85.73,12.22Z"/><path class="cls-1" d="M74.84,13.26a1.06,1.06,0,0,0-1.06-1.06h-3.3a1.06,1.06,0,0,0,0,2.12h3.3A1.07,1.07,0,0,0,74.84,13.26Z"/><path class="cls-1" d="M104.12,13.83A13.83,13.83,0,0,0,90.29,0H74.12a.28.28,0,0,0-.28.28.36.36,0,0,0,0,.1,6.91,6.91,0,0,0,6.23,4.36H90.43a6.84,6.84,0,0,1,.91.06l.31,0h.11A9.14,9.14,0,0,1,96.37,7h0a9.05,9.05,0,1,1-14.31,3.05l.12-.25,0-.07a10.24,10.24,0,0,1,1.25-1.88c.19-.22.39-.43.6-.64a.12.12,0,0,0,0-.17A.18.18,0,0,0,84,7H78.49a.47.47,0,0,0-.41.25,13.85,13.85,0,0,0,.16,13.29H76.33a1.09,1.09,0,0,0-1.11,1,1.06,1.06,0,0,0,.89,1.21h3.6A13.89,13.89,0,0,0,83,25.58H73.16a1.12,1.12,0,0,0-.8.3,1,1,0,0,0-.34.76,1.1,1.1,0,0,0,1.14,1.06H90.47l1-.07A13.82,13.82,0,0,0,104.12,13.83Z"/></g></g></svg>