<svg xmlns="http://www.w3.org/2000/svg" viewBox="0 0 112 27.93"><defs><style>.cls-1{fill:#b5b5b5;}</style></defs><title>Asset 75</title><g id="Layer_2" data-name="Layer 2"><g id="Layer_1-2" data-name="Layer 1"><path class="cls-1" d="M30.28,0H0V4.65H28.77a1.5,1.5,0,0,1,1.5,1.5V21.78h0a1.5,1.5,0,0,1-1.5,1.49H6.15a1.5,1.5,0,0,1-1.5-1.5V15.46A1.51,1.51,0,0,1,6.15,14H25.6V9.32h-21A4.63,4.63,0,0,0,0,14V23.3a4.63,4.63,0,0,0,4.64,4.63H30.28a4.63,4.63,0,0,0,4.63-4.63V4.64A4.63,4.63,0,0,0,30.28,0"/><path class="cls-1" d="M47.86,27.77h-.67l-.75-2H43.53l-.74,2H42.1l2.66-6.51h.51Zm-1.6-2.46L45,22l-1.27,3.32Z"/><path class="cls-1" d="M51.79,27.77h-.58V21.26h2.22a4.65,4.65,0,0,1,1.81.17A1.69,1.69,0,0,1,56.12,23a1.64,1.64,0,0,1-1.25,1.7,6.71,6.71,0,0,1-1.63.1H51.79v2.93m0-3.48h1.69a5.86,5.86,0,0,0,1.08-.05,1.11,1.11,0,0,0,1-1.21,1.23,1.23,0,0,0-.47-1c-.31-.21-.52-.21-1.68-.22H51.79Z"/><path class="cls-1" d="M57.28,27.77h-.53v-4.4h.53v.7a1.3,1.3,0,0,1,1.28-.77,1.51,1.51,0,0,1,.31,0v.49a1.38,1.38,0,0,0-.34,0,1.22,1.22,0,0,0-.9.35c-.34.38-.34.83-.35,1.74v1.9"/><path class="cls-1" d="M61.32,27.88a2,2,0,0,1-2-2.25,2.09,2.09,0,0,1,2-2.36,2,2,0,0,1,2,2.28,2.07,2.07,0,0,1-2,2.33m0-4.15a1.35,1.35,0,0,0-1,.45,2.27,2.27,0,0,0-.41,1.46c0,1.25.64,1.76,1.4,1.76,1,0,1.42-.77,1.43-1.79,0-.25,0-1.88-1.4-1.88"/><path class="cls-1" d="M70.15,27.77H69.6V25.39c0-.82,0-1.07-.15-1.3a.81.81,0,0,0-.69-.31,1.23,1.23,0,0,0-1.14,1,5,5,0,0,0-.07,1.12v1.83H67V25.33a6.7,6.7,0,0,0,0-.83.76.76,0,0,0-.82-.72,1.08,1.08,0,0,0-1,.59A3.33,3.33,0,0,0,65,26v1.76h-.54V23.38H65v.9a1.27,1.27,0,0,1,1.3-1,1.13,1.13,0,0,1,1.22,1.09,1.57,1.57,0,0,1,.22-.52,1.31,1.31,0,0,1,1.15-.57,1.25,1.25,0,0,1,1,.41c.28.36.28.83.29,1.91v2.17"/><path class="cls-1" d="M72.07,22.34h-.53V21.5h.53Zm0,5.43h-.53v-4.4h.53Z"/><path class="cls-1" d="M75.27,25.29a1.71,1.71,0,0,1,.94.47,1.15,1.15,0,0,1,.29.77c0,.65-.51,1.35-1.65,1.35a1.93,1.93,0,0,1-1.11-.31,1.88,1.88,0,0,1-.66-.87l.53-.19a1.21,1.21,0,0,0,1.24.88c.76,0,1.12-.4,1.12-.87s-.59-.71-.94-.78l-.53-.11c-.41-.09-1.14-.28-1.14-1.14,0-.45.25-1.22,1.57-1.22a2,2,0,0,1,1,.25,1.25,1.25,0,0,1,.54.74l-.53.13a.69.69,0,0,0-.37-.5,1.42,1.42,0,0,0-.7-.15c-.33,0-1,.08-1,.74,0,.47.43.59.92.71l.46.1"/><path class="cls-1" d="M81.41,26.61a2.62,2.62,0,0,1-.42.66,1.88,1.88,0,0,1-1.5.61,2.09,2.09,0,0,1-2.1-2.34,2,2,0,1,1,4,0H78a2.57,2.57,0,0,0,.14.92,1.37,1.37,0,0,0,1.36.9,1.49,1.49,0,0,0,1.41-.92l.51.14m-.62-1.48a1.68,1.68,0,0,0-.46-1,1.33,1.33,0,0,0-.92-.33A1.42,1.42,0,0,0,78,25.13Z"/><path class="cls-1" d="M87,23.83H86v3.94h-.55V23.83h-1v-.46h1v-.84c0-.66,0-.71.07-.87a.84.84,0,0,1,.91-.53,3.2,3.2,0,0,1,.56.06v.54a1.07,1.07,0,0,0-.51-.11.42.42,0,0,0-.43.25,1.72,1.72,0,0,0,0,.61v.89h1v.46"/><path class="cls-1" d="M89.57,27.88a2,2,0,0,1-2-2.25,2.09,2.09,0,0,1,2-2.36,2,2,0,0,1,2,2.28,2.08,2.08,0,0,1-2,2.33m0-4.15a1.35,1.35,0,0,0-1,.45,2.27,2.27,0,0,0-.41,1.46c0,1.25.64,1.76,1.4,1.76,1,0,1.42-.77,1.43-1.79,0-.25,0-1.88-1.4-1.88"/><path class="cls-1" d="M93.22,27.77h-.53v-4.4h.53v.7a1.3,1.3,0,0,1,1.28-.77,1.51,1.51,0,0,1,.31,0v.49a1.35,1.35,0,0,0-.33,0,1.23,1.23,0,0,0-.91.35c-.34.38-.34.83-.35,1.74v1.9"/><polygon class="cls-1" points="102.34 27.77 98.12 27.77 98.12 21.25 98.75 21.25 98.75 27.2 102.34 27.2 102.34 27.77"/><path class="cls-1" d="M103.78,22.34h-.53V21.5h.53Zm0,5.43h-.53v-4.4h.53Z"/><path class="cls-1" d="M107.19,23.83h-1v3.94h-.55V23.83h-1v-.46h1v-.84c0-.66,0-.71.07-.87a.84.84,0,0,1,.91-.53,3.2,3.2,0,0,1,.56.06v.54a1.07,1.07,0,0,0-.51-.11.42.42,0,0,0-.43.25,1.72,1.72,0,0,0,0,.61v.89h1v.46"/><path class="cls-1" d="M111.59,26.61a2.27,2.27,0,0,1-.41.66,1.88,1.88,0,0,1-1.5.61,2.09,2.09,0,0,1-2.1-2.34,2,2,0,1,1,4,0h-3.41a2.37,2.37,0,0,0,.14.92,1.37,1.37,0,0,0,1.36.9,1.5,1.5,0,0,0,1.41-.92l.5.14M111,25.13a1.68,1.68,0,0,0-.46-1,1.33,1.33,0,0,0-.92-.33,1.42,1.42,0,0,0-1.41,1.37Z"/><path class="cls-1" d="M52.22,0l3.64,10.88c.43,1.32.73,1.63,1.49,1.63h.74v1.92H50.15V12.52h.65c.65,0,1.2-.09,1.2-.33a2.83,2.83,0,0,0-.11-.78l-.46-1.57H47l-.26.87a4.93,4.93,0,0,0-.32,1.39c0,.36.76.42,1.35.42h.63v1.92H42V12.52h.74c.76,0,1.06-.31,1.5-1.63L47.87,0h4.35m-4.6,7.92h3.16L49.21,3.25h0Z"/><path class="cls-1" d="M59.35,2.68c0-.61-.15-.93-.78-.93h-1V0H63V5.43a3.93,3.93,0,0,1,2.8-1.5c3.27,0,4.49,2.54,4.49,5.41S69,14.76,65.77,14.76a3.74,3.74,0,0,1-3.35-1.68l-.63,1.36H59.35V2.68M63,9.34c0,2.22.5,3.55,1.72,3.55s1.72-1.33,1.72-3.55-.5-3.54-1.72-3.54S63,7.12,63,9.34"/><path class="cls-1" d="M71.56,2.68c0-.61-.15-.93-.78-.93h-1V0h5.4V5.43A3.93,3.93,0,0,1,78,3.93c3.26,0,4.48,2.54,4.48,5.41S81.25,14.76,78,14.76a3.74,3.74,0,0,1-3.36-1.68L74,14.44H71.56V2.68m3.62,6.66c0,2.22.5,3.55,1.72,3.55s1.71-1.33,1.71-3.55S78.11,5.8,76.9,5.8s-1.72,1.32-1.72,3.54"/><path class="cls-1" d="M94.74,9.34c0,3.48-2.37,5.42-5.61,5.42s-5.62-1.94-5.62-5.42,2.37-5.41,5.62-5.41,5.61,1.93,5.61,5.41m-7.38,0c0,2.57.46,3.68,1.77,3.68s1.76-1.11,1.76-3.68-.46-3.67-1.76-3.67-1.77,1.11-1.77,3.67"/><path class="cls-1" d="M110.26,9.52v1.7c0,1-.22,1.58-1.05,1.58a.73.73,0,0,1-.74-.82V6h2.68V4.25h-2.68v-4h-2.15c-.18,1.8-.74,4-2.92,4H100v-4H97.85c-.17,1.8-.74,4-2.91,4V6H96.4v5.47c0,2.21,1.24,3.3,3.48,3.3,2.61,0,3.65-1.17,3.65-3.3V9.52H101.8v1.7c0,1-.22,1.58-1,1.58A.73.73,0,0,1,100,12V6h4.85v5.47c0,2.21,1.24,3.3,3.48,3.3,2.61,0,3.66-1.17,3.66-3.3V9.52h-1.74"/></g></g></svg>