<svg xmlns="http://www.w3.org/2000/svg" viewBox="0 0 51.2 44.7"><defs><style>.cls-1{fill:#3b3b3d;}.cls-2{fill:#ffc912;}</style></defs><g id="Layer_2" data-name="Layer 2"><g id="Layer_1-2" data-name="Layer 1"><path class="cls-1" d="M0,41.28H0a3.24,3.24,0,0,1,1-2.46,3.61,3.61,0,0,1,2.59-1,4,4,0,0,1,2.76,1L5.16,40.31a2.23,2.23,0,0,0-1.46-.57,1.43,1.43,0,0,0-1.06.44,1.55,1.55,0,0,0-.42,1.11v0a1.51,1.51,0,0,0,1.57,1.58,1.48,1.48,0,0,0,.76-.16v-.65H3.42V40.66H6.61v3.05a4.46,4.46,0,0,1-2.91,1,3.78,3.78,0,0,1-2.62-.94A3.18,3.18,0,0,1,0,41.28Z"/><path class="cls-1" d="M7,42v0a2.54,2.54,0,0,1,.82-1.89,2.87,2.87,0,0,1,2.08-.8,2.9,2.9,0,0,1,2.08.79A2.54,2.54,0,0,1,12.82,42v0A2.55,2.55,0,0,1,12,43.88a2.89,2.89,0,0,1-2.09.8,2.9,2.9,0,0,1-2.08-.79A2.54,2.54,0,0,1,7,42Zm3.73,0v0a1,1,0,0,0-.24-.65.77.77,0,0,0-.6-.26.76.76,0,0,0-.6.26.88.88,0,0,0-.23.63v0a1,1,0,0,0,.24.65.77.77,0,0,0,.6.26.76.76,0,0,0,.6-.26A.88.88,0,0,0,10.76,42Z"/><path class="cls-1" d="M13.32,37.69h2.13v6.87H13.32Z"/><path class="cls-1" d="M15.73,42v0a3,3,0,0,1,.64-2,1.92,1.92,0,0,1,1.55-.74,2,2,0,0,1,1.54.7V37.69H21.6v6.87H19.46v-.63a2,2,0,0,1-1.52.75A2,2,0,0,1,16.37,44,2.84,2.84,0,0,1,15.73,42Zm3.78,0v0a1,1,0,0,0-.24-.65.8.8,0,0,0-.62-.27.78.78,0,0,0-.61.26,1,1,0,0,0-.24.66v0a1,1,0,0,0,.24.66.86.86,0,0,0,1.23,0A1,1,0,0,0,19.51,42Z"/><path class="cls-1" d="M21.89,42v0a2.67,2.67,0,0,1,.75-1.93,2.53,2.53,0,0,1,1.9-.77,2.49,2.49,0,0,1,2,.83,2.92,2.92,0,0,1,.65,2,3.44,3.44,0,0,1,0,.36H23.9a.93.93,0,0,0,1,.69,1.45,1.45,0,0,0,1-.53l1.15.91a2.78,2.78,0,0,1-2.34,1.12,2.83,2.83,0,0,1-2-.73A2.53,2.53,0,0,1,21.89,42Zm3.37-.47c0-.52-.29-.77-.71-.77s-.61.25-.68.77Z"/><path class="cls-1" d="M27.69,39.42h2.13v.72a2,2,0,0,1,1.58-.84,1.75,1.75,0,0,1,1.29.5,2,2,0,0,1,.47,1.37v3.39H31v-2.7a.77.77,0,0,0-.17-.52.58.58,0,0,0-.84,0,.74.74,0,0,0-.19.52v2.7H27.69Z"/><path class="cls-1" d="M33.82,38h3a3.52,3.52,0,0,1,2.13.58,2.08,2.08,0,0,1,.82,1.76v0a2.16,2.16,0,0,1-.83,1.82,3.48,3.48,0,0,1-2.17.62H36v1.79h-2.2Zm2.79,3.23c.63,0,.94-.25.94-.73h0c0-.48-.31-.73-.93-.73H36V41.2Z"/><path class="cls-1" d="M39.94,42v0a2.66,2.66,0,0,1,.74-1.93,2.81,2.81,0,0,1,3.93.06,3,3,0,0,1,.65,2,3.44,3.44,0,0,1,0,.36H41.94a.93.93,0,0,0,1,.69A1.48,1.48,0,0,0,44,42.65l1.15.91a2.81,2.81,0,0,1-2.35,1.12,2.85,2.85,0,0,1-2-.73A2.52,2.52,0,0,1,39.94,42Zm3.37-.47c-.05-.52-.29-.77-.72-.77s-.61.25-.68.77Z"/><path class="cls-1" d="M45.73,39.42h2.14v.72a1.93,1.93,0,0,1,1.57-.84,1.73,1.73,0,0,1,1.29.5,2,2,0,0,1,.47,1.37v3.39H49.06v-2.7a.77.77,0,0,0-.17-.52.54.54,0,0,0-.41-.18.58.58,0,0,0-.43.18.73.73,0,0,0-.18.52v2.7H45.73Z"/><path class="cls-2" d="M31.17,23.82V15.55a2,2,0,0,0-2-2H25.1v12.2h4.11A2,2,0,0,0,31.17,23.82Z"/><path class="cls-2" d="M19.61,28.26H10.48a2.66,2.66,0,0,1-2.39-1.51v7.5h10.8C19.38,33.49,19.81,31.85,19.61,28.26Z"/><path class="cls-2" d="M39.38,4.22a2.73,2.73,0,1,1-.92-1L41.69,0H14.26A6.17,6.17,0,0,0,8.09,6.17v.91a2.65,2.65,0,0,1,2.42-1.55H24.45l.65,3.53-.2-.17A3.76,3.76,0,0,0,22.46,8H15.15a1.64,1.64,0,0,0-1.64,1.63V24.1a1.65,1.65,0,0,0,1.64,1.64h4.41V13.59A3.8,3.8,0,0,0,17,14.4c.25-1.56.66-3.43.66-3.43H33.53a2.66,2.66,0,0,1,2.66,2.66v12a2.66,2.66,0,0,1-2.66,2.66H25.1s-.22,4.23.83,6H36.49a6.17,6.17,0,0,0,6.16-6.17V1Z"/></g></g></svg>