<svg xmlns="http://www.w3.org/2000/svg" viewBox="0 0 101.6 44.3"><defs><style>.cls-1{fill:#ec1c24;}.cls-2{fill:#231f20;}.cls-3,.cls-4{fill:#fff;}.cls-4{stroke:#fff;stroke-miterlimit:10;stroke-width:0.5px;}</style></defs><g id="Layer_2" data-name="Layer 2"><g id="Layer_1-2" data-name="Layer 1"><rect class="cls-1" x="43.31" width="57.88" height="34.91"/><path class="cls-2" d="M1.2,30.44S4.5,18,7.46,11C11.4,1.7,17.85-2.35,15.49,4c-3,8-5.15,10.77-5.07,12.64.24.32,2.64-1.85,4-2.33s4.87-1.49,6.33,4.29,1.63,13.3-2.84,15c-5,1.84-1.76-2.06-.57-5.2,1.09-2.89,1.94-11.73-1.46-12.26-2.11-.32-7.31,5.28-7.31,5.28S6,30.12,5.91,31.25s-1.21,3.36-3.24,3S1.2,30.44,1.2,30.44Z" transform="translate(-0.67)"/><path class="cls-2" d="M33.51,13a4.61,4.61,0,0,0-3.65,1.3c-1,1-3.09,7-4.06,9.41s-2.19,10.07.81,10.15,3.25-2.52,3.25-3.49a32.8,32.8,0,0,1,1.62-9.66C32.94,16.56,34.37,13.19,33.51,13Z" transform="translate(-0.67)"/><path class="cls-2" d="M34.08,3.57c-1,.09-2,2.19-2.11,3.49s1.62,1.38,2.92,1.22S37,5.6,37.33,4.71,35.6,3.44,34.08,3.57Z" transform="translate(-0.67)"/><rect class="cls-3" x="52" y="5.93" width="16.8" height="2.91"/><rect class="cls-3" x="58.65" y="7.39" width="3.49" height="22.73"/><path class="cls-4" d="M93.74,5.89,85.62,27.36s-.81,3.08-3.49,3.08-3.49-3.08-3.49-3.08L70.53,5.89h3.73L82.13,26.3,90,5.89Z" transform="translate(-0.67)"/><path class="cls-2" d="M.67,37.68H2.49a2.3,2.3,0,0,1,2.4,2.49,2.39,2.39,0,0,1-2.42,2.6H.67Zm.68,4.52H2.42c1.2,0,1.77-.86,1.77-2a1.73,1.73,0,0,0-1.77-1.93H1.35Z" transform="translate(-0.67)"/><path class="cls-2" d="M9.11,40.91a1.76,1.76,0,0,1-1.75,2A2,2,0,0,1,7.4,39,1.73,1.73,0,0,1,9.11,40.91Zm-2.8,0c0,.82.41,1.41,1.08,1.41s1.06-.56,1.06-1.4-.38-1.41-1.08-1.41S6.31,40.07,6.31,40.91Z" transform="translate(-0.67)"/><path class="cls-2" d="M12.39,41c0,.76.38,1.29,1,1.29a.86.86,0,0,0,.9-.57h.64a1.5,1.5,0,0,1-1.56,1.11c-1.17,0-1.64-1-1.64-1.91s.55-2,1.68-2A1.57,1.57,0,0,1,15,40.72,3,3,0,0,1,15,41Zm2-.45c0-.61-.31-1.1-.95-1.1s-.94.45-1,1.1Z" transform="translate(-0.67)"/><path class="cls-2" d="M16.24,39.06c.5,1.52.87,2.65,1,3.11h0c.09-.41.48-1.52,1-3.11h.65l-1.36,3.71h-.71l-1.29-3.71Z" transform="translate(-0.67)"/><path class="cls-2" d="M20,41c0,.76.38,1.29,1,1.29a.86.86,0,0,0,.9-.57h.65A1.53,1.53,0,0,1,21,42.86c-1.16,0-1.64-1-1.64-1.91s.56-2,1.68-2a1.58,1.58,0,0,1,1.6,1.75,1.51,1.51,0,0,1,0,.31Zm2-.45c0-.61-.31-1.1-.95-1.1s-.94.45-1,1.1Z" transform="translate(-0.67)"/><path class="cls-2" d="M23.57,40.07v-1h.62c0,.1,0,.39,0,.75A1.33,1.33,0,0,1,25.47,39v.64A1.18,1.18,0,0,0,24.21,41v1.8h-.64Z" transform="translate(-0.67)"/><path class="cls-2" d="M26.69,39.06c.6,1.78.93,2.76,1,3.14h0c.12-.42.39-1.27,1-3.14h.65L28,42.94c-.37,1.09-.65,1.36-1.41,1.36a2.82,2.82,0,0,1-.4,0v-.56l.3,0c.47,0,.65-.21.87-.83L26,39.06Z" transform="translate(-0.67)"/><path class="cls-2" d="M29.85,39.06h.64V38h.64v1.1H32v.52h-.82v2.18c0,.36.09.54.43.54a1.23,1.23,0,0,0,.32,0v.48a1.72,1.72,0,0,1-.56.07c-.57,0-.83-.3-.83-.91V39.58h-.64Z" transform="translate(-0.67)"/><path class="cls-2" d="M33.38,37.39V39.6A1.23,1.23,0,0,1,34.53,39c.6,0,1.26.33,1.26,1.43v2.37h-.64V40.51c0-.63-.27-1-.81-1s-1,.45-1,1.22v2h-.65V37.39Z" transform="translate(-0.67)"/><path class="cls-2" d="M37,37.39h.64v.8H37Zm0,1.67h.64v3.71H37Z" transform="translate(-0.67)"/><path class="cls-2" d="M38.82,40v-.93h.62a4.15,4.15,0,0,1,0,.61,1.18,1.18,0,0,1,1.17-.7c.7,0,1.24.42,1.24,1.41v2.39h-.64V40.46c0-.56-.22-.94-.78-.94s-1,.54-1,1.29v2h-.64Z" transform="translate(-0.67)"/><path class="cls-2" d="M46.13,42.44c0,1.19-.49,1.86-1.71,1.86s-1.47-.63-1.54-1.13h.66a.84.84,0,0,0,.91.62c.84,0,1-.53,1-1.39v-.3a1.12,1.12,0,0,1-1.16.65c-.91,0-1.53-.74-1.53-1.83s.7-2,1.6-2c.71,0,1,.33,1.09.58,0-.17,0-.42,0-.49h.61c0,.21,0,.71,0,1.07Zm-2.66-1.55c0,.79.41,1.32,1,1.32.8,0,1-.54,1-1.37s-.22-1.33-1-1.33S43.47,40.09,43.47,40.89Z" transform="translate(-0.67)"/><path class="cls-2" d="M49.28,40c0-.32,0-.65,0-.95h.62a4.71,4.71,0,0,1,0,.57A1.16,1.16,0,0,1,51,39a1,1,0,0,1,1,.66A1.27,1.27,0,0,1,53.21,39c.6,0,1.17.35,1.17,1.36v2.44h-.63V40.41c0-.43-.16-.89-.74-.89s-.87.46-.87,1.12v2.13h-.63V40.43c0-.48-.13-.91-.71-.91s-.89.49-.89,1.2v2.05h-.63Z" transform="translate(-0.67)"/><path class="cls-2" d="M58.77,40.91a1.76,1.76,0,0,1-1.75,2,2,2,0,0,1,0-3.89A1.73,1.73,0,0,1,58.77,40.91Zm-2.8,0c0,.82.41,1.41,1.08,1.41s1.06-.56,1.06-1.4-.38-1.41-1.08-1.41S56,40.07,56,40.91Z" transform="translate(-0.67)"/><path class="cls-2" d="M59.71,40.07c0-.52,0-.82,0-1h.63c0,.1,0,.39,0,.75A1.3,1.3,0,0,1,61.6,39v.64A1.18,1.18,0,0,0,60.35,41v1.8h-.64Z" transform="translate(-0.67)"/><path class="cls-2" d="M62.71,41c0,.76.39,1.29,1,1.29a.85.85,0,0,0,.89-.57h.65a1.51,1.51,0,0,1-1.56,1.11A1.69,1.69,0,0,1,62.06,41c0-1.1.56-2,1.69-2a1.57,1.57,0,0,1,1.59,1.75,3,3,0,0,1,0,.31Zm2-.45c0-.61-.32-1.1-.95-1.1s-.94.45-1,1.1Z" transform="translate(-0.67)"/><path class="cls-2" d="M68.19,37.39h.64v.8h-.64Zm0,1.67h.64v3.71h-.64Z" transform="translate(-0.67)"/><path class="cls-2" d="M70,40c0-.32,0-.64,0-.93h.62c0,.11,0,.5,0,.61a1.17,1.17,0,0,1,1.17-.7c.69,0,1.24.42,1.24,1.41v2.39h-.64V40.46c0-.56-.22-.94-.79-.94s-1,.54-1,1.29v2H70Z" transform="translate(-0.67)"/><path class="cls-2" d="M73.75,39.06h.64V38H75v1.1h.81v.52H75v2.18c0,.36.08.54.42.54a1.19,1.19,0,0,0,.32,0v.48a1.7,1.7,0,0,1-.55.07c-.58,0-.84-.3-.84-.91V39.58h-.64Z" transform="translate(-0.67)"/><path class="cls-2" d="M77,41c0,.76.38,1.29,1,1.29a.85.85,0,0,0,.89-.57h.65A1.52,1.52,0,0,1,78,42.86,1.69,1.69,0,0,1,76.35,41c0-1.1.56-2,1.69-2a1.57,1.57,0,0,1,1.59,1.75,3,3,0,0,1,0,.31Zm2-.45c0-.61-.32-1.1-1-1.1s-.94.45-1,1.1Z" transform="translate(-0.67)"/><path class="cls-2" d="M80.56,40.07c0-.52,0-.82,0-1h.63c0,.1,0,.39,0,.75A1.3,1.3,0,0,1,82.45,39v.64A1.18,1.18,0,0,0,81.2,41v1.8h-.64Z" transform="translate(-0.67)"/><path class="cls-2" d="M83.56,41c0,.76.39,1.29,1,1.29a.85.85,0,0,0,.89-.57h.65a1.51,1.51,0,0,1-1.56,1.11A1.69,1.69,0,0,1,82.91,41c0-1.1.56-2,1.69-2a1.57,1.57,0,0,1,1.59,1.75,3,3,0,0,1,0,.31Zm2-.45c0-.61-.32-1.1-1-1.1s-.94.45-1,1.1Z" transform="translate(-0.67)"/><path class="cls-2" d="M87.48,41.71a.85.85,0,0,0,.91.64c.55,0,.76-.23.76-.57s-.17-.51-.88-.68C87.21,40.84,87,40.52,87,40s.38-1,1.34-1,1.35.55,1.4,1.07h-.62a.74.74,0,0,0-.81-.57c-.52,0-.67.25-.67.49s.15.42.83.58c1.13.27,1.35.64,1.35,1.19s-.52,1.13-1.44,1.13a1.35,1.35,0,0,1-1.53-1.15Z" transform="translate(-0.67)"/><path class="cls-2" d="M90.23,39.06h.64V38h.64v1.1h.82v.52h-.82v2.18c0,.36.09.54.43.54a1.19,1.19,0,0,0,.32,0v.48a1.7,1.7,0,0,1-.55.07c-.58,0-.84-.3-.84-.91V39.58h-.64Z" transform="translate(-0.67)"/><path class="cls-2" d="M93.12,37.39h.64v.8h-.64Zm0,1.67h.64v3.71h-.64Z" transform="translate(-0.67)"/><path class="cls-2" d="M95,40c0-.32,0-.64,0-.93h.62c0,.11,0,.5,0,.61a1.17,1.17,0,0,1,1.17-.7c.69,0,1.24.42,1.24,1.41v2.39h-.64V40.46c0-.56-.22-.94-.79-.94s-1,.54-1,1.29v2H95Z" transform="translate(-0.67)"/><path class="cls-2" d="M102.26,42.44c0,1.19-.49,1.86-1.7,1.86s-1.48-.63-1.54-1.13h.65a.85.85,0,0,0,.91.62c.85,0,1.06-.53,1.06-1.39v-.3a1.13,1.13,0,0,1-1.16.65c-.92,0-1.54-.74-1.54-1.83s.7-2,1.6-2c.71,0,1,.33,1.1.58a4.88,4.88,0,0,1,0-.49h.6c0,.21,0,.71,0,1.07ZM99.6,40.89c0,.79.41,1.32,1,1.32.8,0,1-.54,1-1.37s-.22-1.33-1-1.33S99.6,40.09,99.6,40.89Z" transform="translate(-0.67)"/></g></g></svg>