<svg xmlns="http://www.w3.org/2000/svg" viewBox="0 0 80.9 26.35"><defs><style>.cls-1{fill:#b5b5b5;}</style></defs><title>Asset 68</title><g id="Layer_2" data-name="Layer 2"><g id="Layer_1-2" data-name="Layer 1"><path class="cls-1" d="M4.4,25.29c2.65-3.21.28-7.79-1.89-11.4A18.06,18.06,0,0,1,.12,8.49,6.57,6.57,0,0,1,1.81,2.76,7.24,7.24,0,0,1,4.22.92,6.86,6.86,0,0,1,6.82.27h.09a5.5,5.5,0,0,1,4.38,2.1c.36.42.69.86,1,1.29a7.91,7.91,0,0,1,1.34-1.53A8.22,8.22,0,0,1,18.28,0l.42,0a6.5,6.5,0,0,1,4.46,1.91c2.11,2.1,2.55,5.49,1.2,9.29a19.12,19.12,0,0,1-5.69,8.56,12.85,12.85,0,0,1-1.66,1c-.27.14-.55.29-.85.47,2.28-2,3.49-5.39,4.42-8.22.45-1.35,1.38-4.7.24-7.76C20.1,3.36,19,2.45,17.24,2.45a2.82,2.82,0,0,0-2,.79,7.33,7.33,0,0,0-1.73,2.27,15.81,15.81,0,0,1,.87,1.75c.44,1.07,1.27,3,0,4.06-.12.1-.55.35-1.23.75-.52.3-1.1.64-1.24.74l-.33.25-.19-.37a8.4,8.4,0,0,1-.61-5.2,7.68,7.68,0,0,0-.93-1.86A9.52,9.52,0,0,0,7,3.07a2,2,0,0,0-1-.25,2.67,2.67,0,0,0-2,1.08,4,4,0,0,0-.56,3,21.34,21.34,0,0,0,2.12,4.91,43.66,43.66,0,0,1,2.32,5A7.1,7.1,0,0,1,7.44,22a12.89,12.89,0,0,1-2.37,2.63c-.27.26-.51.48-.67.65"/><path class="cls-1" d="M45.36,20.14V2.61h3.45v1a4.21,4.21,0,0,1,.68-.42,6,6,0,0,1,3-.55h.94V5.93l-.39,0h-.29a4.53,4.53,0,0,0-2.59.77,2.87,2.87,0,0,0-1,1.57,7.48,7.48,0,0,0-.26,2.21v9.71Z"/><path class="cls-1" d="M54.81,20.14V2.61h3.44v1a4.84,4.84,0,0,1,.69-.42,6,6,0,0,1,3-.55h.8l1.68,3.31-.6,0h-.54a7.51,7.51,0,0,0-3.68.78,2.85,2.85,0,0,0-1,1.57,7.48,7.48,0,0,0-.26,2.21v9.71Z"/><path class="cls-1" d="M34.83,5.67a5.75,5.75,0,1,0,5.75,5.75,5.75,5.75,0,0,0-5.75-5.75m-.06,14.84A9.17,9.17,0,1,1,40.58,4.24V2.61H44V20.14H40.58v-1.7a9.13,9.13,0,0,1-5.81,2.07"/><polygon class="cls-1" points="76.78 2.61 72.42 11.27 68.13 2.61 64.13 2.61 70.43 15.21 64.83 26.35 69 26.35 80.9 2.61 76.78 2.61"/></g></g></svg>