<svg xmlns="http://www.w3.org/2000/svg" viewBox="0 0 135.1 27.89"><defs><style>.cls-1{font-size:18.12px;font-family:Montserrat-Bold, Montserrat;font-weight:700;letter-spacing:-0.01em;}.cls-1,.cls-6{fill:#b5b5b5;}.cls-2{letter-spacing:0em;}.cls-3{letter-spacing:-0.03em;}.cls-4{letter-spacing:0em;}.cls-5{letter-spacing:-0.01em;}.cls-6{stroke:#b5b5b5;stroke-miterlimit:10;stroke-width:0.75px;}</style></defs><title>Asset 66</title><g id="Layer_2" data-name="Layer 2"><g id="Layer_1-2" data-name="Layer 1"><text class="cls-1" transform="translate(34.99 23.07)">social<tspan class="cls-2" x="53.21" y="0">h</tspan><tspan class="cls-3" x="65.66" y="0">e</tspan><tspan class="cls-4" x="76.64" y="0">a</tspan><tspan class="cls-5" x="87.75" y="0">d</tspan></text><path class="cls-6" d="M28.44.53l-1,.81c.17.22,4.26,5.56-1.54,10.41l-1.18,1a5.3,5.3,0,0,0,.16-1.32,5.72,5.72,0,0,0-2.72-4.88l-.68,1.11a4.41,4.41,0,0,1,2.1,3.77A4.46,4.46,0,0,1,21.75,15l-1.22.88c-1,.71-1.83,1.31-2.53,1.91a13.27,13.27,0,0,0-2.68-.25,13.27,13.27,0,0,0-2.68.25c-.7-.6-1.53-1.2-2.53-1.91L8.88,15a4.43,4.43,0,0,1,.3-7.33L8.5,6.51a5.72,5.72,0,0,0-2.72,4.88,5.3,5.3,0,0,0,.16,1.32l-1.18-1C-1,6.9,3.05,1.56,3.23,1.34L2.71.93,2.2.53A8.62,8.62,0,0,0,3.93,12.74c1.62,1.36,3,2.4,4.17,3.26h0l1.23.89c.67.48,1.25.9,1.76,1.29A5.7,5.7,0,0,0,7.84,21a4.41,4.41,0,0,0,.61,4.71,3.68,3.68,0,0,0,2.85,1.35,3.94,3.94,0,0,0,2-.55c1.42-.81,2.69-2.78,1.63-5.61a6.69,6.69,0,0,0-1.15-2,15.06,15.06,0,0,1,3.1,0,6.69,6.69,0,0,0-1.15,2c-1.06,2.83.21,4.79,1.62,5.6a4,4,0,0,0,2,.55,3.67,3.67,0,0,0,2.85-1.34A4.37,4.37,0,0,0,22.8,21a5.69,5.69,0,0,0-3.28-2.81c.51-.39,1.09-.81,1.77-1.29L22.51,16h0c1.18-.86,2.56-1.9,4.2-3.27A8.62,8.62,0,0,0,28.44.53ZM12.64,25.38a2.47,2.47,0,0,1-3.18-.51A3.08,3.08,0,0,1,9,21.55a4.82,4.82,0,0,1,3.25-2.38,5.79,5.79,0,0,1,1.43,2.17C14.48,23.42,13.66,24.79,12.64,25.38Zm9-3.82a3.11,3.11,0,0,1-.44,3.31,2.49,2.49,0,0,1-3.2.5c-1-.59-1.82-2-1-4a5.79,5.79,0,0,1,1.43-2.17A4.8,4.8,0,0,1,21.63,21.56Z"/></g></g></svg>