<svg xmlns="http://www.w3.org/2000/svg" viewBox="0 0 97 49.24"><defs><style>.cls-1{fill:#b5b5b5;}</style></defs><title>Asset 78</title><g id="Layer_2" data-name="Layer 2"><g id="Layer_1-2" data-name="Layer 1"><polygon class="cls-1" points="55.86 0 48.15 7.95 48.15 7.98 55.86 15.93 48.15 23.88 48.15 23.9 55.86 31.85 71.28 15.93 55.86 0"/><polygon class="cls-1" points="40.44 0 25.01 15.93 40.44 31.85 48.13 23.9 48.13 23.88 40.44 15.93 48.13 7.98 48.13 7.95 40.44 0"/><path class="cls-1" d="M2,49V42.12H0V40H6.3v2.14h-2V49Zm5.5,0V40h5.35v2h-3v1.56h2.86v1.94H9.78V47h3v2Zm13.25-8.67V43a3.53,3.53,0,0,0-1-.82,2.21,2.21,0,0,0-2.7.46,2.71,2.71,0,0,0-.64,1.88,2.61,2.61,0,0,0,.65,1.81,2.14,2.14,0,0,0,1.65.71,2.2,2.2,0,0,0,1-.26,3.58,3.58,0,0,0,1-.83v2.69a5.72,5.72,0,0,1-1.12.43,4.87,4.87,0,0,1-1.14.14,4.58,4.58,0,0,1-1.32-.18A3.81,3.81,0,0,1,16,48.51a4.36,4.36,0,0,1-1.49-1.7A5,5,0,0,1,14,44.49a5.19,5.19,0,0,1,.33-1.88,4.49,4.49,0,0,1,1-1.53,4.08,4.08,0,0,1,1.4-1,4.79,4.79,0,0,1,2.87-.18,5.11,5.11,0,0,1,1.12.42M22.06,49V40h2.38v3.51h3.17V40H30v9H27.61V45.33H24.44V49Zm16.12-8.67V43a3.39,3.39,0,0,0-1-.82,2.21,2.21,0,0,0-2.7.46,2.71,2.71,0,0,0-.64,1.88,2.61,2.61,0,0,0,.65,1.81,2.14,2.14,0,0,0,1.65.71,2.2,2.2,0,0,0,1-.26,3.44,3.44,0,0,0,1-.83v2.69a5.72,5.72,0,0,1-1.12.43,4.87,4.87,0,0,1-1.14.14,4.68,4.68,0,0,1-1.32-.18,3.81,3.81,0,0,1-1.11-.54A4.36,4.36,0,0,1,32,46.81a5.47,5.47,0,0,1-.19-4.2,4.49,4.49,0,0,1,1-1.53,4.17,4.17,0,0,1,1.4-1,4.79,4.79,0,0,1,2.87-.18,5.11,5.11,0,0,1,1.12.42M48.5,44.51a4.76,4.76,0,0,1-.35,1.82,4.71,4.71,0,0,1-2.54,2.55,4.53,4.53,0,0,1-1.78.36,4.6,4.6,0,0,1-3.3-1.39,4.52,4.52,0,0,1-1-1.52,4.91,4.91,0,0,1,0-3.64,4.56,4.56,0,0,1,1-1.53,4.69,4.69,0,0,1,1.51-1,4.67,4.67,0,0,1,5.1,1,4.85,4.85,0,0,1,1,1.53,4.8,4.8,0,0,1,.35,1.82m-4.67,2.65a2.07,2.07,0,0,0,1.64-.75,2.84,2.84,0,0,0,.65-1.9,2.8,2.8,0,0,0-.66-1.9,2.16,2.16,0,0,0-3.27,0,3.16,3.16,0,0,0,0,3.8,2.08,2.08,0,0,0,1.65.75M60,49H57.78l-.51-3.9c0-.27-.07-.58-.1-.92s-.06-.7-.08-1.1a13,13,0,0,1-.33,1.43,1.75,1.75,0,0,0-.07.26L55.5,49H53.91l-1.19-4.23c0-.06,0-.14-.07-.26a9.78,9.78,0,0,1-.33-1.42c0,.34,0,.67-.08,1s-.07.67-.11,1L51.61,49H49.4l1.35-9H53.1l1.32,4.65,0,.16a6.32,6.32,0,0,1,.23,1.07q0-.24.09-.54c.05-.19.1-.43.18-.7L56.3,40h2.36Z"/><path class="cls-1" d="M63.49,43.6H64a2.41,2.41,0,0,0,1.21-.21.74.74,0,0,0,.34-.69.77.77,0,0,0-.32-.71A2.29,2.29,0,0,0,64,41.78h-.51ZM61.28,49V40h2.39a13.83,13.83,0,0,1,2.07.1,2.93,2.93,0,0,1,1,.34,1.88,1.88,0,0,1,.74.74,2.21,2.21,0,0,1,.25,1.08,1.85,1.85,0,0,1-.37,1.22,2.47,2.47,0,0,1-1.21.69,2.05,2.05,0,0,1,1.45.67,2.37,2.37,0,0,1,.53,1.61,2.62,2.62,0,0,1-.3,1.27,2.08,2.08,0,0,1-.84.85,3.54,3.54,0,0,1-1.11.35,15.41,15.41,0,0,1-2.15.1Zm2.21-1.84h.83a2.33,2.33,0,0,0,1.2-.22.77.77,0,0,0,.35-.73.89.89,0,0,0-.32-.79,2.2,2.2,0,0,0-1.19-.23h-.87Zm8.39-1.53h2.37l-.89-3c0-.1-.06-.24-.11-.44l-.19-.78-.15.64-.15.58ZM68.54,49l3-9h3l3,9H75.19l-.44-1.61H71.37L70.91,49Zm9.86,0V40h2.3L84,44.63c.06.1.17.28.32.57s.3.63.47,1c-.05-.37-.08-.71-.1-1s0-.55,0-.77V40h2.28v9H84.66l-3.31-4.66c-.06-.09-.17-.28-.32-.56s-.3-.62-.47-1c0,.38.08.71.11,1s0,.55,0,.78V49Zm10.42,0V40h2.35v4.1L93.94,40h2.78l-3.23,4.4L97,49H94l-2.85-4v4Z"/></g></g></svg>