<svg xmlns="http://www.w3.org/2000/svg" viewBox="0 0 128.52 25.65"><defs><style>.cls-1{fill:#b5b5b5;}</style></defs><title>Asset 64</title><g id="Layer_2" data-name="Layer 2"><g id="Layer_1-2" data-name="Layer 1"><path class="cls-1" d="M69.58,13.11a16.48,16.48,0,0,0-7.3,1.23,22.18,22.18,0,0,0-6.23,3.54c0-.06,0-.12,0-.19-.07-.81-.16-1.62-.26-2.43a.77.77,0,0,0,0-.15c.6-.86,1.11-2,.27-2.22-1-.31-1.53,1.18-1.47,1.9,0,.15,0,.3,0,.45l-.15.16c-.31.3-1.15.91-1.64.64-.67-.37,0-1.21.52-1.69l.2-.18c.59-.57-.23-.94-.72-.48l-.3.29c-.94.92-2.45,2.38-3.76,1.77C48,15.41,47.59,14.6,47,14.07c-.77-.67-1.39-.53-1.85-.05-.19-.39-.59-.54-1.35-.13s-2.14,2.4-2.81,1.67a2.4,2.4,0,0,1-.27-1.46c0-.65-1-.29-1.09.13-.19.62-.5,1.59-1.25,1.72-.53.09-.74-.11-.51-.55a3.14,3.14,0,0,1,.92-1c.35-.25.64-.47.82-.62.54-.45-.08-1-.58-.59l-.91.69a18.3,18.3,0,0,1-2.82,1.67c-.69.32-2.39.88-2.77-.21-.13-.36.15-.75-.11-1.11s-.75-.31-1.12-.3-.85.11-1.27.13a2.29,2.29,0,0,1-.55,0,1.06,1.06,0,0,0,.06-.34c.05-.73-.64-.94-1.26-.81a.93.93,0,0,0-.58,1.58,1.22,1.22,0,0,0,.27.24,5.87,5.87,0,0,1-.48.58c-.64.68-1.25,1.09-2,.39a4.83,4.83,0,0,1-1.09-1.87,11.45,11.45,0,0,1-.43-5.66,27.3,27.3,0,0,1,.88-3.92L27.11,4c1.75-.17,3.5-.29,5.26-.33.92,0,1.85,0,2.76,0l1.1,0a3.23,3.23,0,0,0,.62,0h.07c-.09.35.52.74,1,.51,1.07-.53.6-1.35-.38-1.47a34.52,34.52,0,0,0-4.77-.16,74.67,74.67,0,0,0-7.61.55A20.22,20.22,0,0,1,26.37.42c.36-.65-.8-.45-1.05,0A23.36,23.36,0,0,0,24,3.33l-2,.29A154.49,154.49,0,0,0,4.06,7.48C2.83,7.82,1.6,8.16.39,8.54c-.78.24-.26,1.14.43.92A134.85,134.85,0,0,1,23.66,4.38a22.3,22.3,0,0,0-1,5.55c-.1,2,.61,8.07,3.93,7A5.63,5.63,0,0,0,29,15.05h.46c.48,0,1-.18,1.47-.14s.41.11.49.63c.33,2.34,2.94,1.5,5.17.27a.85.85,0,0,0,.17.73,1.75,1.75,0,0,0,1.85.24,2.82,2.82,0,0,0,1.23-.85,1.18,1.18,0,0,0,1.12.85c1.11,0,1.93-1.13,2.69-1.75.41-.34.61-.67.61,0s0,1.06-.07,1.59c0,.69,1.08.26,1.12-.24a7.52,7.52,0,0,1,.15-1c.15-.6.12-.93.64-.55S47,16,47.62,16.45c1.2.81,2.55.34,3.73-.45a1,1,0,0,0,.24.67c.74.88,2.28.2,3.1-.4.1.87.21,1.74.28,2.62a8.75,8.75,0,0,0-2.17,3.54,2.94,2.94,0,0,0,.32,2.8,1.39,1.39,0,0,0,1.85.13,3.67,3.67,0,0,0,1.17-2.8,20.81,20.81,0,0,0,0-3.53A19.75,19.75,0,0,1,58,17.59c3.09-2.2,7.31-3.93,11.2-3.51C69.71,14.14,70.34,13.19,69.58,13.11ZM54.74,24.26c-.52,1.18-1-.65-1-1.18a5.24,5.24,0,0,1,1.33-2.94A9.09,9.09,0,0,1,54.74,24.26Z"/><path class="cls-1" d="M127.91,11.25c-6.12,1.05-12.43,2.41-18,5.28a26.76,26.76,0,0,0-2.63,1.54c-.07-.63-.14-1.23-.18-1.81,0-.31-.06-.63-.07-1l.32-.29c.45-.45,1.33-1.6.44-2.07-.71-.38-1.52.28-1.8.9a3.1,3.1,0,0,0-.22,1.15c-.76.34-2.25.62-2-.39a1.52,1.52,0,0,1,.57-.71l.39-.3c.61-.45-.5-.82-.93-.5l-.25.19c-1.16.9-3.22,2.57-4.68,2.08-.7-.24-1-1-1.45-1.51a1.68,1.68,0,0,0-2.66.14.69.69,0,0,0-.26-.68.81.81,0,0,0-.87.09,4.36,4.36,0,0,0-.48.65c-.28.38-1.42,1.7-2,1.63s-.5-.91-.39-1.48-.79-.56-1.07-.3-2.52,2.54-3,1c-.13-.43.52-1.16.79-1.44.52-.54-.42-.77-.82-.58l-1,.46L86,13c1.3-1.69,2.29-3.85,1.74-6C86.75,2.88,81.71,1,78,.37a24,24,0,0,0-9.17.15A14.83,14.83,0,0,0,61.55,3.9c-1.29,1.25-2.4,3.68-.66,5.09,1.14.92,3,.72,4.3.29.78-.25.24-1-.41-.78a3.54,3.54,0,0,1-2.82,0c-1.52-1-.42-3.14.53-4.07C65.94,1,72.05.46,76.57,1c3.23.4,7.14,1.6,9.14,4.36,2.43,3.35-.19,7-2.77,9.39l-.39.21A7.22,7.22,0,0,0,81,16c-.46.44-.43,1,.29,1.05.52.05.87-.31,1.26-.62s.87-.72,1.29-1.09c.59-.32,1.19-.62,1.78-.92A1.11,1.11,0,0,0,86,15.83c1.22.88,2.47.35,3.52-.44a1.29,1.29,0,0,0,.94,1.19,2.93,2.93,0,0,0,2.22-.7,6.93,6.93,0,0,0,.84-.68v1.2c0,.53,1.13.44,1.23,0,.13-.62.71-2.53,1.53-2.12.5.24.8,1.12,1.26,1.48,1.46,1.12,3.35.41,5-.58.21.65,1.13.93,1.74,1a3.72,3.72,0,0,0,1.59-.18c0,.29.06.58.08.84.06.73.13,1.45.18,2.17A8.49,8.49,0,0,0,103.68,22c-.47,1.07-.62,2.7.57,3.38A2.06,2.06,0,0,0,107.09,24a10.69,10.69,0,0,0,.32-4.84c.19-.15.38-.29.56-.41a28,28,0,0,1,7.2-3.53A78.59,78.59,0,0,1,128,12.09C128.74,12,128.67,11.12,127.91,11.25ZM81.8,16.62s0,0,0,0S81.84,16.63,81.8,16.62Zm11.7-2.76s0,0,0,0ZM106.18,21a6.81,6.81,0,0,1-.35,3,1.85,1.85,0,0,1-.47.65c-.09.09-.15.08-.16.08a.68.68,0,0,1-.34-.24,1.94,1.94,0,0,1-.26-.6c-.3-1.32.54-2.6,1.55-3.63C106.17,20.55,106.18,20.79,106.18,21Z"/><path class="cls-1" d="M76.86,4.78V16.47c0,.67,1.14.89,1.14.1V4.89C78,4.22,76.86,4,76.86,4.78Z"/><path class="cls-1" d="M38.48,22.22l0-.8.35,0h.7l.35,0a2.63,2.63,0,0,1,.49,0,1.2,1.2,0,0,1,.4.16.89.89,0,0,1,.28.3,1.09,1.09,0,0,1,0,1,1.35,1.35,0,0,1-.32.35,1.77,1.77,0,0,1-.41.21,1.79,1.79,0,0,1-.4.1l.21.26.28.37.34.41q.16.22.33.42c.1.13.2.26.3.37l.22.25-.18,0H41l-.18,0c-.06-.09-.15-.22-.28-.39s-.26-.36-.41-.55-.31-.39-.47-.59a5.75,5.75,0,0,0-.43-.49H39v.45c0,.27,0,.53,0,.79s0,.52,0,.78l-.3,0-.3,0,0-.78c0-.26,0-.52,0-.79V23C38.5,22.74,38.49,22.48,38.48,22.22Zm.71,1.17h.22a1.87,1.87,0,0,0,.4,0,1.2,1.2,0,0,0,.37-.15.81.81,0,0,0,.4-.75.75.75,0,0,0-.09-.39.62.62,0,0,0-.23-.25,1,1,0,0,0-.3-.13,1.84,1.84,0,0,0-.33,0h-.35l-.24,0,0,.67c0,.22,0,.44,0,.66v.35Z"/><path class="cls-1" d="M46.55,21.74h-.34l-.35,0-.33,0-.29,0a.75.75,0,0,0,0-.2.89.89,0,0,0,0-.19l.79,0h1.58l.79,0a.88.88,0,0,0,0,.2.74.74,0,0,0,0,.19l-.29,0-.34,0-.35,0h-.33c0,.42,0,.85,0,1.27v1.06c0,.27,0,.53,0,.79s0,.52,0,.78l-.3,0-.3,0,0-.78c0-.26,0-.52,0-.79V23C46.57,22.59,46.56,22.16,46.55,21.74Z"/><path class="cls-1" d="M35.09,25.65h-.64c0-.1-.07-.21-.12-.34s-.1-.27-.16-.41L34,24.47c-.06-.15-.11-.29-.17-.42H32.29l-.35.89c-.1.29-.18.52-.23.71h-.45c.33-.71.65-1.41,1-2.11s.62-1.4.93-2.12h.12c.09.23.2.48.31.76s.23.54.35.82.23.55.35.83.22.53.33.76l.27.63C35,25.41,35,25.55,35.09,25.65Zm-2.68-1.88h1.33l-.67-1.54Z"/><path class="cls-1" d="M62.09,23.09c.28.54.58,1.09.89,1.66,0-.08.09-.19.17-.33l.27-.49.32-.6.35-.65c.12-.22.23-.44.35-.65l.33-.6h.07c0,.38.09.76.13,1.12l.12,1.06.12,1c0,.34.08.67.13,1h-.57c0-.54-.09-1-.13-1.56s-.1-1-.16-1.53h0l-.81,1.51c-.27.5-.52,1-.76,1.57h-.06q-.36-.77-.75-1.53c-.27-.5-.53-1-.8-1.55h0q0,.38-.09.81c0,.29-.07.58-.1.86s0,.55-.07.8,0,.46,0,.62h-.42c0-.33.11-.67.16-1s.11-.73.17-1.09.1-.73.14-1.09.08-.69.11-1h.11C61.52,22,61.8,22.55,62.09,23.09Z"/><path class="cls-1" d="M71.17,25.65h-.64c0-.09-.07-.21-.12-.34s-.1-.26-.16-.41-.11-.28-.17-.43l-.17-.42H68.38c-.13.31-.24.61-.35.9s-.18.51-.23.7h-.45c.33-.71.65-1.4,1-2.1s.63-1.4.94-2.12h.11l.32.76L70,23c.12.28.23.55.35.82l.33.77c.1.23.19.44.28.63A4.34,4.34,0,0,0,71.17,25.65ZM68.5,23.77h1.32l-.67-1.53Z"/><path class="cls-1" d="M73.83,24.87c0-.26,0-.52,0-.79V23c0-.27,0-.54,0-.8s0-.52,0-.79l.16,0h.29l.16,0c0,.27,0,.53,0,.79s0,.53,0,.8v.34s0,.05,0,.05.05,0,.09-.06.29-.26.45-.42l.48-.48.47-.51.45-.51.13,0h.27l.14,0-.48.44q-.27.24-.54.51l-.53.52-.41.45,1,1.13,1,1.17h-.7l-.49-.58-.52-.63c-.17-.2-.33-.38-.46-.55l-.31-.34-.07-.05s0,0,0,0v.54c0,.27,0,.53,0,.79s0,.52,0,.78h-.61C73.81,25.39,73.82,25.14,73.83,24.87Z"/><path class="cls-1" d="M79.75,22.21c0-.26,0-.52,0-.78l.55,0h1.1l.55,0a.55.55,0,0,0,0,.18.62.62,0,0,0,0,.19l-.36,0-.35,0-.39,0h-.52c0,.13,0,.25,0,.37v1.22h.88l.33,0,.28,0a1.15,1.15,0,0,0,0,.19,1.09,1.09,0,0,0,0,.18l-.37,0-.42,0h-.7V25a3.23,3.23,0,0,0,0,.35h.89l.42,0,.35,0a.29.29,0,0,0,0,.09v.1a.39.39,0,0,0,0,.16H79.71c0-.26,0-.53,0-.79s0-.52,0-.79V23C79.76,22.74,79.76,22.48,79.75,22.21Z"/><path class="cls-1" d="M93.14,22.06a6,6,0,0,0,0-.64l.13,0h.12l.18,0q0,.21,0,.51a6.05,6.05,0,0,0,0,.63l0,.68c0,.24,0,.47,0,.69a2,2,0,0,1-.12.72,1.63,1.63,0,0,1-.33.54,1.5,1.5,0,0,1-.54.34,2,2,0,0,1-.72.12,1.81,1.81,0,0,1-1.32-.41,1.81,1.81,0,0,1-.41-1.3c0-.19,0-.36,0-.5s0-.3,0-.45c0-.34,0-.64,0-.9s0-.49,0-.67l.16,0h.29l.13,0c0,.09,0,.21,0,.35s0,.31,0,.49,0,.37,0,.58v1.08c0,.14,0,.29,0,.43a2.52,2.52,0,0,0,.12.39,1.13,1.13,0,0,0,.23.34,1.27,1.27,0,0,0,.38.22,1.86,1.86,0,0,0,.57.08,1.34,1.34,0,0,0,.56-.1,1,1,0,0,0,.37-.25,1.11,1.11,0,0,0,.23-.36,2.09,2.09,0,0,0,.11-.43,3.44,3.44,0,0,0,0-.45V22.06Z"/><path class="cls-1" d="M95.88,22.22c0-.26,0-.53,0-.8l.3,0h1.29a1.45,1.45,0,0,1,.28,0,1.71,1.71,0,0,1,.3.09.8.8,0,0,1,.27.18.86.86,0,0,1,.19.29,1.1,1.1,0,0,1,.08.43,1.12,1.12,0,0,1-.18.66,1.23,1.23,0,0,1-.43.39,1.52,1.52,0,0,1-.54.19,2.43,2.43,0,0,1-.51.05h-.25l-.24,0v.34c0,.27,0,.54,0,.8s0,.52,0,.77h-.61c0-.25,0-.51,0-.77s0-.53,0-.8V23C95.89,22.74,95.89,22.48,95.88,22.22Zm1,1.3a1.87,1.87,0,0,0,.4,0,1.31,1.31,0,0,0,.37-.15.86.86,0,0,0,.27-.32A1.07,1.07,0,0,0,98,22.5a1,1,0,0,0-.07-.43.61.61,0,0,0-.21-.26.76.76,0,0,0-.32-.12,1.91,1.91,0,0,0-.43,0H96.4v1.83A2,2,0,0,0,96.83,23.52Z"/><circle class="cls-1" cx="85.92" cy="23.56" r="0.7"/></g></g></svg>