<svg xmlns="http://www.w3.org/2000/svg" xmlns:xlink="http://www.w3.org/1999/xlink" viewBox="0 0 400.01 70.47"><defs><style>.cls-1{fill:url(#linear-gradient);}.cls-2{fill:url(#linear-gradient-2);}.cls-3{fill:url(#linear-gradient-3);}.cls-4{fill:url(#linear-gradient-4);}.cls-5{fill:url(#linear-gradient-5);}</style><linearGradient id="linear-gradient" x1="38.79" y1="36.47" x2="509.85" y2="-30.94" gradientUnits="userSpaceOnUse"><stop offset="0" stop-color="#f26a65"/><stop offset="1" stop-color="#4e5496"/></linearGradient><linearGradient id="linear-gradient-2" x1="40.42" y1="47.9" x2="511.49" y2="-19.5" xlink:href="#linear-gradient"/><linearGradient id="linear-gradient-3" x1="42.06" y1="59.34" x2="513.12" y2="-8.07" xlink:href="#linear-gradient"/><linearGradient id="linear-gradient-4" x1="43.7" y1="70.77" x2="514.76" y2="3.37" xlink:href="#linear-gradient"/><linearGradient id="linear-gradient-5" x1="45.33" y1="82.21" x2="516.4" y2="14.8" xlink:href="#linear-gradient"/></defs><title>stars</title><g id="Layer_2" data-name="Layer 2"><g id="Layer_1-2" data-name="Layer 1"><path class="cls-1" d="M16.94,70.26l18.9-7.45a2.88,2.88,0,0,1,2.12,0l18.9,7.45A2.88,2.88,0,0,0,60.8,67.4L59.55,47.12a2.88,2.88,0,0,1,.66-2L73.13,29.43a2.88,2.88,0,0,0-1.5-4.63L52,19.72a2.89,2.89,0,0,1-1.71-1.25L39.33,1.34a2.88,2.88,0,0,0-4.87,0L23.55,18.47a2.92,2.92,0,0,1-1.71,1.25L2.17,24.8A2.89,2.89,0,0,0,.66,29.43L13.59,45.11a2.87,2.87,0,0,1,.65,2L13,67.4A2.88,2.88,0,0,0,16.94,70.26Z"/><path class="cls-2" d="M98.49,70.26l18.9-7.45a2.88,2.88,0,0,1,2.12,0l18.9,7.45a2.88,2.88,0,0,0,3.94-2.86l-1.24-20.28a2.87,2.87,0,0,1,.65-2l12.93-15.68a2.89,2.89,0,0,0-1.51-4.63l-19.67-5.08a2.89,2.89,0,0,1-1.71-1.25L120.89,1.34a2.89,2.89,0,0,0-4.88,0L105.1,18.47a2.89,2.89,0,0,1-1.71,1.25L83.72,24.8a2.88,2.88,0,0,0-1.5,4.63L95.14,45.11a2.82,2.82,0,0,1,.65,2L94.55,67.4A2.88,2.88,0,0,0,98.49,70.26Z"/><path class="cls-3" d="M180,70.26l18.9-7.45a2.88,2.88,0,0,1,2.12,0L220,70.26a2.88,2.88,0,0,0,3.94-2.86l-1.24-20.28a2.92,2.92,0,0,1,.65-2l12.93-15.68a2.89,2.89,0,0,0-1.51-4.63l-19.67-5.08a2.92,2.92,0,0,1-1.71-1.25L202.44,1.34a2.88,2.88,0,0,0-4.87,0L186.66,18.47a2.94,2.94,0,0,1-1.72,1.25L165.27,24.8a2.88,2.88,0,0,0-1.5,4.63l12.92,15.68a2.88,2.88,0,0,1,.66,2L176.1,67.4A2.88,2.88,0,0,0,180,70.26Z"/><path class="cls-4" d="M261.6,70.26l18.9-7.45a2.88,2.88,0,0,1,2.12,0l18.9,7.45a2.88,2.88,0,0,0,3.94-2.86l-1.25-20.28a2.88,2.88,0,0,1,.66-2l12.92-15.68a2.88,2.88,0,0,0-1.5-4.63l-19.67-5.08a2.94,2.94,0,0,1-1.72-1.25L284,1.34a2.88,2.88,0,0,0-4.87,0L268.21,18.47a2.92,2.92,0,0,1-1.71,1.25L246.83,24.8a2.89,2.89,0,0,0-1.51,4.63l12.93,15.68a2.87,2.87,0,0,1,.65,2L257.66,67.4A2.88,2.88,0,0,0,261.6,70.26Z"/><path class="cls-5" d="M343.15,70.26l18.9-7.45a2.88,2.88,0,0,1,2.12,0l18.9,7.45A2.88,2.88,0,0,0,387,67.4l-1.24-20.28a2.87,2.87,0,0,1,.65-2l12.93-15.68a2.89,2.89,0,0,0-1.51-4.63l-19.67-5.08a2.89,2.89,0,0,1-1.71-1.25L365.55,1.34a2.89,2.89,0,0,0-4.88,0L349.76,18.47a2.89,2.89,0,0,1-1.71,1.25L328.38,24.8a2.89,2.89,0,0,0-1.51,4.63L339.8,45.11a2.82,2.82,0,0,1,.65,2L339.21,67.4A2.88,2.88,0,0,0,343.15,70.26Z"/></g></g></svg>