<svg xmlns="http://www.w3.org/2000/svg" viewBox="0 0 93.24 32.94"><defs><style>.cls-1{fill:#b5b5b5;}</style></defs><title>Asset 62</title><g id="Layer_2" data-name="Layer 2"><g id="Layer_1-2" data-name="Layer 1"><path class="cls-1" d="M41.84,26.25v-12l5.82-2.08V26.25Z"/><path class="cls-1" d="M55.22,26.25V7.68h5.13L64,13.51l3.59-5.83h5.14V26.25H66.93V14.32l-3,4.25-3-4.28v12Z"/><path class="cls-1" d="M20.27,26.25V7.68h4.09l4.95,8.18V7.68h5.74V26.25H29.31V22.47L26,17.83v8.42Z"/><path class="cls-1" d="M79.32,26.25V11.09l4-3.41h9.91V22.84l-4,3.41Zm5.74-5.09H87.5V12.4H85.06Z"/><path class="cls-1" d="M0,26.21V13.81L5,7.64h8.91V26.21H8.18V19H5.74v7.19ZM8.18,16V11.47l-2.44,3.2V16Z"/><path class="cls-1" d="M1.07,32.72a1.55,1.55,0,0,1-.57-.64,2.19,2.19,0,0,1-.2-1h0a2.19,2.19,0,0,1,.2-1,1.51,1.51,0,0,1,.57-.63,1.61,1.61,0,0,1,.87-.22,1.63,1.63,0,0,1,.7.15,1.36,1.36,0,0,1,.51.41,1.33,1.33,0,0,1,.26.61v0H2.87l0-.05a1,1,0,0,0-.18-.36.9.9,0,0,0-.31-.23,1.12,1.12,0,0,0-.42-.08,1,1,0,0,0-.57.17,1,1,0,0,0-.37.46,1.68,1.68,0,0,0-.14.7h0a1.68,1.68,0,0,0,.14.7,1,1,0,0,0,.37.47,1,1,0,0,0,.57.16.91.91,0,0,0,.41-.08.82.82,0,0,0,.32-.23,1,1,0,0,0,.19-.38v0h.54v0a1.33,1.33,0,0,1-.26.62,1.29,1.29,0,0,1-.51.41,1.6,1.6,0,0,1-.7.15A1.73,1.73,0,0,1,1.07,32.72Z"/><path class="cls-1" d="M5.76,29.36H7.13a1.35,1.35,0,0,1,.62.13,1,1,0,0,1,.41.37,1.16,1.16,0,0,1,.14.58h0a1.11,1.11,0,0,1-.18.63,1,1,0,0,1-.5.37l.79,1.44H7.77l-.71-1.35H6.3v1.35H5.76Zm1.31,1.72a.68.68,0,0,0,.49-.17.58.58,0,0,0,.17-.46h0A.6.6,0,0,0,7.55,30a.69.69,0,0,0-.49-.16H6.3v1.26Z"/><path class="cls-1" d="M11.53,31.44l-1.24-2.08h.6l.91,1.55h0l.9-1.55h.61l-1.24,2.08v1.44h-.55Z"/><path class="cls-1" d="M15.56,29.36h.54v3.52h-.54Zm.27,1.86h.9a.74.74,0,0,0,.55-.19.66.66,0,0,0,.2-.51h0a.69.69,0,0,0-.2-.52.78.78,0,0,0-.55-.18h-.9v-.46h1a1.34,1.34,0,0,1,.61.14,1.08,1.08,0,0,1,.41.41,1.16,1.16,0,0,1,.15.6h0a1.16,1.16,0,0,1-.15.6,1.08,1.08,0,0,1-.41.41,1.23,1.23,0,0,1-.61.15h-1Z"/><path class="cls-1" d="M21.24,29.83H20.16v-.47h2.7v.47H21.79v3.05h-.55Z"/><path class="cls-1" d="M25.59,32.72a1.45,1.45,0,0,1-.57-.63,2.27,2.27,0,0,1-.2-1h0a2.19,2.19,0,0,1,.2-1,1.58,1.58,0,0,1,.57-.63,1.87,1.87,0,0,1,1.76,0,1.45,1.45,0,0,1,.57.63,2.19,2.19,0,0,1,.2,1h0a2.27,2.27,0,0,1-.2,1,1.45,1.45,0,0,1-.57.63,1.87,1.87,0,0,1-1.76,0Zm1.46-.43a1,1,0,0,0,.38-.47,1.68,1.68,0,0,0,.13-.7h0a1.68,1.68,0,0,0-.13-.7,1.09,1.09,0,0,0-.38-.46,1,1,0,0,0-.58-.17,1,1,0,0,0-.58.17,1,1,0,0,0-.38.46,1.65,1.65,0,0,0-.13.7h0a1.73,1.73,0,0,0,.13.71,1.09,1.09,0,0,0,.38.46,1,1,0,0,0,.58.16A1,1,0,0,0,27.05,32.29Z"/><path class="cls-1" d="M31.13,32.72a1.55,1.55,0,0,1-.57-.64,2.19,2.19,0,0,1-.2-1h0a2.19,2.19,0,0,1,.2-1,1.58,1.58,0,0,1,.57-.63A1.63,1.63,0,0,1,32,29.3a1.6,1.6,0,0,1,.7.15,1.29,1.29,0,0,1,.51.41,1.33,1.33,0,0,1,.26.61v0h-.54l0-.05a.87.87,0,0,0-.18-.36.9.9,0,0,0-.31-.23,1.08,1.08,0,0,0-.42-.08,1,1,0,0,0-.57.17,1.07,1.07,0,0,0-.37.46,1.68,1.68,0,0,0-.13.7h0a1.68,1.68,0,0,0,.13.7,1.1,1.1,0,0,0,.37.47,1.11,1.11,0,0,0,1,.08.87.87,0,0,0,.31-.23.91.91,0,0,0,.19-.38v0h.54v0a1.33,1.33,0,0,1-.26.62,1.29,1.29,0,0,1-.51.41,1.6,1.6,0,0,1-.7.15A1.75,1.75,0,0,1,31.13,32.72Z"/><path class="cls-1" d="M36.49,32.78a1.17,1.17,0,0,1-.5-.46,1.34,1.34,0,0,1-.17-.68V29.36h.55V31.6a.84.84,0,0,0,.23.62,1,1,0,0,0,1.3,0,.87.87,0,0,0,.22-.62V29.36h.55v2.28a1.27,1.27,0,0,1-.17.68,1.13,1.13,0,0,1-.49.45,1.64,1.64,0,0,1-.76.17A1.74,1.74,0,0,1,36.49,32.78Z"/><path class="cls-1" d="M41.17,29.36h1.37a1.35,1.35,0,0,1,.62.13,1,1,0,0,1,.41.37,1.16,1.16,0,0,1,.14.58h0a1.11,1.11,0,0,1-.18.63.94.94,0,0,1-.5.37l.79,1.44h-.63l-.72-1.35h-.75v1.35h-.55Zm1.31,1.72a.68.68,0,0,0,.49-.17.59.59,0,0,0,.18-.46h0A.58.58,0,0,0,43,30a.69.69,0,0,0-.49-.16h-.75v1.26Z"/><path class="cls-1" d="M46.09,29.36h1.37a1.32,1.32,0,0,1,.62.13,1,1,0,0,1,.41.37,1.16,1.16,0,0,1,.14.58h0a1.11,1.11,0,0,1-.18.63.94.94,0,0,1-.5.37l.79,1.44h-.63l-.72-1.35h-.75v1.35h-.55Zm1.31,1.72a.68.68,0,0,0,.49-.17.59.59,0,0,0,.18-.46h0a.58.58,0,0,0-.19-.46.69.69,0,0,0-.49-.16h-.75v1.26Z"/><path class="cls-1" d="M51,29.36h2.23v.47H51.56v1h1.59v.45H51.56v1.1h1.68v.47H51Z"/><path class="cls-1" d="M55.66,29.36h.5l2.17,3.11L57.75,32H58v-2.6h.54v3.52H58l-2.17-3.12.58.51H56.2v2.61h-.54Z"/><path class="cls-1" d="M61.67,32.72a1.55,1.55,0,0,1-.57-.64,2.19,2.19,0,0,1-.2-1h0a2.19,2.19,0,0,1,.2-1,1.58,1.58,0,0,1,.57-.63,1.61,1.61,0,0,1,.87-.22,1.63,1.63,0,0,1,.7.15,1.36,1.36,0,0,1,.51.41,1.33,1.33,0,0,1,.26.61v0h-.54l0-.05a1,1,0,0,0-.18-.36.9.9,0,0,0-.31-.23,1.08,1.08,0,0,0-.42-.08A1,1,0,0,0,62,30a1,1,0,0,0-.37.46,1.68,1.68,0,0,0-.14.7h0a1.68,1.68,0,0,0,.14.7,1,1,0,0,0,.37.47,1,1,0,0,0,.57.16.91.91,0,0,0,.41-.08.82.82,0,0,0,.32-.23,1,1,0,0,0,.19-.38v0H64v0a1.33,1.33,0,0,1-.26.62,1.29,1.29,0,0,1-.51.41,1.6,1.6,0,0,1-.7.15A1.73,1.73,0,0,1,61.67,32.72Z"/><path class="cls-1" d="M67.2,31.44,66,29.36h.61l.9,1.55h0l.9-1.55H69l-1.24,2.08v1.44H67.2Z"/><path class="cls-1" d="M74.73,32.71a1.52,1.52,0,0,1-.57-.63,2.25,2.25,0,0,1-.2-1h0a2.19,2.19,0,0,1,.2-1,1.43,1.43,0,0,1,.57-.62,1.66,1.66,0,0,1,.87-.22,1.81,1.81,0,0,1,.72.14,1.41,1.41,0,0,1,.5.4,1.5,1.5,0,0,1,.27.57v0h-.57v0a.94.94,0,0,0-.34-.48,1,1,0,0,0-.58-.17,1.09,1.09,0,0,0-.58.16,1,1,0,0,0-.37.45,1.7,1.7,0,0,0-.13.71h0a1.93,1.93,0,0,0,.13.72,1.06,1.06,0,0,0,.38.47,1,1,0,0,0,.58.16,1.12,1.12,0,0,0,.5-.11.79.79,0,0,0,.34-.31.83.83,0,0,0,.13-.47V31.5h-.91v-.45h1.45v.36a1.74,1.74,0,0,1-.18.82,1.26,1.26,0,0,1-.52.53,1.71,1.71,0,0,1-.82.18A1.66,1.66,0,0,1,74.73,32.71Z"/><path class="cls-1" d="M80.48,29.36h.59l1.27,3.52h-.57l-1-2.94h0l-1,2.94h-.57Zm-.59,2.13h1.76v.44H79.89Z"/><path class="cls-1" d="M84.58,29.36h.63l1.14,2.81h0l1.14-2.81h.63v3.52h-.5v-2.6h-.25l.57-.83-1.4,3.43h-.4l-1.4-3.43.57.83h-.25v2.6h-.5Z"/><path class="cls-1" d="M90.64,29.36h2.24v.47H91.19v1h1.6v.45h-1.6v1.1h1.69v.47H90.64Z"/><path class="cls-1" d="M50.38,7.37V7.3s0,0,0,0h0l-2-5.71a.22.22,0,0,0-.12-.13.13.13,0,0,0-.08,0L45.09,0h-.18L39.15,2.08h0a.19.19,0,0,0-.12.1h0l-.93,2h0v0a0,0,0,0,1,0,0v0a0,0,0,0,0,0,0h0v0h0l2.06,5.74h0s0,0,0,0h0l0,0h0v0h0l3.06,1.4.09,0h.06l.07,0,6-2.14,0,0h0l0,0h0l0,0h0l.73-2v0h0ZM49.3,9,46.6,7.78l.57-1.53,2.7,1.22Zm-10-6.4L42,3.83l-.74,1.58L38.61,4.19ZM44.85.52l.65,1.8L42.33,3.47l-2.5-1.14Zm.54.14,2.09,1-1.55.55Zm.75,7.07L42.81,8.92,41.66,5.71l.84-1.82,3.16-1.14L46.8,5.94Zm-4.9-1.84,1.14,3.18-1.88.68-1.8-5Zm1.3,3.61L43.08,11l-2.11-1ZM43,9.35l3.33-1.2,2.52,1.14-5.21,1.86Zm6.79-2.43L47.23,5.78,46.09,2.6,48,1.93Z"/></g></g></svg>