<svg xmlns="http://www.w3.org/2000/svg" viewBox="0 0 92.8 40.47"><defs><style>.cls-1{fill:#9d9d9d;}</style></defs><title>Asset 61</title><g id="Layer_2" data-name="Layer 2"><g id="Layer_1-2" data-name="Layer 1"><path class="cls-1" d="M15.76,30.62c4.09-1.5,3.93-8.38,2.6-13.65s-4.53-4.36-5.79-3.92S9.13,15.48,8.9,15.18c-.07-1.7,1.92-4.23,4.64-11.55C15.69-2.15,9.8,1.56,6.2,10.08,3.5,16.47.49,27.81.49,27.81S0,30.92,1.82,31.27s2.89-1.68,3-2.72,2.45-9,2.45-9,4.74-5.12,6.67-4.82c3.11.48,2.33,8.56,1.33,11.2C14.16,28.75,11.19,32.3,15.76,30.62Z"/><path class="cls-1" d="M26.66,27.73a29.83,29.83,0,0,1,1.49-8.82c1.33-3.78,2.63-6.86,1.85-7a4.29,4.29,0,0,0-3.34,1.19c-.89.89-2.82,6.38-3.71,8.6s-2,9.2.75,9.27S26.66,28.62,26.66,27.73Z"/><path class="cls-1" d="M31.26,7.56c1.19-.15,1.93-2.44,2.22-3.26s-1.58-1.16-3-1c-.93.09-1.86,2-1.93,3.19S30.07,7.71,31.26,7.56Z"/><path class="cls-1" d="M92.43,0H39.56V31.88H92.43ZM63.1,8.33H57V27.76H53.33V8.33H47.25V5.17H63.1ZM85.25,5.47,77.83,25.08s-.81,3-3.42,3-3.42-3-3.43-3L63.45,5.14h3.94l7,18.19,7-18.19h3.95Z"/><path class="cls-1" d="M1.66,34.42H0v4.65H1.64A2.18,2.18,0,0,0,3.85,36.7,2.1,2.1,0,0,0,1.66,34.42Zm-.07,4.13h-1V34.94h1a1.59,1.59,0,0,1,1.62,1.77C3.21,37.76,2.69,38.55,1.59,38.55Z"/><path class="cls-1" d="M6.15,35.6a1.61,1.61,0,0,0-1.6,1.78,1.58,1.58,0,0,0,1.56,1.77A1.61,1.61,0,0,0,7.7,37.37,1.57,1.57,0,0,0,6.15,35.6Zm0,3.06c-.61,0-1-.54-1-1.29s.34-1.28,1-1.28,1,.52,1,1.29S6.75,38.66,6.13,38.66Z"/><path class="cls-1" d="M11.65,35.6c-1,0-1.54.8-1.54,1.81s.43,1.74,1.5,1.74a1.37,1.37,0,0,0,1.42-1h-.58a.8.8,0,0,1-.82.52c-.58,0-.92-.49-.93-1.18h2.39a2.53,2.53,0,0,0,0-.28A1.44,1.44,0,0,0,11.65,35.6Zm-.93,1.47c.06-.59.32-1,.92-1s.86.45.86,1Z"/><path class="cls-1" d="M15.12,38.52h0c-.11-.42-.44-1.45-.9-2.84H13.6l1.18,3.39h.64l1.25-3.39h-.59C15.57,37.13,15.21,38.15,15.12,38.52Z"/><path class="cls-1" d="M18.62,35.6c-1,0-1.54.8-1.54,1.81s.43,1.74,1.5,1.74a1.37,1.37,0,0,0,1.42-1h-.58a.8.8,0,0,1-.82.52c-.58,0-.92-.49-.93-1.18h2.39a2.53,2.53,0,0,0,0-.28A1.44,1.44,0,0,0,18.62,35.6Zm-.93,1.47c.06-.59.32-1,.92-1s.86.45.87,1Z"/><path class="cls-1" d="M21.5,36.37c0-.33,0-.6,0-.69h-.58c0,.18,0,.45,0,.92v2.47h.58V37.42a1.08,1.08,0,0,1,1.15-1.24V35.6A1.21,1.21,0,0,0,21.5,36.37Z"/><path class="cls-1" d="M24.72,38.55h0c-.09-.35-.39-1.25-.94-2.87h-.63l1.27,3.52c-.2.56-.37.75-.79.75h-.28v.5l.36,0c.69,0,.95-.25,1.29-1.25l1.22-3.54h-.59C25.07,37.39,24.83,38.16,24.72,38.55Z"/><path class="cls-1" d="M27.82,34.68h-.58v1h-.59v.48h.59v2.12c0,.56.23.84.76.84a1.46,1.46,0,0,0,.51-.07v-.44a1.09,1.09,0,0,1-.3,0c-.31,0-.39-.17-.39-.5v-2h.75v-.48h-.75Z"/><path class="cls-1" d="M30.93,35.6a1.14,1.14,0,0,0-1.06.58v-2h-.58v4.91h.58V37.22c0-.71.27-1.11.88-1.11s.74.32.74.89v2.07h.58V36.91C32.07,35.9,31.47,35.6,30.93,35.6Z"/><rect class="cls-1" x="33.17" y="35.68" width="0.58" height="3.39"/><rect class="cls-1" x="33.17" y="34.16" width="0.58" height="0.73"/><path class="cls-1" d="M36.5,35.6a1.09,1.09,0,0,0-1.07.64,3.5,3.5,0,0,0,0-.56h-.57c0,.26,0,.56,0,.85v2.54h.58v-1.8c0-.68.26-1.16.9-1.16s.72.34.72.85v2.11h.58V36.89C37.63,36,37.14,35.6,36.5,35.6Z"/><path class="cls-1" d="M41,36.13c-.08-.23-.35-.53-1-.53-.82,0-1.46.67-1.46,1.78a1.48,1.48,0,0,0,1.4,1.67A1,1,0,0,0,41,38.46v.27c0,.78-.19,1.27-1,1.27a.76.76,0,0,1-.83-.57h-.6c.06.46.38,1,1.4,1s1.56-.62,1.56-1.71v-2.1c0-.33,0-.78,0-1H41C41,35.75,41,36,41,36.13ZM40,38.55c-.55,0-.92-.48-.92-1.2s.32-1.25.94-1.25.93.45.93,1.21S40.75,38.55,40,38.55Z"/><path class="cls-1" d="M48,35.6a1.18,1.18,0,0,0-1.08.61A.91.91,0,0,0,46,35.6a1,1,0,0,0-1,.6c0-.17,0-.42,0-.52h-.57c0,.27,0,.58,0,.87v2.52H45V37.19c0-.64.26-1.08.81-1.08s.65.39.65.82v2.14H47v-2c0-.6.23-1,.79-1s.67.42.67.81v2.16h.57V36.84C49.05,35.92,48.54,35.6,48,35.6Z"/><path class="cls-1" d="M51.51,35.6a1.61,1.61,0,0,0-1.6,1.78,1.58,1.58,0,0,0,1.56,1.77,1.61,1.61,0,0,0,1.6-1.78A1.58,1.58,0,0,0,51.51,35.6Zm0,3.06c-.6,0-1-.54-1-1.29s.34-1.28,1-1.28,1,.52,1,1.29S52.11,38.66,51.49,38.66Z"/><path class="cls-1" d="M54.51,36.37c0-.33,0-.6,0-.69h-.57c0,.18,0,.45,0,.92v2.47h.58V37.42a1.08,1.08,0,0,1,1.14-1.24V35.6A1.2,1.2,0,0,0,54.51,36.37Z"/><path class="cls-1" d="M57.62,35.6c-1,0-1.54.8-1.54,1.81s.43,1.74,1.5,1.74a1.37,1.37,0,0,0,1.42-1h-.58a.8.8,0,0,1-.82.52c-.58,0-.93-.49-.93-1.18h2.39a2.53,2.53,0,0,0,0-.28A1.44,1.44,0,0,0,57.62,35.6Zm-.93,1.47c.06-.59.32-1,.92-1s.86.45.86,1Z"/><rect class="cls-1" x="61.67" y="34.16" width="0.58" height="0.73"/><rect class="cls-1" x="61.67" y="35.68" width="0.58" height="3.39"/><path class="cls-1" d="M65,35.6a1.06,1.06,0,0,0-1.07.64c0-.1,0-.46,0-.56h-.57v3.39h.59v-1.8c0-.68.26-1.16.89-1.16s.72.34.72.85v2.11h.59V36.89C66.14,36,65.64,35.6,65,35.6Z"/><path class="cls-1" d="M67.93,34.68h-.59v1h-.58v.48h.58v2.12c0,.56.24.84.76.84a1.46,1.46,0,0,0,.51-.07v-.44a1,1,0,0,1-.3,0c-.3,0-.38-.17-.38-.5v-2h.74v-.48h-.74Z"/><path class="cls-1" d="M70.67,35.6c-1,0-1.54.8-1.54,1.81a1.54,1.54,0,0,0,1.5,1.74,1.39,1.39,0,0,0,1.43-1h-.59a.8.8,0,0,1-.82.52c-.58,0-.92-.49-.93-1.18h2.39a2.53,2.53,0,0,0,0-.28A1.44,1.44,0,0,0,70.67,35.6Zm-.93,1.47c.06-.59.32-1,.92-1s.86.45.87,1Z"/><path class="cls-1" d="M73.56,36.37c0-.33,0-.6,0-.69H73c0,.18,0,.45,0,.92v2.47h.59V37.42a1.08,1.08,0,0,1,1.14-1.24V35.6A1.19,1.19,0,0,0,73.56,36.37Z"/><path class="cls-1" d="M76.66,35.6c-1,0-1.54.8-1.54,1.81a1.54,1.54,0,0,0,1.5,1.74,1.38,1.38,0,0,0,1.43-1h-.59a.79.79,0,0,1-.82.52c-.57,0-.92-.49-.92-1.18H78.1a2.53,2.53,0,0,0,0-.28A1.44,1.44,0,0,0,76.66,35.6Zm-.92,1.47c.05-.59.32-1,.91-1s.86.45.87,1Z"/><path class="cls-1" d="M80.19,37c-.62-.15-.76-.27-.76-.53s.14-.45.61-.45a.67.67,0,0,1,.74.53h.57a1.14,1.14,0,0,0-1.28-1c-.87,0-1.22.47-1.22.95s.2.76,1.17,1c.64.16.8.31.8.62s-.2.53-.69.53a.76.76,0,0,1-.83-.59h-.59a1.23,1.23,0,0,0,1.4,1c.84,0,1.31-.43,1.31-1S81.22,37.27,80.19,37Z"/><path class="cls-1" d="M83,34.68h-.59v1h-.58v.48h.58v2.12c0,.56.24.84.76.84a1.4,1.4,0,0,0,.51-.07v-.44a1,1,0,0,1-.29,0c-.31,0-.39-.17-.39-.5v-2h.75v-.48H83Z"/><rect class="cls-1" x="84.44" y="34.16" width="0.58" height="0.73"/><rect class="cls-1" x="84.44" y="35.68" width="0.58" height="3.39"/><path class="cls-1" d="M87.78,35.6a1.06,1.06,0,0,0-1.07.64c0-.1,0-.46,0-.56h-.57v3.39h.59v-1.8c0-.68.26-1.16.9-1.16s.71.34.71.85v2.11h.59V36.89C88.91,36,88.41,35.6,87.78,35.6Z"/><path class="cls-1" d="M92.25,35.68c0,.07,0,.29,0,.45-.07-.23-.35-.53-1-.53-.82,0-1.47.67-1.47,1.78a1.48,1.48,0,0,0,1.41,1.67,1,1,0,0,0,1-.59v.27c0,.78-.19,1.27-1,1.27a.78.78,0,0,1-.83-.57h-.6c.07.46.38,1,1.41,1s1.55-.62,1.55-1.71v-2.1c0-.33,0-.78,0-1Zm-1,2.87c-.56,0-.93-.48-.93-1.2s.32-1.25.95-1.25.92.45.92,1.21S92,38.55,91.3,38.55Z"/></g></g></svg>