<svg xmlns="http://www.w3.org/2000/svg" viewBox="0 0 86.1 45.27"><defs><style>.cls-1{fill:none;stroke:#b5b5b5;stroke-miterlimit:10;stroke-width:0.5px;}.cls-1,.cls-2{fill-rule:evenodd;}.cls-2{fill:#b5b5b5;}.cls-3{fill:#fff;}</style></defs><title>Asset 72</title><g id="Layer_2" data-name="Layer 2"><g id="Layer_1-2" data-name="Layer 1"><path class="cls-1" d="M43.05,45c-11.27,0-21.88-2.24-29.89-6.29C4.83,34.51.25,28.8.25,22.64S4.83,10.76,13.16,6.54C21.17,2.48,31.78.25,43.05.25S64.93,2.48,72.94,6.54c8.33,4.22,12.91,9.93,12.91,16.1S81.27,34.51,72.94,38.73C64.93,42.78,54.32,45,43.05,45Z"/><path class="cls-2" d="M43.05,1.88c11.27,0,21.48,2.29,28.88,6s12.12,9,12.12,14.76-4.63,11-12.12,14.75-17.61,6-28.88,6-21.48-2.29-28.88-6-12.12-9-12.12-14.75,4.63-11,12.12-14.76,17.61-6,28.88-6"/><path class="cls-3" d="M14.39,26.77a4.52,4.52,0,0,0,.17-1.38V16.78a4.19,4.19,0,0,0-.18-1.38,1.34,1.34,0,0,0-.59-.67,1,1,0,0,0-.62-.19H13v-.68h5.8v.68a2.72,2.72,0,0,0-.72.2,1.14,1.14,0,0,0-.58.67,4.12,4.12,0,0,0-.18,1.37v3.63l4.3-3.83c.4-.39.61-.58.8-.79s.3-.35.3-.55-.05-.44-.21-.54a1.06,1.06,0,0,0-.58-.16h-.12v-.68h5.14v.68a3.29,3.29,0,0,0-1,.2,4.93,4.93,0,0,0-1,.57,10.23,10.23,0,0,0-1.14,1L19.83,20l4.92,5.34a12.58,12.58,0,0,0,2.08,1.77,4.37,4.37,0,0,0,1.92.56v.7h-7v-.7a1.7,1.7,0,0,0,.71-.11.43.43,0,0,0,.28-.42.66.66,0,0,0-.17-.39,9.42,9.42,0,0,0-.82-.89l-4.49-4.54v4.11a4.52,4.52,0,0,0,.17,1.38,1.19,1.19,0,0,0,1,.86h.29v.7H13v-.7h.33A1.13,1.13,0,0,0,14.39,26.77Z"/><path class="cls-3" d="M28.16,21.17a7.56,7.56,0,0,1,1-3.81,7.28,7.28,0,0,1,2.69-2.76,7.41,7.41,0,0,1,7.47,0A7.25,7.25,0,0,1,42,17.36,7.83,7.83,0,0,1,42,25a7.37,7.37,0,0,1-2.68,2.75,7.48,7.48,0,0,1-7.47,0A7.39,7.39,0,0,1,29.14,25,7.56,7.56,0,0,1,28.16,21.17Zm3.07,0a11.84,11.84,0,0,0,.29,2.75A6.41,6.41,0,0,0,32.36,26a3.58,3.58,0,0,0,3.2,1.73,3.76,3.76,0,0,0,1.84-.43A3.82,3.82,0,0,0,38.75,26a6.35,6.35,0,0,0,.85-2.06,12.15,12.15,0,0,0,.29-2.77,10.75,10.75,0,0,0-.51-3.53A4.7,4.7,0,0,0,37.9,15.4a4,4,0,0,0-4.69,0,4.76,4.76,0,0,0-1.47,2.24A10.75,10.75,0,0,0,31.23,21.17Z"/><path class="cls-3" d="M51.22,28.73h-.65l-5-12a14.11,14.11,0,0,0-.72-1.43,1.76,1.76,0,0,0-.58-.62,1.47,1.47,0,0,0-.74-.17v-.68h5.9v.68c-.84,0-1.26.31-1.26.91a1.38,1.38,0,0,0,.08.48c.07.19.24.59.52,1.21l2.77,7,3.14-7.25a5.37,5.37,0,0,0,.44-1.51.76.76,0,0,0-.36-.76c-.22-.14-.35-.12-.81-.12v-.68h4v.68a2,2,0,0,0-.82.3,2,2,0,0,0-.58.82c-.27.61-.46,1.05-.78,1.91Z"/><path class="cls-3" d="M60.14,24.45l-.38.89a3.48,3.48,0,0,0-.34,1.14c0,.75.41,1.13,1.51,1.15v.7H56.15v-.7a1.77,1.77,0,0,0,1.25-.55,5.28,5.28,0,0,0,1.06-1.74l5-11.75H64l5.93,12.83a2.79,2.79,0,0,0,.46.73,1.29,1.29,0,0,0,.53.35,3.1,3.1,0,0,0,.81.13v.7h-6v-.7a2.54,2.54,0,0,0,1.11-.17.6.6,0,0,0,.3-.57,3,3,0,0,0-.36-1.19l-.62-1.25Zm5.43-1.15-2.65-5.73-2.3,5.73Z"/><path class="cls-3" d="M69.89,12.24v.19A1.54,1.54,0,0,1,71.43,14,1.54,1.54,0,0,1,71,15.06a1.53,1.53,0,0,1-2.17,0A1.54,1.54,0,0,1,68.36,14a1.54,1.54,0,0,1,1.53-1.54V12A1.93,1.93,0,0,0,68,14a1.95,1.95,0,0,0,1.93,1.93,1.93,1.93,0,0,0,1.37-.57A1.9,1.9,0,0,0,71.83,14,1.93,1.93,0,0,0,69.89,12Z"/><path class="cls-3" d="M70.2,14l.56.65a.31.31,0,0,0,.13.1.34.34,0,0,0,.14,0v.08h-.55l-.7-.83H69.6v.46a.74.74,0,0,0,0,.18.14.14,0,0,0,.09.08.31.31,0,0,0,.15,0v.08H69v-.08a.16.16,0,0,0,.12,0,.11.11,0,0,0,.09-.08.42.42,0,0,0,0-.18V13.32a.28.28,0,0,0-.07-.2.14.14,0,0,0-.13,0h0V13h1a1.12,1.12,0,0,1,.27,0,.58.58,0,0,1,.22.08.4.4,0,0,1,.14.15.38.38,0,0,1,.05.22.45.45,0,0,1-.13.32A.6.6,0,0,1,70.2,14Zm-.6-.1h.22a.44.44,0,0,0,.32-.11.39.39,0,0,0,.08-.42.25.25,0,0,0-.08-.12L70,13.15l-.18,0a.63.63,0,0,0-.23,0Z"/><path class="cls-3" d="M52.61,33.25V31.56a1.33,1.33,0,0,0,0-.29.21.21,0,0,0-.15-.06H52.3V31h1.32a1,1,0,0,1,.57.14.55.55,0,0,1,.18.45.69.69,0,0,1-.25.54.92.92,0,0,1-.3.18l.56.9a2.84,2.84,0,0,0,.19.29.13.13,0,0,0,.11.06l.07,0v.16h-.7a1.19,1.19,0,0,0-.08-.16l-.22-.37-.51-.86,0-.07h0a.53.53,0,0,0,.39-.16.65.65,0,0,0,0-.79.45.45,0,0,0-.35-.13,1.15,1.15,0,0,0-.26,0v2a1.45,1.45,0,0,0,0,.3s.07.05.15.05l.14,0v.16H52.3v-.16l.14,0c.08,0,.13,0,.15-.05a1.38,1.38,0,0,0,0-.3"/><path class="cls-3" d="M50.27,33.61a.69.69,0,0,0,.59-.28,1.38,1.38,0,0,0,.21-.82,1.8,1.8,0,0,0-.21-1,.66.66,0,0,0-.59-.34.7.7,0,0,0-.6.28,1.4,1.4,0,0,0-.21.82,1.86,1.86,0,0,0,.21,1A.67.67,0,0,0,50.27,33.61Zm-.05.22a1.27,1.27,0,0,1-1-.36,1.41,1.41,0,0,1-.35-1,1.54,1.54,0,0,1,.37-1.09,1.37,1.37,0,0,1,1-.38,1.27,1.27,0,0,1,1,.36,1.41,1.41,0,0,1,.35,1,1.5,1.5,0,0,1-.37,1.09A1.34,1.34,0,0,1,50.22,33.83Z"/><path class="cls-3" d="M47.77,31.74h0l0-.32a.45.45,0,0,0-.19-.17.72.72,0,0,0-.29-.06.53.53,0,0,0-.37.12.44.44,0,0,0-.14.34.37.37,0,0,0,.13.28,1.58,1.58,0,0,0,.47.19,1.34,1.34,0,0,1,.59.29.6.6,0,0,1,.17.46.91.91,0,0,1-.29.71,1.21,1.21,0,0,1-.81.25,1.31,1.31,0,0,1-.39,0,1.35,1.35,0,0,1-.35-.14,2.54,2.54,0,0,0,0-.34c0-.09,0-.21,0-.34h.14l0,.35a.57.57,0,0,0,.24.22.73.73,0,0,0,.36.08.57.57,0,0,0,.4-.13.5.5,0,0,0,.15-.38.35.35,0,0,0-.12-.28.94.94,0,0,0-.4-.18,1.71,1.71,0,0,1-.65-.3.59.59,0,0,1-.18-.46.87.87,0,0,1,.26-.66,1,1,0,0,1,.7-.23,2.05,2.05,0,0,1,.37,0,1.75,1.75,0,0,1,.3.1l0,0v0c0,.1,0,.18,0,.26a2.63,2.63,0,0,0,0,.3Z"/><path class="cls-3" d="M45.07,31.74h0l0-.32a.42.42,0,0,0-.2-.17.72.72,0,0,0-.29-.06.52.52,0,0,0-.36.12.44.44,0,0,0-.14.34.34.34,0,0,0,.13.28,1.47,1.47,0,0,0,.47.19,1.4,1.4,0,0,1,.59.29.6.6,0,0,1,.16.46.91.91,0,0,1-.29.71,1.17,1.17,0,0,1-.81.25,1.24,1.24,0,0,1-.38,0,1.22,1.22,0,0,1-.35-.14c0-.13,0-.24.05-.34s0-.21,0-.34h.14l0,.35a.6.6,0,0,0,.25.22.72.72,0,0,0,.35.08.55.55,0,0,0,.4-.13A.5.5,0,0,0,45,33.1a.38.38,0,0,0-.11-.28,1,1,0,0,0-.41-.18,1.66,1.66,0,0,1-.64-.3.59.59,0,0,1-.18-.46.86.86,0,0,1,.25-.66,1,1,0,0,1,.7-.23,1.9,1.9,0,0,1,.37,0,1.5,1.5,0,0,1,.3.1l0,0,0,0a1.38,1.38,0,0,0,0,.26c0,.08,0,.18,0,.3Z"/><path class="cls-3" d="M40.69,33.78v-.11l.08,0s.08-.05.09-.09a1.11,1.11,0,0,0,0-.23V31.56a.87.87,0,0,0,0-.29s-.06-.05-.15-.06h-.14V31l.47,0h1.11a1.39,1.39,0,0,1,.35,0c0,.11,0,.21,0,.29a2.51,2.51,0,0,0,0,.3h-.13l0-.29s0-.05-.11-.06a1.24,1.24,0,0,0-.31,0h-.48v1h.35a1.38,1.38,0,0,0,.3,0s0,0,.06-.11l0-.18h.14c0,.17,0,.31,0,.43s0,.27,0,.43h-.14l0-.21q0-.11-.06-.12a1.38,1.38,0,0,0-.3,0h-.35v1.08h.36l.35,0a.57.57,0,0,0,.21-.05l.09-.38h.13c0,.13,0,.24,0,.34s0,.21,0,.34H41Z"/><path class="cls-3" d="M38.09,33.25V31.56a1.33,1.33,0,0,0,0-.29.21.21,0,0,0-.15-.06h-.14V31l.46,0h1a1.63,1.63,0,0,1,.36,0c0,.11,0,.21,0,.29s0,.19,0,.3h-.13l0-.29s0-.05-.1-.06a1.33,1.33,0,0,0-.32,0H38.6v1h.58s0,0,.06-.11l0-.18h.14v.85h-.14l0-.22c0-.06,0-.1-.06-.11a.91.91,0,0,0-.3,0l-.28,0v.76a.84.84,0,0,0,0,.3s.07.05.16.05l.16,0v.16H37.78v-.16l.14,0c.08,0,.13,0,.15-.05A1.45,1.45,0,0,0,38.09,33.25Z"/><path class="cls-3" d="M35.58,33.61a.69.69,0,0,0,.59-.28,1.38,1.38,0,0,0,.21-.82,1.8,1.8,0,0,0-.21-1,.66.66,0,0,0-.59-.34.7.7,0,0,0-.6.28,1.4,1.4,0,0,0-.21.82,1.86,1.86,0,0,0,.21,1A.67.67,0,0,0,35.58,33.61Zm0,.22a1.28,1.28,0,0,1-1-.36,1.4,1.4,0,0,1-.34-1,1.54,1.54,0,0,1,.36-1.09,1.39,1.39,0,0,1,1-.38,1.27,1.27,0,0,1,1,.36,1.41,1.41,0,0,1,.35,1,1.5,1.5,0,0,1-.37,1.09A1.31,1.31,0,0,1,35.54,33.83Z"/><path class="cls-3" d="M31.53,33.25V31.56a1.33,1.33,0,0,0,0-.29.21.21,0,0,0-.15-.06h-.14V31h1.32a1,1,0,0,1,.57.14.56.56,0,0,1,.19.45.7.7,0,0,1-.26.54.92.92,0,0,1-.3.18l.56.9a2.84,2.84,0,0,0,.19.29.13.13,0,0,0,.11.06l.07,0v.16H33l-.08-.16-.22-.37-.51-.86,0-.07h0a.55.55,0,0,0,.39-.16.65.65,0,0,0,0-.79.45.45,0,0,0-.35-.13,1.15,1.15,0,0,0-.26,0v2a1.45,1.45,0,0,0,0,.3s.07.05.15.05l.14,0v.16H31.22v-.16l.14,0c.08,0,.13,0,.15-.05A1.38,1.38,0,0,0,31.53,33.25Z"/><path class="cls-3" d="M28.75,33.25V31.56a.87.87,0,0,0,0-.29s-.06-.05-.14-.06h-.15V31h1.3a.86.86,0,0,1,.55.15.53.53,0,0,1,.18.44.82.82,0,0,1-.24.61.75.75,0,0,1-.59.25.6.6,0,0,1-.2,0l-.07-.14,0,0,.14,0a.34.34,0,0,0,.29-.13.68.68,0,0,0,.1-.4.57.57,0,0,0-.11-.39.37.37,0,0,0-.32-.14.88.88,0,0,0-.24,0v2a1,1,0,0,0,0,.3s.06.05.14.05l.15,0v.16H28.44v-.16l.15,0c.08,0,.12,0,.14-.05A1,1,0,0,0,28.75,33.25Z"/><path class="cls-3" d="M70.32,33.25v-2H70a.8.8,0,0,0-.28,0s-.05.05-.06.12l0,.27h-.14c0-.13,0-.24,0-.33s0-.2,0-.33h2.31q0,.2,0,.33c0,.09,0,.2,0,.33h-.14l0-.27q0-.11-.06-.12a.8.8,0,0,0-.28,0h-.36v2a.84.84,0,0,0,0,.3s.07.05.16.05l.16,0v.16H70v-.16l.16,0c.09,0,.15,0,.17-.05A1.45,1.45,0,0,0,70.32,33.25Z"/><path class="cls-3" d="M66.5,33.25a1.38,1.38,0,0,0,0,.3s.07.05.15.05l.14,0v.16H66v-.16l.14,0c.09,0,.13,0,.15-.05a1.45,1.45,0,0,0,0-.3V31.56a1.33,1.33,0,0,0,0-.29s-.06-.05-.15-.06H66V31h.75l.11.17.27.35L68.23,33V31.56a1.33,1.33,0,0,0,0-.29.21.21,0,0,0-.15-.06h-.14V31h.84v.16h-.15c-.08,0-.12,0-.14.06a.87.87,0,0,0,0,.29v2.09c0,.08,0,.14,0,.16l0,0-.31,0L66.5,31.64Z"/><path class="cls-3" d="M64.21,33.25V31.56a1.33,1.33,0,0,0,0-.29.21.21,0,0,0-.15-.06H63.9V31H65v.16h-.14a.21.21,0,0,0-.15.06,1.33,1.33,0,0,0,0,.29v1.69a1.45,1.45,0,0,0,0,.3s.07.05.15.05l.14,0v.16H63.9v-.16l.14,0c.08,0,.13,0,.15-.05A1.45,1.45,0,0,0,64.21,33.25Z"/><path class="cls-3" d="M61.71,31.72l-.37,1h.75l-.38-1Zm-.81,1.53.68-1.81c0-.07.06-.16.09-.24a1.84,1.84,0,0,0,.06-.18H62a1.84,1.84,0,0,0,.06.18,2.44,2.44,0,0,0,.1.24l.7,1.81a1.77,1.77,0,0,0,.14.3.14.14,0,0,0,.12.05l.1,0v.16H62.1v-.16h.15c.07,0,.11,0,.11-.08a.72.72,0,0,0-.07-.28l-.12-.31h-.92l-.07.2a.92.92,0,0,0-.09.37c0,.06.06.09.14.1h.15v.16h-.83v-.16l.1,0a.17.17,0,0,0,.13-.05A2.82,2.82,0,0,0,60.9,33.25Z"/><path class="cls-3" d="M58.49,33.25V31.56a.77.77,0,0,0,0-.29s-.06-.05-.14-.06h-.15V31h1.3a.86.86,0,0,1,.55.15.53.53,0,0,1,.18.44.82.82,0,0,1-.24.61.75.75,0,0,1-.59.25.64.64,0,0,1-.2,0l-.07-.14,0,0,.14,0a.34.34,0,0,0,.29-.13.68.68,0,0,0,.11-.4.57.57,0,0,0-.12-.39.36.36,0,0,0-.32-.14,1,1,0,0,0-.24,0v2a1,1,0,0,0,0,.3s.06.05.15.05l.14,0v.16H58.17v-.16l.15,0c.08,0,.13,0,.14-.05A.84.84,0,0,0,58.49,33.25Z"/></g></g></svg>