<svg xmlns="http://www.w3.org/2000/svg" viewBox="0 0 112.25 32.72"><defs><style>.cls-1{fill:#b5b5b5;}.cls-2{fill:none;stroke:#b5b5b5;stroke-miterlimit:10;stroke-width:0.5px;}.cls-3{fill:#fff;}</style></defs><title>Asset 79</title><g id="Layer_2" data-name="Layer 2"><g id="Layer_1-2" data-name="Layer 1"><path class="cls-1" d="M83.12,23.2l-1,5.41a.3.3,0,0,1,0,.16.41.41,0,0,1-.11.12.37.37,0,0,1-.14.07.3.3,0,0,1-.16,0H78.46c-.3,0-.4-.15-.34-.45L80,18.27c.08-.43.22-.55.67-.55H84a.62.62,0,0,1,.19,0,.41.41,0,0,1,.17.07.81.81,0,0,1,.14.12l.09.17c.85,1.74,1.7,3.46,2.56,5.19l.1.18c.1-.63.19-1.22.3-1.8.2-1.18.43-2.35.64-3.53a.58.58,0,0,1,0-.18.76.76,0,0,1,.11-.14.51.51,0,0,1,.16-.09l.18,0h3.2c.31,0,.41.15.34.48-.21,1.17-.42,2.34-.62,3.51Q91,25,90.39,28.36c-.1.53-.2.62-.73.62H86.37a.49.49,0,0,1-.17,0l-.15-.06a.69.69,0,0,1-.13-.11.71.71,0,0,1-.08-.15c-.85-1.75-1.72-3.5-2.58-5.25Z"/><path class="cls-1" d="M107.28,9.35c.25-1.82.61-3.57,1-5.34a.28.28,0,0,1,0-.09.32.32,0,0,1,0-.09.35.35,0,0,1,0-.08l.06-.07.08-.05.09,0,.09,0h3.22c.33,0,.43.15.38.48l-1.85,10.32a.28.28,0,0,1,0,.09l0,.1-.06.08-.06.08-.08,0-.09.05-.1,0h-3.64l-.14,0-.12-.07a.32.32,0,0,1-.1-.1.75.75,0,0,1-.07-.12l-2.57-5.23L103.18,9c-.19,1.34-.47,2.62-.68,3.9-.08.5-.18,1-.27,1.48a.61.61,0,0,1,0,.18.53.53,0,0,1-.12.14.51.51,0,0,1-.16.09.4.4,0,0,1-.19,0H98.56c-.3,0-.44-.16-.38-.46q.94-5.2,1.9-10.42a.34.34,0,0,1,0-.17.38.38,0,0,1,.11-.14.35.35,0,0,1,.16-.08.32.32,0,0,1,.17,0h3.56l.16,0,.14.07.11.11a.91.91,0,0,1,.07.14c.87,1.78,1.74,3.55,2.62,5.33Z"/><path class="cls-1" d="M41.24,9.07l-.39,2.16-.57,3.21c-.06.34-.23.47-.59.47h-3c-.39,0-.51-.13-.43-.53q.47-2.61,1-5.24c.31-1.67.61-3.34.91-5,.06-.36.2-.49.57-.49h3.45a.47.47,0,0,1,.17,0,.52.52,0,0,1,.15.07.45.45,0,0,1,.13.11.39.39,0,0,1,.08.14q1.25,2.52,2.51,5.1c0,.09.06.2.15.25l.73-4.14c.06-.37.12-.74.19-1.11a.34.34,0,0,1,0-.1l0-.1a.41.41,0,0,1,0-.09.23.23,0,0,1,.07-.07.27.27,0,0,1,.08-.07l.09,0,.1,0h3.25c.33,0,.43.16.36.51L48.42,14.42a.31.31,0,0,1,0,.1l0,.08a.56.56,0,0,1-.05.08.23.23,0,0,1-.07.07l-.07.05-.09,0-.09,0H44.4a.36.36,0,0,1-.14,0,.38.38,0,0,1-.13-.06l-.1-.09a.54.54,0,0,1-.07-.13q-1.27-2.62-2.58-5.25Z"/><path class="cls-1" d="M88.74,10.28a4.33,4.33,0,0,0,.07.8,1,1,0,0,0,0,.17l0,.16c0,.05,0,.11.05.16a1,1,0,0,0,.07.15l.09.14a.64.64,0,0,0,.1.13l.12.12.13.1a.42.42,0,0,0,.14.09l.15.07.16.06.16,0,.16,0h.17l.17,0,.16,0a2.18,2.18,0,0,0,.58-.27,1.79,1.79,0,0,0,.46-.45,6.29,6.29,0,0,0,.67-1.22,6.17,6.17,0,0,0,.36-1.34A4.52,4.52,0,0,0,92.86,8a4.18,4.18,0,0,0-.22-1.16,1.54,1.54,0,0,0-.08-.19,1.74,1.74,0,0,0-.11-.18,1.83,1.83,0,0,0-.13-.16l-.17-.13L92,6,91.77,6l-.2,0h-.21a1.71,1.71,0,0,0-.51.09,2.06,2.06,0,0,0-.48.21,2.6,2.6,0,0,0-.4.33,1.84,1.84,0,0,0-.3.43,6.51,6.51,0,0,0-1,3.3Zm3-6.9a6.36,6.36,0,0,1,1.79.16,6.77,6.77,0,0,1,1.69.64,4,4,0,0,1,.48.32,3.16,3.16,0,0,1,.44.38,4,4,0,0,1,.38.44,3.94,3.94,0,0,1,.31.48,3.65,3.65,0,0,1,.25.53,5,5,0,0,1,.17.55,5.62,5.62,0,0,1,.09.57,3.77,3.77,0,0,1,0,.58,6.35,6.35,0,0,1,0,.87,6.16,6.16,0,0,1-.42,1.69,6.28,6.28,0,0,1-.37.79,6.89,6.89,0,0,1-.46.73c-.18.24-.36.46-.56.68a7.21,7.21,0,0,1-.64.59,7.55,7.55,0,0,1-.71.51,8.72,8.72,0,0,1-1.18.6,7.81,7.81,0,0,1-1.27.4,7.24,7.24,0,0,1-1.31.18A7.37,7.37,0,0,1,89,15a6.14,6.14,0,0,1-2.41-.62,4.39,4.39,0,0,1-.47-.27c-.15-.11-.3-.22-.44-.34s-.26-.26-.38-.4A5.12,5.12,0,0,1,85,13a3.72,3.72,0,0,1-.27-.48,2.85,2.85,0,0,1-.2-.51,3.18,3.18,0,0,1-.14-.53,4.86,4.86,0,0,1-.07-.55c0-.2,0-.4,0-.6s0-.4,0-.6,0-.4.08-.6.08-.39.14-.58A5.4,5.4,0,0,1,84.7,8a5.55,5.55,0,0,1,.24-.56c.09-.18.18-.36.28-.53s.21-.34.33-.5.24-.32.37-.48.27-.3.41-.44l.45-.4q.24-.19.48-.36c.17-.12.34-.22.51-.32a8.18,8.18,0,0,1,1.1-.5,5.4,5.4,0,0,1,.57-.18,9.52,9.52,0,0,1,2.25-.3Z"/><path class="cls-1" d="M63.78,21c-.48,1.3-1.13,2.51-1.66,3.79h1.32c.58,0,.56,0,.52-.58A26.34,26.34,0,0,1,63.79,21Zm.64-3.26h2c.46,0,.5.05.58.5l1,5.47c.28,1.6.54,3.21.8,4.81,0,.3-.17.51-.53.51H65.22c-.8,0-.8,0-.86-.81a7.84,7.84,0,0,0-.09-.8c0-.12-.06-.15-.17-.15h-3a.21.21,0,0,0-.21.16c-.18.38-.37.8-.55,1.16a.52.52,0,0,1-.1.18.67.67,0,0,1-.15.14l-.19.08a.66.66,0,0,1-.2,0H56.29c-.45,0-.56-.18-.34-.58q2.85-5.16,5.74-10.34a.56.56,0,0,1,.1-.15.44.44,0,0,1,.15-.12l.17-.07h2.31Z"/><path class="cls-1" d="M78,5.74h-.14c-.24,0-.36,0-.4.31-.08.63-.21,1.26-.33,1.89s-.12.59.5.57a1.08,1.08,0,0,0,.31,0,1,1,0,0,0,.3-.07,1.48,1.48,0,0,0,.29-.12l.26-.17a1.75,1.75,0,0,0,.4-.48,1.48,1.48,0,0,0,.12-.29,1.09,1.09,0,0,0,.07-.3.87.87,0,0,0,0-.22,1.62,1.62,0,0,0,0-.22,1.42,1.42,0,0,0,0-.22,2,2,0,0,0-.11-.2A2.09,2.09,0,0,0,79.11,6l-.18-.13a.72.72,0,0,0-.2-.09.85.85,0,0,0-.22,0,2.27,2.27,0,0,0-.52,0ZM77.1,3.57h2.77a5.77,5.77,0,0,1,1.69.34A1.17,1.17,0,0,1,81.8,4l.23.11.21.14c.07,0,.14.1.21.15l.18.17c.06.07.12.13.17.2A1,1,0,0,1,83,5a2.53,2.53,0,0,1,.13.22,2.56,2.56,0,0,1,.11.24,2.25,2.25,0,0,1,.08.24,1.82,1.82,0,0,1,.07.25l0,.25a2.17,2.17,0,0,1,0,.26,2.09,2.09,0,0,1,0,.25,1.87,1.87,0,0,1,0,.25,1.82,1.82,0,0,1-.07.25,3.09,3.09,0,0,1-.18.59,3.94,3.94,0,0,1-.26.55,4.59,4.59,0,0,1-.35.51,4.36,4.36,0,0,1-.41.46,4.42,4.42,0,0,1-.47.39,4.6,4.6,0,0,1-.53.31,3,3,0,0,1-.56.24,4.08,4.08,0,0,1-.6.16,10.9,10.9,0,0,1-3,.22c-.23,0-.32,0-.36.29-.2,1.17-.41,2.32-.63,3.48,0,0,0,.06,0,.1l0,.1a.22.22,0,0,1-.05.08l-.07.08-.09,0-.1,0-.1,0H72c-.37,0-.48-.13-.41-.48L73,6.44c.14-.77.27-1.54.41-2.31.07-.43.22-.57.66-.57Z"/><path class="cls-1" d="M65.05,8.51a1.22,1.22,0,0,0,.33,0,1.65,1.65,0,0,0,.32,0L66,8.38a1.69,1.69,0,0,0,.29-.17A1.64,1.64,0,0,0,66.55,8a2.56,2.56,0,0,0,.2-.26,1.35,1.35,0,0,0,.14-.3A1.81,1.81,0,0,0,67,7.13a.64.64,0,0,0,0-.23,1,1,0,0,0,0-.24.87.87,0,0,0,0-.22.7.7,0,0,0-.11-.21.65.65,0,0,0-.15-.18,1.24,1.24,0,0,0-.18-.14,1.09,1.09,0,0,0-.45-.13,5.34,5.34,0,0,0-.8,0c-.17,0-.22.06-.24.21l-.39,2.15C64.62,8.51,64.62,8.51,65.05,8.51Zm.35,2.11h-1c-.14,0-.21,0-.23.19-.2,1.14-.41,2.27-.61,3.42-.09.52-.21.63-.74.63H59.65c-.36,0-.55-.17-.48-.57.49-2.58.95-5.17,1.41-7.75.15-.8.3-1.6.45-2.45.07-.39.21-.5.62-.51h5.86a5.47,5.47,0,0,1,1.69.34l.26.1.25.13a1.82,1.82,0,0,1,.23.15,1.92,1.92,0,0,1,.22.18c.07.06.13.13.2.2a1.84,1.84,0,0,1,.17.22,1.14,1.14,0,0,1,.15.23c0,.08.09.17.13.25a2.77,2.77,0,0,1,.1.26,2.68,2.68,0,0,1,.07.27c0,.1,0,.19,0,.28a2.64,2.64,0,0,1,0,.28,2.64,2.64,0,0,1,0,.28c0,.09,0,.19,0,.28a3.54,3.54,0,0,1-.18.53,4.55,4.55,0,0,1-.21.51c-.09.17-.18.33-.28.49A4.82,4.82,0,0,1,70,9a3.59,3.59,0,0,1-.39.39,3.46,3.46,0,0,1-.44.34,4,4,0,0,1-.48.28,4.77,4.77,0,0,1-.52.22,3.58,3.58,0,0,1-.54.14,7.37,7.37,0,0,1-2.19.25Z"/><path class="cls-1" d="M52.17,19.88h-.3c-.16,0-.22.05-.25.2q-.21,1.2-.45,2.4c0,.09,0,.17.11.17a2.73,2.73,0,0,0,1.46-.25,1.7,1.7,0,0,0,.38-.33,1.79,1.79,0,0,0,.27-.44,1.61,1.61,0,0,0,.13-.49,1.75,1.75,0,0,0,0-.51C53.36,20.12,52.94,19.89,52.17,19.88Zm-.27,4.89H51c-.26,0-.25.06-.27.23-.2,1.15-.42,2.31-.63,3.47-.07.39-.22.53-.62.53H46.14c-.41,0-.53-.13-.46-.53l1.09-6.12.75-4.17c.06-.32.2-.46.52-.46,2,0,4.07-.06,6.11,0a3.85,3.85,0,0,1,1.22.2,4.11,4.11,0,0,1,1.11.55l.29.24A3.22,3.22,0,0,1,57,19a3.45,3.45,0,0,1,.2.32,2.41,2.41,0,0,1,.15.33c0,.12.07.24.1.36a2.33,2.33,0,0,1,0,.37,1.53,1.53,0,0,1,0,.37,2.38,2.38,0,0,1-.06.37,4.31,4.31,0,0,1-.15.62,4.44,4.44,0,0,1-.58,1.15,6.4,6.4,0,0,1-.42.49,4.81,4.81,0,0,1-.48.42,4.53,4.53,0,0,1-.55.34,4.41,4.41,0,0,1-.59.26,4.34,4.34,0,0,1-.62.16,8.07,8.07,0,0,1-2.14.22Z"/><path class="cls-1" d="M99.82,17.72h4.7c.47,0,.57.12.47.58s-.2,1.06-.3,1.6-.19.5-.59.51h-2.22c-.19,0-.26,0-.3.24-.35,2-.71,4-1.06,6-.11.63-.23,1.28-.34,1.91a.48.48,0,0,1-.05.17.48.48,0,0,1-.27.22l-.18,0H95.91c-.28,0-.37-.15-.33-.45.21-1.16.41-2.32.62-3.48.26-1.47.53-2.94.8-4.41,0-.19,0-.27-.21-.27H94.65c-.45,0-.56-.12-.49-.56l.29-1.61c.08-.39.24-.52.65-.52h4.72Z"/><path class="cls-1" d="M72.73,29H71c-.38,0-.5-.14-.43-.51l1.87-10.33a.28.28,0,0,1,0-.09l0-.09,0-.08.07-.06a.2.2,0,0,1,.07-.06l.09,0,.09,0h3.79c.32,0,.42.14.35.46L75.12,28.49a.52.52,0,0,1-.61.5Z"/><path class="cls-1" d="M53.76,14.85H52c-.42,0-.53-.13-.45-.54.37-2,.74-4.09,1.12-6.13.24-1.37.49-2.73.73-4.09.08-.4.2-.52.61-.52h3.53c.4,0,.49.11.42.5l-1.6,9.17c-.07.37-.13.73-.19,1.08a.53.53,0,0,1-.6.52Z"/><path class="cls-2" d="M18.43,32H32.55c.25,0,.31-.07.31-.32V4.53a4,4,0,0,0,0-.49,2.32,2.32,0,0,0-.07-.38c0-.13-.06-.25-.1-.37a3,3,0,0,0-.14-.36,2.26,2.26,0,0,0-.17-.35,2.9,2.9,0,0,0-.2-.33A2.26,2.26,0,0,0,32,1.94a3.47,3.47,0,0,0-.25-.29l-.28-.26a3.65,3.65,0,0,0-.31-.24L30.79.94,30.44.77a2.17,2.17,0,0,0-.35-.15L29.72.51,29.34.43,29,.39H.88C.41.38.41.38.41.85V27.74a4.17,4.17,0,0,0,0,.71c0,.13,0,.25.07.37s.07.25.11.36.08.24.13.36l.17.33a3.45,3.45,0,0,0,.2.32,3.55,3.55,0,0,0,.23.31,3.2,3.2,0,0,0,.25.27,3.45,3.45,0,0,0,.28.26,2.37,2.37,0,0,0,.3.23,3.28,3.28,0,0,0,.31.2,3.65,3.65,0,0,0,.34.18l.35.14.36.11.37.07a2.33,2.33,0,0,0,.37,0,2.41,2.41,0,0,0,.38,0H18.43ZM33,32.19c-.2-.15-.35,0-.5,0H4.38a4.07,4.07,0,0,1-.7-.1A4.11,4.11,0,0,1,3,31.88a4.65,4.65,0,0,1-.63-.32,3.8,3.8,0,0,1-.57-.42,3.94,3.94,0,0,1-.5-.5,4,4,0,0,1-.41-.58,3.68,3.68,0,0,1-.31-.63,4.11,4.11,0,0,1-.21-.68,4.73,4.73,0,0,1-.12-.92V.64C.25.25.25.25.64.25H29l.38,0,.37.08a2.26,2.26,0,0,1,.37.11,2.13,2.13,0,0,1,.35.14,3.59,3.59,0,0,1,.34.17l.33.2.3.23a3.45,3.45,0,0,1,.28.26,3.45,3.45,0,0,1,.26.28l.23.3c.07.11.14.22.2.33a3.58,3.58,0,0,1,.32.69c0,.12.08.24.11.37s.05.24.07.37a3.82,3.82,0,0,1,.06.68V32.19Z"/><path class="cls-1" d="M14.81,6.53V5.14c0-.45-.2-.69-.68-.69H6.2c-.52,0-.72.2-.72.71V25.67c0,.52.2.72.73.72H26.14c.38,0,.48-.16.42-.53a7.43,7.43,0,0,1-.19-1.24,8.51,8.51,0,0,1,.35-2.24,52.43,52.43,0,0,0,1.43-5.78,12.22,12.22,0,0,0,.05-3.47,7.66,7.66,0,0,0-.32-1.4A8.43,8.43,0,0,0,25.6,8.14a9.48,9.48,0,0,0-.89-.79,9.2,9.2,0,0,0-1-.66,8.73,8.73,0,0,0-1.06-.53,10.41,10.41,0,0,0-1.11-.39,11.36,11.36,0,0,0-1.16-.24,11.49,11.49,0,0,0-1.18-.09,9.34,9.34,0,0,0-1.18.07,9.12,9.12,0,0,0-1.16.22,9.72,9.72,0,0,0-2.08.8ZM15.55,2H28.84l.27,0a2.61,2.61,0,0,1,.27.06l.25.09a1.15,1.15,0,0,1,.25.12,1.71,1.71,0,0,1,.23.13,1.84,1.84,0,0,1,.22.17,1.12,1.12,0,0,1,.2.18,1.8,1.8,0,0,1,.19.2c.05.07.11.14.16.22s.09.15.14.23a1.89,1.89,0,0,1,.11.25,1.14,1.14,0,0,1,.09.26,1.1,1.1,0,0,1,.06.26,2.51,2.51,0,0,1,0,.27,2.44,2.44,0,0,1,0,.27V30.18c0,.25-.07.3-.31.3H4.37l-.26,0-.25-.06a1.84,1.84,0,0,1-.25-.09l-.24-.11a1.71,1.71,0,0,1-.23-.13l-.21-.16-.2-.17-.18-.2c0-.06-.1-.14-.15-.21l-.14-.22a2.56,2.56,0,0,1-.11-.24l-.09-.25A2.44,2.44,0,0,1,2,28.34a2,2,0,0,1,0-.26,2.26,2.26,0,0,1,0-.26V2.41C2,2,2,2,2.39,2Z"/><path class="cls-3" d="M14.81,20.71V25a.81.81,0,0,0,0,.22c0,.13.09.15.18.06a1.2,1.2,0,0,0,.13-.21c.47-.8.92-1.61,1.34-2.41a19.9,19.9,0,0,0,1.82-4.64,4.31,4.31,0,0,0,.16-1.29,4,4,0,0,0-.24-1.28,1.72,1.72,0,0,0-.21-.43,1.53,1.53,0,0,0-.32-.35,1.27,1.27,0,0,0-.42-.24,1.53,1.53,0,0,0-.47-.11,1.56,1.56,0,0,0-.48,0,1.44,1.44,0,0,0-.45.17,1.52,1.52,0,0,0-.39.29,1.49,1.49,0,0,0-.28.38,2.09,2.09,0,0,0-.28.63,2.16,2.16,0,0,0-.08.67c0,1.39,0,2.79,0,4.2Zm-1.11-12V7c0-.24,0-.32-.31-.32H6.89c-.22,0-.22.06-.22.27V25c0,.2,0,.28.26.28h6.52c.23,0,.28-.08.28-.3V16.88a7.69,7.69,0,0,1,.07-1.07,3,3,0,0,1,.12-.5,4,4,0,0,1,.21-.47,2.44,2.44,0,0,1,.28-.43,2.5,2.5,0,0,1,.35-.38,3.12,3.12,0,0,1,.4-.32,4,4,0,0,1,.46-.24,3.9,3.9,0,0,1,.48-.17,3,3,0,0,1,.51-.08,2.63,2.63,0,0,1,.49,0,1.91,1.91,0,0,1,.47.12,2.57,2.57,0,0,1,.45.2,3.51,3.51,0,0,1,.4.27,2.26,2.26,0,0,1,.35.34,2.19,2.19,0,0,1,.29.39,3.14,3.14,0,0,1,.35.91,6.22,6.22,0,0,1,.12,1.61,6.63,6.63,0,0,1-.28,1.6,23.34,23.34,0,0,1-2.1,5.09l-.8,1.47h8.47c.47,0,.48,0,.45-.47a11,11,0,0,1,.57-3.42,37.91,37.91,0,0,0,1.28-5.25A9.55,9.55,0,0,0,27,12.79a8.64,8.64,0,0,0-.39-1.25,8.49,8.49,0,0,0-.6-1.16,8,8,0,0,0-.79-1.05,7.34,7.34,0,0,0-1-.9L23.81,8c-.17-.12-.35-.23-.53-.34s-.37-.21-.56-.31l-.58-.26-.6-.21c-.2-.06-.41-.12-.61-.16l-.63-.12-.63-.06c-.21,0-.42,0-.63,0l-.64,0-.63.08c-.21,0-.41.08-.62.14s-.41.11-.61.18L16,7.23l-.57.28c-.19.1-.37.21-.55.32a11.5,11.5,0,0,0-1.13.85Zm1.11-2.15a9.6,9.6,0,0,1,2.09-.8,9.12,9.12,0,0,1,1.16-.22,9.34,9.34,0,0,1,1.18-.07,11.71,11.71,0,0,1,1.18.09,11.17,11.17,0,0,1,1.15.24,10.58,10.58,0,0,1,1.12.39,8.61,8.61,0,0,1,1,.53,9.33,9.33,0,0,1,1,.66,8.26,8.26,0,0,1,.88.79,7.49,7.49,0,0,1,1,1.06,8,8,0,0,1,.77,1.21,9,9,0,0,1,.55,1.32,8.58,8.58,0,0,1,.32,1.4,11.87,11.87,0,0,1-.06,3.47,50.27,50.27,0,0,1-1.43,5.78,8.52,8.52,0,0,0-.36,2.24,7.41,7.41,0,0,0,.18,1.24c.07.37,0,.51-.42.53H6.22c-.53,0-.73-.2-.73-.72V5.16c0-.51.19-.71.72-.71h7.92c.48,0,.67.2.68.69S14.81,6,14.81,6.53Z"/><path class="cls-1" d="M13.7,8.68a11.13,11.13,0,0,1,1.1-.85c.18-.11.36-.22.55-.32s.38-.2.57-.28a6.25,6.25,0,0,1,.6-.24,6.13,6.13,0,0,1,.61-.18l.62-.14.63-.08c.21,0,.42,0,.64,0s.42,0,.63,0,.43,0,.64.06l.63.12c.2,0,.41.1.61.16s.41.14.6.22a5.05,5.05,0,0,1,.59.26,5.86,5.86,0,0,1,.55.3c.19.11.37.23.54.35l.5.39a8.36,8.36,0,0,1,1,.91,7.48,7.48,0,0,1,.79,1.06,7.32,7.32,0,0,1,.61,1.18,7.06,7.06,0,0,1,.39,1.26,9.56,9.56,0,0,1,.08,3.33,38,38,0,0,1-1.28,5.26,10.69,10.69,0,0,0-.56,3.41c0,.48,0,.48-.46.48H16.34c.28-.52.55-1,.8-1.47a23,23,0,0,0,2.1-5.09,6.56,6.56,0,0,0,.16-3.21,2.42,2.42,0,0,0-.13-.48,3.68,3.68,0,0,0-.21-.45,3.69,3.69,0,0,0-.29-.4,3.85,3.85,0,0,0-.35-.35A3.62,3.62,0,0,0,18,13.6a3.82,3.82,0,0,0-.46-.21,3.37,3.37,0,0,0-.48-.12,2.63,2.63,0,0,0-.49,0,3,3,0,0,0-.51.08,2.84,2.84,0,0,0-.49.17,3.28,3.28,0,0,0-.45.24,3,3,0,0,0-.41.32,3,3,0,0,0-.34.37,3.35,3.35,0,0,0-.29.44,2.46,2.46,0,0,0-.2.47,2.83,2.83,0,0,0-.13.5,7.54,7.54,0,0,0-.06,1.06V25c0,.21,0,.29-.28.29H6.9c-.23,0-.23-.09-.23-.29V6.94c0-.21,0-.27.23-.27h6.5c.26,0,.32.08.31.32C13.68,7.53,13.7,8.08,13.7,8.68Z"/><path class="cls-1" d="M14.81,20.74V16.52a2.22,2.22,0,0,1,.08-.68,2.31,2.31,0,0,1,.28-.62,1.8,1.8,0,0,1,.29-.39,1.82,1.82,0,0,1,.38-.29,1.74,1.74,0,0,1,.45-.17,1.94,1.94,0,0,1,.48,0,1.58,1.58,0,0,1,.48.1,1.79,1.79,0,0,1,.42.25,1.42,1.42,0,0,1,.33.36,1.75,1.75,0,0,1,.2.44,4.17,4.17,0,0,1,.09,2.58,19.72,19.72,0,0,1-1.82,4.64c-.42.8-.88,1.6-1.34,2.41a1.37,1.37,0,0,1-.13.2c-.09.1-.16.07-.18-.05a.81.81,0,0,1,0-.22C14.81,23.62,14.81,22.18,14.81,20.74Z"/></g></g></svg>