<svg xmlns="http://www.w3.org/2000/svg" viewBox="0 0 85.65 52.08"><defs><style>.cls-1{fill:#b5b5b5;}</style></defs><title>Asset 69</title><g id="Layer_2" data-name="Layer 2"><g id="Layer_1-2" data-name="Layer 1"><path class="cls-1" d="M48.45,24.41c.45.16.86.28,1.25.45a5,5,0,0,1,3.19,4.77,5.61,5.61,0,0,1-2,4.76,6.91,6.91,0,0,1-3.55,1.44,14.73,14.73,0,0,1-2.1.15c-3.28,0-6.56,0-9.84,0-.91,0-1.21-.3-1.22-1.23,0-1.22,0-2.44,0-3.67v-15a2.83,2.83,0,0,1,0-.58.88.88,0,0,1,1-.79c3.3,0,6.59,0,9.89,0a9.34,9.34,0,0,1,3.53.7,4.46,4.46,0,0,1,2.87,4.63A4.9,4.9,0,0,1,49,24.11Zm-9.62,2.23v5.72l.24,0c1.88,0,3.75,0,5.63,0a5.09,5.09,0,0,0,1.45-.27A2.48,2.48,0,0,0,48,29.57a2.58,2.58,0,0,0-1.87-2.64,6.7,6.7,0,0,0-1.77-.3c-1.75,0-3.49,0-5.23,0Zm0-8.32a.59.59,0,0,0,0,.14c0,1.49,0,3,0,4.47,0,.24.15.23.32.23,1.65,0,3.29,0,4.94,0a3.44,3.44,0,0,0,1.22-.28,2.26,2.26,0,0,0,1.37-2.44,2,2,0,0,0-1.72-1.93,18.24,18.24,0,0,0-2.67-.17C41.14,18.3,40,18.32,38.87,18.32Z"/><path class="cls-1" d="M2.39,14.72H3.66a1,1,0,0,1,1.1.8c.27,1,.49,1.94.73,2.91a54.28,54.28,0,0,0,3.07,9.5,19.21,19.21,0,0,0,1.3,2.35c.77,1.22,1.75,1.2,2.55,0a18.76,18.76,0,0,0,2.39-5.58c.74-2.76,1.37-5.55,2.05-8.33.09-.34.18-.68.3-1a.94.94,0,0,1,1-.64h2.65A1,1,0,0,1,21.82,16c-.13.73-.28,1.45-.41,2.18a60.62,60.62,0,0,1-2,8,29.5,29.5,0,0,1-3.53,7.41,6.16,6.16,0,0,1-2.84,2.5A5.23,5.23,0,0,1,7,34.39a22.29,22.29,0,0,1-2.9-4.89,45.77,45.77,0,0,1-3.06-9c-.35-1.48-.65-3-1-4.46a1,1,0,0,1,1.11-1.36Z"/><path class="cls-1" d="M25.12,25.32q0-4.74,0-9.47c0-.37,0-.73.36-.94a1.17,1.17,0,0,1,.57-.19h2.87a.89.89,0,0,1,.93.91V34.8c0,.89-.3,1.19-1.2,1.19H26.2c-.76,0-1.08-.31-1.08-1.08C25.11,31.72,25.12,28.52,25.12,25.32Z"/><path class="cls-1" d="M75.17,6.45a23.66,23.66,0,0,1-2.35,3.68,4.72,4.72,0,0,1-2.67,1.28l-3,.66a1.92,1.92,0,0,0-.33.12c.3,1,.6,1.88.88,2.82a13.65,13.65,0,0,1,.49,1.85,3.65,3.65,0,0,1-.42,2.29c-.57,1.05-1.16,2.08-1.8,3.22l-.7-1.8c-.73-1.9-1.47-3.81-2.18-5.72a6.86,6.86,0,0,1-.35-1.33,3.05,3.05,0,0,1,.4-2.06c.43-.71.84-1.44,1.25-2.16a3.3,3.3,0,0,1,2.47-1.62C69.07,7.3,71.29,7,73.5,6.59l1.61-.24Z"/><path class="cls-1" d="M58.8,22.13c-.1-.16-.21-.31-.3-.48-.5-.9-1-1.79-1.48-2.7A4.22,4.22,0,0,1,57,15.54c.32-1,.64-2,1-3,.15-.47.09-.49-.41-.59-1.25-.26-2.49-.54-3.73-.85A4.13,4.13,0,0,1,51.22,9c-.45-.76-.9-1.52-1.34-2.28a1,1,0,0,1-.06-.31c.1,0,.2,0,.3,0l2.35.38,2.43.39c.68.11,1.36.2,2,.33a9.34,9.34,0,0,1,2,.49,3.22,3.22,0,0,1,1.3,1.07c.6.88,1.09,1.84,1.61,2.78a2.84,2.84,0,0,1,.06,2.4c-.69,1.93-1.45,3.84-2.18,5.75-.26.7-.53,1.4-.8,2.1Z"/><path class="cls-1" d="M54.63,49.82l2.29.5-.16.46-1.3-.33c-.82-.19-1.64-.39-2.46-.56a3.25,3.25,0,0,1-2.57-2.84,5,5,0,0,1,.24-2.46,3.15,3.15,0,0,1,5.24-1.13,3.55,3.55,0,0,1,.93,2.34,3.82,3.82,0,0,1-1.16,3.32A8.7,8.7,0,0,1,54.63,49.82ZM50.9,46.45a8.13,8.13,0,0,0,.26,1.21,2.54,2.54,0,0,0,4.86.11,4.1,4.1,0,0,0-.14-3.41,2.51,2.51,0,0,0-4.05-.68A4.1,4.1,0,0,0,50.9,46.45Z"/><path class="cls-1" d="M0,42.66a.5.5,0,0,1,.62.21c1.3,2,2.62,4,3.93,6l.1.12V42.65h.44V49.8a.45.45,0,0,1-.63-.21l-3.91-6-.12-.13v6.39l-.43,0Z"/><path class="cls-1" d="M10.59,45.46l0-.75h.45v.87c0,1.43,0,2.86-.07,4.28A2.11,2.11,0,0,1,8.75,52a6.9,6.9,0,0,1-1.48-.23c-.35-.07-.38-.28-.15-.55a2.52,2.52,0,0,0,2.82,0c.7-.58.61-1.43.59-2.32a2.2,2.2,0,0,1-3.91-.64A3,3,0,0,1,7.56,45a2.16,2.16,0,0,1,2.89.39S10.51,45.4,10.59,45.46Zm0,1.72h0v-.4A1.65,1.65,0,0,0,9.17,45a1.74,1.74,0,0,0-1.94,1,2.82,2.82,0,0,0,0,2.19A1.72,1.72,0,0,0,10.5,48,5.69,5.69,0,0,0,10.56,47.18Z"/><path class="cls-1" d="M46.15,49a2.33,2.33,0,0,1-1.4.8,2.16,2.16,0,0,1-2.32-1.17,3,3,0,0,1,.64-3.54,2.15,2.15,0,0,1,2.92.13l.18.19c.2-.24-.16-.88.58-.7,0,.28,0,.57,0,.85,0,1.26,0,2.52,0,3.78a5.91,5.91,0,0,1-.14,1.11A2,2,0,0,1,44.78,52a3.35,3.35,0,0,1-1.85-.2c-.39-.17-.4-.2-.15-.57a2.56,2.56,0,0,0,2.75,0C46.29,50.71,46.18,49.83,46.15,49Zm.15-1.81-.11,0c0-.18,0-.36,0-.54A1.67,1.67,0,0,0,44.74,45a1.79,1.79,0,0,0-1.87,1.08,2.9,2.9,0,0,0-.1,2,1.66,1.66,0,0,0,1.45,1.28,1.53,1.53,0,0,0,1.67-.77A7.27,7.27,0,0,0,46.3,47.19Z"/><path class="cls-1" d="M26,42.24c.5-.06.5-.06.5.39,0,.94,0,1.88.09,2.88a3.37,3.37,0,0,1,.29-.35,1.85,1.85,0,0,1,2-.46,1.71,1.71,0,0,1,1.16,1.68c0,1.14,0,2.28,0,3.44h-.47c0-.14,0-.28,0-.42,0-1,0-2-.07-3A1.3,1.3,0,0,0,28.09,45a1.64,1.64,0,0,0-1.6,1.53c0,.95,0,1.91,0,2.86,0,.46,0,.46-.5.4Z"/><path class="cls-1" d="M81.64,47.23c0,1.39.65,2.22,1.83,2.23A12.52,12.52,0,0,0,85,49.32c.18.26.17.36-.19.42a6.75,6.75,0,0,1-1.78.16,2.06,2.06,0,0,1-1.72-1.28,3.18,3.18,0,0,1,.52-3.38,2.07,2.07,0,0,1,2.26-.55,1.89,1.89,0,0,1,1.3,1.72c.14,1,.09.81-.73.82s-1.76,0-2.65,0Zm3.24-.47A1.49,1.49,0,0,0,83.48,45a1.73,1.73,0,0,0-1.8,1.76Z"/><path class="cls-1" d="M68.37,47.16a2.55,2.55,0,0,1-2,2.74,2.39,2.39,0,0,1-2.89-2.08,2.92,2.92,0,0,1,.71-2.52,2.35,2.35,0,0,1,2.61-.56,2.28,2.28,0,0,1,1.51,2.07C68.37,47,68.36,47.08,68.37,47.16ZM67.85,47a6.08,6.08,0,0,0-.27-.92A1.68,1.68,0,0,0,66,45a1.7,1.7,0,0,0-1.65,1,2.65,2.65,0,0,0,.15,2.79,1.78,1.78,0,0,0,2.59.32A2.54,2.54,0,0,0,67.85,47Z"/><path class="cls-1" d="M35,49.84c-.58.16-.32-.39-.46-.69l-.32.3a1.92,1.92,0,0,1-1.83.43,1.29,1.29,0,0,1-1-1.13A1.51,1.51,0,0,1,32,47.21a4,4,0,0,1,2.1-.56l.38,0a1.48,1.48,0,0,0-.46-1.34,2,2,0,0,0-2.18.07L31.71,45a2.61,2.61,0,0,1,2.36-.28A1.41,1.41,0,0,1,35,46.11C35,47.34,35,48.57,35,49.84Zm-.47-2.72a3.74,3.74,0,0,0-2,.27,1.11,1.11,0,0,0-.69,1.06,1,1,0,0,0,.54.95,1.53,1.53,0,0,0,2.09-1.19C34.54,47.86,34.52,47.51,34.52,47.12Z"/><path class="cls-1" d="M16,49.84c-.59.15-.3-.4-.47-.67l-.28.26a2,2,0,0,1-1.85.46,1.3,1.3,0,0,1-1-1.09A1.49,1.49,0,0,1,13,47.27a2.91,2.91,0,0,1,1.58-.56c.31,0,.62-.06,1-.09A1.44,1.44,0,0,0,15,45.25a2.09,2.09,0,0,0-2.13.11l-.15-.3a2.51,2.51,0,0,1,2.54-.23A1.42,1.42,0,0,1,16,46C16,47.29,16,48.54,16,49.84Zm-.48-2.71a3.78,3.78,0,0,0-2,.28,1.19,1.19,0,0,0-.62,1.27,1,1,0,0,0,1,.83,1.6,1.6,0,0,0,1.22-.43C15.7,48.53,15.53,47.83,15.54,47.13Z"/><path class="cls-1" d="M62.17,49.83h-.44l0-.85a2.52,2.52,0,0,1-1.31.91,1.68,1.68,0,0,1-2.21-1.48c-.1-1.17-.08-2.35-.08-3.52,0-.35.29-.17.52-.21v.45c0,1,0,2.08.09,3.11s.58,1.29,1.49,1.23A1.58,1.58,0,0,0,61.63,48c0-1,0-2,0-3.05a1.11,1.11,0,0,1,0-.17c.5-.11.52-.09.52.36,0,1.49,0,3,0,4.47C62.18,49.64,62.17,49.73,62.17,49.83Z"/><path class="cls-1" d="M18.28,49.83h-.53V44.71h.43l.05.84a4.06,4.06,0,0,1,.5-.51,1.93,1.93,0,0,1,2-.3,1.71,1.71,0,0,1,1.06,1.64c0,1.13,0,2.27,0,3.45l-.48,0v-.44c0-1,0-2-.07-3A1.3,1.3,0,0,0,19.85,45a1.62,1.62,0,0,0-1.57,1.56C18.27,47.65,18.28,48.72,18.28,49.83Z"/><path class="cls-1" d="M37.24,49.81c-.52.08-.53.07-.53-.38,0-1.5,0-3,0-4.5,0-.07,0-.14,0-.23h.45v.78l.15.1a.8.8,0,0,1,.11-.25,2,2,0,0,1,2.18-.66,1.81,1.81,0,0,1,1.21,1.8c0,1.11,0,2.22,0,3.36h-.49v-1.2c0-.75,0-1.51-.07-2.25A1.28,1.28,0,0,0,39,45a1.63,1.63,0,0,0-1.65,1.15,2,2,0,0,0-.08.6C37.24,47.79,37.24,48.79,37.24,49.81Z"/><path class="cls-1" d="M78.38,49.79c-.5.12-.53.1-.53-.37V43.06H75.48l0-.4h5.31l0,.39h-1.9c-.51,0-.51,0-.51.51v6.23Z"/><path class="cls-1" d="M73.17,49.23l.13.38a3.07,3.07,0,0,1-2.74,0,2.36,2.36,0,0,1-1.29-2.16A2.58,2.58,0,0,1,71,44.73a3,3,0,0,1,1.92,0c.41.13.4.14.18.54-1.13-.37-2.22-.48-3,.68a2.5,2.5,0,0,0,.13,2.82C71.08,49.73,72.1,49.56,73.17,49.23Z"/><path class="cls-1" d="M14.37,42.93c-.47.28-.38,1.1-1.23,1,.35-.51.64-1,1-1.41,0-.07.4,0,.48.08.33.4.6.84.91,1.29-.3.1-.52.07-.67-.23S14.53,43.18,14.37,42.93Z"/><path class="cls-1" d="M64.9,43.92l.76-1.27a.35.35,0,0,1,.6,0c.27.42.53.85.81,1.3-.31.11-.51.08-.64-.22s-.28-.49-.46-.8c-.18.31-.33.54-.45.8A.43.43,0,0,1,64.9,43.92Z"/><path class="cls-1" d="M83.44,42.88c-.17.3-.33.53-.44.78a.43.43,0,0,1-.63.26c.29-.47.55-.94.87-1.39,0-.06.4,0,.48.09.3.4.54.85.83,1.3a.47.47,0,0,1-.67-.25C83.76,43.42,83.62,43.19,83.44,42.88Z"/><path class="cls-1" d="M33.53,44a1.33,1.33,0,0,1-.43-.21c-.39-.4-.76-.83-1.14-1.26.56-.15.67-.11,1,.32s.44.69.67,1Z"/><path class="cls-1" d="M66.89,42.93a8.19,8.19,0,0,1,.6-1.09c.11-.14.41-.13.66-.13C67.73,42.13,67.64,42.85,66.89,42.93Z"/><path class="cls-1" d="M85.65,41.78c-.45.36-.55,1.07-1.34,1.25A8.87,8.87,0,0,1,85,41.82c.1-.13.4-.12.6-.17Z"/><path class="cls-1" d="M53.32.1a23.65,23.65,0,0,1,4.37.17,4.7,4.7,0,0,1,2.45,1.65l2.09,2.27c.07.07.16.13.27.22.67-.74,1.32-1.47,2-2.19A14.43,14.43,0,0,1,65.84.87,3.59,3.59,0,0,1,68,.08c1.2,0,2.39,0,3.69-.08-.44.56-.81,1-1.2,1.51q-1.91,2.4-3.84,4.78a6.35,6.35,0,0,1-1,1,3,3,0,0,1-2,.69h-2.5a3.27,3.27,0,0,1-2.63-1.31c-1.45-1.72-2.87-3.46-4.3-5.19L53.27.2Z"/></g></g></svg>