<svg xmlns="http://www.w3.org/2000/svg" viewBox="0 0 79.71 95.83"><defs><style>.cls-1,.cls-3{fill:#f26a65;}.cls-1{opacity:0.3;}.cls-2{fill:none;stroke:#4e5496;stroke-miterlimit:10;stroke-dasharray:5;}.cls-4{fill:#fff;}.cls-5{fill:#4e5496;}</style></defs><title>85++</title><g id="Layer_2" data-name="Layer 2"><g id="Layer_1-2" data-name="Layer 1"><circle class="cls-1" cx="37.38" cy="37.38" r="37.38"/><circle class="cls-2" cx="45.78" cy="50.57" r="29.95"/><line class="cls-3" x1="24.1" y1="49.47" x2="75.53" y2="49.47"/><path class="cls-3" d="M75.53,50.47H24.1a1,1,0,1,1,0-2H75.53a1,1,0,0,1,0,2Z"/><path class="cls-3" d="M22.7,73.61l-.16,0a1,1,0,0,1-.83-1.14c0-.24,4-23.49,29.09-24.29,23.31-.74,23.72-23.82,23.73-24.8a1,1,0,0,1,1-1h0a1,1,0,0,1,1,1c0,.26-.45,26-25.67,26.78-23.39.75-27,21.71-27.17,22.6A1,1,0,0,1,22.7,73.61Z"/><rect class="cls-4" x="72.25" y="16.91" width="6.46" height="6.46"/><path class="cls-3" d="M78.71,24.37H72.25a1,1,0,0,1-1-1V16.91a1,1,0,0,1,1-1h6.46a1,1,0,0,1,1,1v6.46A1,1,0,0,1,78.71,24.37Zm-5.46-2H77.7V17.91H73.25Z"/><rect class="cls-4" x="19.47" y="72.61" width="6.46" height="6.46"/><path class="cls-3" d="M25.93,80.07H19.47a1,1,0,0,1-1-1V72.61a1,1,0,0,1,1-1h6.46a1,1,0,0,1,1,1v6.46A1,1,0,0,1,25.93,80.07Zm-5.46-2h4.46V73.61H20.47Z"/><rect class="cls-4" x="45.88" y="45.41" width="6.46" height="6.46"/><path class="cls-3" d="M52.34,52.87H45.88a1,1,0,0,1-1-1V45.41a1,1,0,0,1,1-1h6.46a1,1,0,0,1,1,1v6.46A1,1,0,0,1,52.34,52.87Zm-5.46-2h4.46V46.41H46.88Z"/><path class="cls-4" d="M77.4,49.47a1.88,1.88,0,1,1-1.87-1.87A1.88,1.88,0,0,1,77.4,49.47Z"/><path class="cls-3" d="M75.53,52.35a2.88,2.88,0,1,1,2.88-2.88A2.88,2.88,0,0,1,75.53,52.35Zm0-3.75a.88.88,0,1,0,.87.87A.87.87,0,0,0,75.53,48.6Z"/><path class="cls-4" d="M24.57,49.47A1.88,1.88,0,1,1,22.7,47.6,1.88,1.88,0,0,1,24.57,49.47Z"/><path class="cls-3" d="M22.7,52.35a2.88,2.88,0,1,1,2.87-2.88A2.88,2.88,0,0,1,22.7,52.35Zm0-3.75a.88.88,0,1,0,.87.87A.87.87,0,0,0,22.7,48.6Z"/><polygon class="cls-4" points="48.23 58.53 51.66 56.97 66.17 69.51 67.77 83.27 57.05 88.15 48.06 77.49 48.23 58.53"/><path class="cls-5" d="M68.08,84,57.37,88.84a.75.75,0,0,1-.89-.2L47.49,78a.74.74,0,0,1-.18-.49l.16-19a.77.77,0,0,1,.45-.68l3.42-1.56a.75.75,0,0,1,.81.12L66.66,68.94a.82.82,0,0,1,.26.48l1.6,13.76A.76.76,0,0,1,68.08,84ZM57.26,87.23,67,82.81,65.45,69.89l-13.92-12L49,59l-.16,18.2Z"/><line class="cls-5" x1="55.8" y1="70.61" x2="49.94" y2="57.75"/><path class="cls-5" d="M56.11,71.3a.76.76,0,0,1-1-.38L49.26,58.06a.75.75,0,0,1,.37-1,.76.76,0,0,1,1,.38L56.48,70.3A.75.75,0,0,1,56.11,71.3Z"/><path class="cls-4" d="M60.36,72.67A3.3,3.3,0,1,1,56,71,3.31,3.31,0,0,1,60.36,72.67Z"/><path class="cls-5" d="M59,77.73a4.05,4.05,0,1,1,2-5.37A4.07,4.07,0,0,1,59,77.73Zm-2.73-6A2.54,2.54,0,1,0,59.67,73,2.53,2.53,0,0,0,56.31,71.73Z"/><rect class="cls-4" x="54.8" y="85.33" width="18.25" height="6.24" transform="translate(-30.9 34.43) rotate(-24.48)"/><path class="cls-5" d="M73.83,88.2,57.22,95.76a.75.75,0,0,1-1-.37l-2.58-5.68a.75.75,0,0,1,.37-1l16.61-7.57a.76.76,0,0,1,1,.38l2.59,5.68A.76.76,0,0,1,73.83,88.2ZM57.28,94.07l15.24-6.93-2-4.31L55.32,89.77Z"/></g></g></svg>