<svg xmlns="http://www.w3.org/2000/svg" viewBox="0 0 114.35 114.35"><defs><style>.cls-1{fill:#fff;opacity:0.3;}.cls-2{fill:#f26a65;}.cls-3,.cls-4,.cls-5{fill:none;}.cls-3,.cls-5{stroke:#fff;stroke-width:1.5px;}.cls-3{stroke-miterlimit:10;}.cls-4{stroke:#f26a65;}.cls-4,.cls-5{stroke-linecap:round;stroke-linejoin:round;}</style></defs><title>live</title><g id="Layer_2" data-name="Layer 2"><g id="Layer_1-2" data-name="Layer 1"><circle class="cls-1" cx="57.17" cy="57.17" r="57.17"/><polygon class="cls-2" points="39.41 29.11 52.59 35.06 64.96 27.57 63.38 41.94 74.32 51.39 60.16 54.33 54.56 67.66 47.39 55.1 32.98 53.89 42.71 43.19 39.41 29.11"/><polygon class="cls-3" points="35.77 28.63 48.95 34.58 61.32 27.09 59.74 41.46 70.69 50.91 56.53 53.85 50.92 67.18 43.75 54.62 29.35 53.41 39.07 42.71 35.77 28.63"/><line class="cls-4" x1="87.3" y1="55.93" x2="86.07" y2="55.93"/><line class="cls-4" x1="83.75" y1="55.93" x2="82.52" y2="55.93"/><line class="cls-4" x1="84.9" y1="53.53" x2="84.9" y2="54.76"/><line class="cls-4" x1="84.9" y1="57.17" x2="84.9" y2="58.4"/><line class="cls-4" x1="36.45" y1="72.28" x2="35.22" y2="72.28"/><line class="cls-4" x1="32.9" y1="72.28" x2="31.67" y2="72.28"/><line class="cls-4" x1="34.05" y1="69.88" x2="34.05" y2="71.11"/><line class="cls-4" x1="34.05" y1="73.52" x2="34.05" y2="74.75"/><line class="cls-4" x1="19.46" y1="36.47" x2="18.23" y2="36.47"/><line class="cls-4" x1="15.92" y1="36.47" x2="14.69" y2="36.47"/><line class="cls-4" x1="17.06" y1="34.06" x2="17.06" y2="35.29"/><line class="cls-4" x1="17.06" y1="37.7" x2="17.06" y2="38.93"/><path class="cls-5" d="M60.48,53.17,87.52,81a2.8,2.8,0,0,1-.16,4l-2.25,2.08a2.81,2.81,0,0,1-4-.16l-26-29.74"/></g></g></svg>